<svg id="Livello_1" data-name="Livello 1" xmlns="http://www.w3.org/2000/svg" viewBox="0 0 1024 1024"><defs><style>.cls-1{fill:#fefefe;}.cls-2{fill:#f7b537;}.cls-3{fill:#036602;}.cls-4{fill:#a9610f;}.cls-5{fill:#036502;}.cls-6{fill:#ef6704;}.cls-7{fill:#ea6405;}.cls-8{fill:#ed6705;}.cls-9{fill:#f39404;}.cls-10{fill:#ef7b04;}.cls-11{fill:#f37e04;}.cls-12{fill:#020300;}.cls-13{fill:#f09504;}.cls-14{fill:#ebc103;}.cls-15{fill:#060501;}.cls-16{fill:#865009;}.cls-17{fill:#8f5f04;}.cls-18{fill:#f7de03;}.cls-19{fill:#f5b403;}.cls-20{fill:#f5a504;}.cls-21{fill:#f8c203;}.cls-22{fill:#ee7f04;}.cls-23{fill:#f6ca03;}.cls-24{fill:#040401;}.cls-25{fill:#f38604;}.cls-26{fill:#ee6d04;}.cls-27{fill:#874c09;}.cls-28{fill:#f0dfcb;}.cls-29{fill:#efd802;}.cls-30{fill:#090701;}</style></defs><path class="cls-1" d="M1023.65,511.93c0,164.44-.19,328.88.35,493.32,0,14.25-1.61,18.78-17.88,18.75q-494.72-1-989.43-.07C1.92,1024,0,1020.19,0,1006.61Q.68,512,0,17.41C0,4,1.67,0,16.61,0q496,.87,992,.07c13.48,0,15.37,3.89,15.34,16Q1023.32,264,1023.65,511.93Z" transform="translate(0 0)"/><path class="cls-2" d="M559.61,751.68c67,.49,131.32,14.58,194.7,36,43.43,14.64,88.26,25.12,132.42,37.6,5.67,1.6,11.66,3.16,16.5,6.29,5.36,3.46,13.58,6.15,12.44,14.46-.92,6.74-8.3,7.63-13.56,10.14-26,12.4-54.14,13.4-82.13,15.32-18.66,1.29-37.34,2.63-55.91,4.72-16.43,1.85-24.28,10.32-12.87,25.35,10.15,13.39,1.87,15.77-8.33,17.92C645.18,940,547.31,954.28,447,938.51c-52.83-8.31-106.34-12.38-159.61-17.79-19.83-2-37.76-10.17-56.54-15.52-7.05-2-15.6-5.19-13-15.61,5.19-20.48-9.16-22.64-23-25-29-5-58-9.67-87.64-20.34,28.08-10.47,55.63-22.83,84.36-31,68.6-19.56,136.13-43.41,207.31-53.23,17-2.35,33.9-2.81,50.94-2.45C487,765.65,523,753.6,559.61,751.68Z" transform="translate(0 0)"/><path class="cls-3" d="M220.55,290.89c-25.3,7.6-42.81,30.08-69,36.85-4.7-8.39,2.2-13.09,5.19-18.18,34.8-59.27,70.88-117.8,104.58-177.69,14.22-25.26,22.67.65,35,.43,7.19-8,9.33-20.08,17.65-29,25.94-27.8,25.46-28.24,45.77,0a14.83,14.83,0,0,1,8.44,8.94c5.69,16.34,13.88,14.89,26.46,6.05,31.36-22.06,31.73-21.53,63.16,1.45,12.73,13.94,29.4,23.35,42.6,36.76,37,30.12,71.79,62.87,110.06,91.46-4.05,10.68-12.24,12.68-22.35,10.74-17-8.36-35.74-8.93-54-11.67-16.64-2.49-30.41-8.33-32.36-22.36-2.85,22-4.58,22.71-39.68,10.52C438,220,411,211.52,384.41,202.25c-5.28-1.57-10.12-4.51-15.7-5-15.16,11.49-12.82,31.23-21.66,45.62-15.76,37.26-36.66,71.81-56.25,107.07-4.34,6.36-7.58,14-16.61,15.15-23.33-26.25-29.49-57-23.92-90.87a59.28,59.28,0,0,1,4.3-8.58,32,32,0,0,0,2-4.38c-3-.79-1.25,2.64-2.81,3.31-6.35,7.65-10.16,21.24-24.22,10.09-.81-.65-1.58-.31-1.71,1.32C227.32,281.93,225.69,287.23,220.55,290.89Z" transform="translate(0 0)"/><path class="cls-4" d="M559.61,751.68c-2.77,8.61-9.05,11.23-17.5,10.49-25.33-2.21-50,3-74.4,8.22-13.17,2.84-16.64-2-17.89-12.87,9-9.06,5.61-20.61,5.75-31.16.61-46.26-.92-92.4-10.52-137.9-8.24-10.65-8.77-23.67-11.17-36.12-2.3-17.9,2.06-36.18-3.22-53.89-3.79-15.67-6.31-31.62-10.15-47.28-2.71-10.12-1.2-21.16-6.88-30.63-8-39.67-12.58-80.08-25.28-118.75-2.5-15.12-7.43-29.62-11.59-44.32a12.44,12.44,0,0,1,1.62-7.15c9.36-3.47,19-3.06,28.68-1.73,6.61,3.72,7.38,10,7.46,16.65-1.28,13.9,3.16,26.53,8.68,38.91,15.48,34.77,22,72.31,33.75,108.24,4.06,16,10.92,31.08,14.76,47.12,4,13.39,7.45,26.91,10.85,40.45,3.14,16.05,10,31,14.19,46.71,3,13,6.22,26,9.95,38.77,2.09,6.14,3,12.81,7.14,18.5,7.22-4.13,6.21-12,10-17.14,9-16.84,17.56-33.83,22.66-52.34,8.33-20.49,20.35-39.32,27.18-60.5,14.77-35.83,38.35-67.84,46-106.76,3.51-9.25,8-17.45,19.55-17.89,7.17.54,13.24,3.25,17.73,9,2.27,19.4-7.4,36-14.26,52.69-11.86,28.84-23,57.92-33.64,87.19-5.77,23-11.08,46.09-24.55,66.18-19.11,54.25-26.64,110.53-29.14,167.66C555.07,738.88,555.46,745.73,559.61,751.68Z" transform="translate(0 0)"/><path class="cls-5" d="M589.61,256.38c7.68-1.43,14.83-3.8,19.54-10.66-1.39-10.61,5.35-12.74,13.71-13.2,18.24,2,29.53,23.11,50.23,18.27,14.06-7.48,16.73-27.89,34.85-30.68,13.12,11.77,30.6,19.26,37.62,37,5,12.53,12.07,6.3,17.68,1.9,10.13-8,15.72-4.81,21.94,5.15,32.43,52,65.4,103.61,98.07,155.44,1.1,1.76.93,4.33,2.33,11.63C859.2,407.89,823.17,403.5,811.4,368c-7.37.27-3.94,11.66-11.64,13.15l-23-29.7c10.41,34.44-.73,64.57-16.23,95.34-17.39-12.21-19.8-35.22-35.49-48-19.81-11-18.73-34.89-31.18-50.43-10.3-9.88-9-26.54-20.87-35.34-5.24,1.58-10.05,4.11-15.31,5.42-26.2,7-52.94,12-78,22.63-36.15-1.3-72,1.74-107.66,7.63-9.09,1.5-21.41,3.08-25.39-6.55-4.53-11,8.68-14.56,15.1-20.61,3.1-2.91,6.45-5.56,9.25-8.79a30.9,30.9,0,0,1,8.46-6.81c23.25-4.41,42-18.17,61.72-29.9C558,271.17,569.14,252.3,589.61,256.38Z" transform="translate(0 0)"/><path class="cls-6" d="M440.33,552.88c3,11.67,6.67,23.26,4.73,35.59C329.11,569.27,254,504.34,224,389.86c-8.5-32.46-8.5-65.76-3.46-99,1.95-8.82,3.91-17.65,6.13-27.71,13.23,27,16.54,1.46,23.69-2.6,9.52-.3,8.93,4.93,6.2,11.33-7.53,33.31,4.51,62.33,19.84,90.64-5.79,47.17,14.3,84,46.25,116.18,10.74,10.8,20.55,22.25,33.12,31.47,21.24,15.57,40.37,34.14,69.33,34C431,544.21,436.05,548.56,440.33,552.88Z" transform="translate(0 0)"/><path class="cls-7" d="M707.94,220.11l-31.81,37.31c-17.4-16.85-19.25-42.31-36.36-60.49-47.1-50.06-101.29-79.59-171.81-72.35-4.23.43-8.46-.94-12.74-.57-16.5-14.17-31.05-23.17-53.12-4.87-27.88,23.12-29.58,21.07-42.38-15.87C489.82,41.72,641,90.48,707.94,220.11Z" transform="translate(0 0)"/><path class="cls-8" d="M695.89,346.86l9.57.32c-3.33,20.95,13.59,34.22,19.57,51.63-23.77,74.78-67.68,132.46-140.52,165.61,1.28-24.13,14.55-44.8,19.54-67.85,29.56-18.5,45.66-47.9,62.33-76.85,4.17-7.25,7.21-15.16,12.56-21.72C691.3,383.17,678.16,359.88,695.89,346.86Z" transform="translate(0 0)"/><path class="cls-9" d="M425.59,449.93a150.59,150.59,0,0,1,9.72,46.78c4.54,30.82,2.09,33.77-25.3,22.55-70.76-29-126.58-94.88-123.15-171.11l56.37-108c9.95,12.61,9.44,28.07,11.34,42.78,1.05,8.21-.23,16.83,5.58,23.89,2.9,9.2-.75,15.48-9.78,17C329,327.4,333,342.1,334,356.85c2.91,41.52,29.5,69,56.06,96.54C402.93,466.73,415.13,465.29,425.59,449.93Z" transform="translate(0 0)"/><path class="cls-10" d="M455.22,124c30.26-15.88,61.63-8.88,90,1.66,63,23.43,114.5,60.84,130.9,131.75-12.47,12.33-19.28-2.61-28-6.36-8.44-3.62-15.85-9.62-23.71-14.57-15.47-23.89-37-41.74-59.46-58.38-20.19-15-42.09-26-68.64-18.23C482.69,147.83,466.47,138.77,455.22,124Z" transform="translate(0 0)"/><path class="cls-11" d="M286.86,348.15c12.2,32.79,14.78,68.48,37.94,98.06,27,34.52,60.82,58.35,100.94,71.79,17,5.7,5.33-14.27,9.57-21.3,10.18,18,2.89,37.5,5,56.18-50.56-.41-81.47-34.35-117.94-62.93-28.75-22.54-31.89-55.93-51.87-81.2-10.26-13-7.7-32.2,5.89-46.2Z" transform="translate(0 0)"/><path class="cls-12" d="M482.51,308l-6.39,5.53c-19.44,1.62-26.14-11.69-31.36-26.75-20.44,6.74-29.28-4.58-34.21-22,1.55-6-.68-10.52-5.27-14.21-19.8-13.25-24.56-32.42-21.48-54.66,26.39,10.08,55.7,13.53,77.53,34,7.67,7.7,11.26,17.57,14.8,27.5C479.46,274.16,490.92,289.86,482.51,308Z" transform="translate(0 0)"/><path class="cls-13" d="M496.3,159.88c1.4-12.22,10.6-12.81,18.79-10.39,48,14.23,89.54,37.09,109.31,87-6.53.68-11.88,3.32-15.25,9.23-5.79.76-11.22,2.4-16.74-2.45C560.55,215.28,528.37,187.64,496.3,159.88Z" transform="translate(0 0)"/><path class="cls-14" d="M470.56,257.06q-4.62-13.53-9.23-27.08c5,.88,10.59.59,14.81,2.86,19.46,10.49,23.82,1.57,22-18.61,13.41,35.25,45.62,23,69.25,31.31,7.81,2.75,20.12-3.6,22.23,10.84l-47.2,24.34C520.25,267.4,498.57,252.61,470.56,257.06Z" transform="translate(0 0)"/><path class="cls-15" d="M358.23,307.17c-8.59,6-9.42.48-10-6.39-1.56-20.22-3.35-40.42-5-60.63,5.07-15.73,10.21-31.43,15.16-47.19,1.82-5.8,4.45-8.82,10.42-4.43,8.12,12.71,12.37,27,16.77,41.22,2.67,8.66,2.67,16.38-6.48,21.4a3.89,3.89,0,0,0-.54,4.32C378.3,275.26,372.19,292.76,358.23,307.17Z" transform="translate(0 0)"/><path class="cls-16" d="M379.1,251.15c6.91-22.56-12.44-40.82-10.29-62.61q7.5,3.69,15,7.4c6.6,18.45,10.6,37.91,21.48,54.67A45,45,0,0,1,379.1,251.15Z" transform="translate(0 0)"/><path class="cls-17" d="M256.57,271.91c-1.31-4.19-1.31-9.1-6.2-11.33,1.18-7.88,5.59-13.33,14.29-17.94C265.84,254.33,262.28,263.37,256.57,271.91Z" transform="translate(0 0)"/><path class="cls-18" d="M410.55,264.82c12.5,4.63,15.46,32.67,37,15.08,1.16,1.83,3.27,3.64,3.33,5.51.56,16.54,12.83,22.34,25.23,28.13.17,18-22.63,12.66-26.83,26.25C491,345,524.44,339.62,543,324.26c1.3,10,3.66,18.11,16.67,13.3,5.91-2.18,12.78-5.86,19.41-.72,2.87,18.74-8.85,32-17.43,46.43-21.75,20-40.93,43.67-73.69,46.77-15.37,1.45-29.14,1.6-36.38-15.22C437.31,370,423.13,325.14,408.56,280.4,406.62,274.45,404.14,269.31,410.55,264.82Z" transform="translate(0 0)"/><path class="cls-19" d="M358.23,307.17q10.17-25.85,20.33-51.7c13.06,11,10.79,27.56,15.19,41.7-31.16,31.57-30.06,102.9,26.48,122.26,7.9,9.1,3.95,20.27,5.35,30.51-2,7.42,3,18.45-9.53,20.6-11.8,2-22.1-2.66-30-10.83-29.5-30.41-57.15-62.91-59.78-107.23-.75-12.57-9.45-42.49,25.67-33.23C356.6,320.48,358.36,312.53,358.23,307.17Z" transform="translate(0 0)"/><path class="cls-20" d="M624.52,368.27c-4.76,40.49-30.14,72.18-46.09,107.91C551.84,502.31,505.34,513.9,477,501.47q-5.2-20.33-10.42-40.67c24.51-2.36,48.66-5.79,70.17-19.33,15.84-10,28.06-22,27.84-42.36C574.86,370.06,600.06,369.87,624.52,368.27Z" transform="translate(0 0)"/><path class="cls-21" d="M568.09,398.27c5.45,14.88.4,26.63-11.46,35.74-26.56,20.4-54.25,37.46-90.1,26.79q-7.45-23-14.92-46c22.49,14.95,54.29,11.46,76.43-8.48,10.05-9,20-18.26,29.92-27.39a9.11,9.11,0,0,1,3,9.09C559.89,394,553,403.66,568.09,398.27Z" transform="translate(0 0)"/><path class="cls-22" d="M680.76,399.74c-13.11,38.83-36.57,70.78-65.86,98.81-4.27,4.09-9.32,10.06-10.85-2,12.59-47.65,36-91.26,51.47-137.84a7,7,0,0,1,7.22-.88C674.92,369.15,688.09,380,680.76,399.74Z" transform="translate(0 0)"/><path class="cls-23" d="M420.23,419.43c-10.39,9.79-17.18-.32-23.52-5.34C366,389.78,357,343.17,374.85,306.67c4.14-8.49,10.93-9.67,18.9-9.5C408.31,336.68,412.38,378.47,420.23,419.43Z" transform="translate(0 0)"/><path class="cls-24" d="M568.09,398.27c-30.72,7.88-5-13.79-10.13-19.32l21.15-42.09c24.42-16.06,53.08-17.77,80.45-23.85,2.08,17.92-4.23,31.36-20.95,39.25-8.58,1.93-10.52,9.69-14.09,16-12.15,1.43-20.52,21.64-35.87,7.23A42.13,42.13,0,0,1,568.09,398.27Z" transform="translate(0 0)"/><path class="cls-25" d="M477,501.47c36.42,1.94,69.26-10.46,101.49-25.29-4,22.41-19.05,40.13-26.08,61.26-19.22,8.94-39.16,13.6-60.47,10.08C485,532.79,479.37,517.65,477,501.47Z" transform="translate(0 0)"/><path class="cls-26" d="M491.89,547.52a139.52,139.52,0,0,1,60.48-10.08c-6.13,17.76-12.73,35.3-23.39,51-8.83.74-17.49,6.88-26.53.82C496.44,576,492.53,562.16,491.89,547.52Z" transform="translate(0 0)"/><path class="cls-27" d="M638.61,352.26q10.47-19.63,21-39.26l15-5.58c5.72,19.86-5.86,35-14,51a36.15,36.15,0,0,0-5,.32Z" transform="translate(0 0)"/><path class="cls-28" d="M502.45,589.24c8.77-2.49,17.45-8.4,26.53-.82a9.72,9.72,0,0,1-.62,2.4c-5.07,9.14-2.52,27.46-12.82,27C503,617.34,505.06,600,502.45,589.24Z" transform="translate(0 0)"/><path class="cls-29" d="M470.56,257.06c27.38-12.25,46.66-5.9,71.86,23.66C523,290.93,508.54,312.23,482.5,308Q476.53,282.56,470.56,257.06Z" transform="translate(0 0)"/><path class="cls-30" d="M660.51,358.41c-2.2-18.9,10.22-33.75,14-51,17.08,7.75,14.22,26.29,21.33,39.43-1.82,14.82-3.69,29.64-5.42,44.47-.69,5.9-.3,12.72-9.71,8.41C676.56,384.71,669,371.33,660.51,358.41Z" transform="translate(0 0)"/></svg>