<svg id="Livello_1" data-name="Livello 1" xmlns="http://www.w3.org/2000/svg" viewBox="0 0 1024 1024"><defs><style>.cls-1{fill:#fdfdfd;}.cls-2{fill:#f6b639;}.cls-3{fill:#0b6904;}.cls-4{fill:#ac630c;}.cls-5{fill:#ec6c08;}.cls-6{fill:#e27009;}.cls-7{fill:#efb135;}.cls-8{fill:#ea9604;}.cls-9{fill:#f17f04;}.cls-10{fill:#0b0b02;}.cls-11{fill:#f6c304;}.cls-12{fill:#f3da03;}.cls-13{fill:#f5a603;}</style></defs><path class="cls-1" d="M1023.67,512c0,165.44-.17,330.88.33,496.32,0,12.8-2.89,15.7-15.68,15.68q-496.32-.62-992.65,0C2.88,1024,0,1021.12,0,1008.33Q.62,512,0,15.67C0,2.88,2.88,0,15.67,0Q512,.62,1008.32,0C1021.11,0,1024,2.88,1024,15.68,1023.5,181.12,1023.67,346.56,1023.67,512Z" transform="translate(0 0)"/><path class="cls-2" d="M762.78,875c-19.25,10.14-20.16,10.67-9.25,29.42,5.74,9.87,1.18,12.4-6.12,13.89-30.71,6.28-61.47,12.36-92.33,17.82-15,2.65-30.33,3.15-45.32,5.74-56.92,9.84-113.22,1.24-169.69-4.64-40.45-4.21-81.26-5.62-121.44-11.51-30.83-4.52-61.06-13.62-91.2-21.94-4.51-1.25-11.05-10.66-9.94-14.15,6.44-20.14-8.55-21.79-20.41-24.26-22.38-4.65-45.12-7.61-67.73-11.17-3.35-.53-7.25.45-10.08-.93-4-1.94-7.2-5.45-10.75-8.28,3.35-2.08,6.45-4.88,10.09-6.12,28.82-9.87,57.74-19.44,86.63-29.1,10.18,1.29,20.19,1.1,29.87-2.94,3.92-1.64,9-4.11,12.21-2.43,18.95,9.83,34.33,9.84,51.15-7,7.75-7.75,21.92,4.47,33.54,6.16,10.68,1.54,18.34,3.51,22.83-11.24,5.79-19,26.14-20.15,38.63-3.87,8.17,10.64,37,17.6,48.26,11.92,5.27-2.67,4.2-6.39,2.73-10.48-3.75-10.41,1.77-15.91,10.42-19.8a19.13,19.13,0,0,1,10.71,0,214.49,214.49,0,0,1,57.68,12.08c19,6.81,13.71-17.53,24.66-22a26.56,26.56,0,0,1,10.47-3.36c15.29-.34,26.5,4.87,37,17.64,13.57,16.51,36.38,12.14,54,10.91,18-1.26,37.19,4.71,54.87-5.38,6.14-3.5,12.68,1.47,16.65,8.16,10.28,17.35,25.5,23.09,44.91,18,12.23-3.2,21.38,2.77,30,10.1,5.12,4.32,9.58,10.55,17.49,8.13,8.88-2.71,17.17-4.51,20.11,7.45,2.44,9.93-.22,18.85-8.54,25-15.53,11.49-32.95,17.35-52.52,15.9C769,872.46,765.59,872.57,762.78,875Z" transform="translate(0 0)"/><path class="cls-3" d="M210.14,293.64l-56.83,36.51L149,326c2-4.83,3.51-10,6.14-14.43,35.77-60.63,72-121,107.31-181.88,6.74-11.6,12.94-11.86,21.43-3.82,9.84,9.3,13.54,7,19.15-5.27,5.44-11.86,15.69-21.83,25-31.53,11-11.54,13.58-10.86,23.25,2,2.53,3.38,4.89,6.88,7.33,10.32a15.16,15.16,0,0,1,8.94,8.36c7.21,16,16.59,14.94,29.9,6.16,28-18.46,33.43-17.6,60.1,3,7.69,8.7,17.41,15,26.55,21.94C496,152.21,507,164.62,521.4,173.09c17.87,16.59,38.15,30.45,54.88,48.3,6.06,6.46,17.78,11.56,13.48,22C585,255,572.87,251.56,563,249.9c-4.14-.69-8.2-1.8-12.43-1.93-37.36-2.38-42.62-5.65-48.4-31.32-3.53,9.36,4.36,23.36-10.55,25-10,1.14-19.56-3.77-29.12-6.71A291.93,291.93,0,0,0,391,205.54c-7.66-1.87-13.6-7.83-21.52-9-16.11,8.11-10.09,29.14-22.91,39.08a11.58,11.58,0,0,1-6.56,2.08,44.25,44.25,0,0,1-6.41-2.58,23.35,23.35,0,0,1,3.94,5.81c3.7,15.25-3.75,27.77-10.13,40.42q-14.15,28-27.28,56.52c-10.21,8.34-12.93,25-29.25,26.59-10.11-8.83-11.62-21.59-15.25-33.38a147.77,147.77,0,0,0-4.65-17.4c-1.54-4.57-3.12-9.14-4.29-13.83-3-12.79,2.46-23.95,6.75-35.33a18.63,18.63,0,0,1,2.77-6.48c-2.09,1.25-2.33,3.51-3,5.62-2,6.14-5.64,10.26-12.42,10.72a22.1,22.1,0,0,1-4.77-1.13c-4.73-1.37-5.86-6.9-10.2-8.68.38,4.94.83,9.88-.18,14.78a22.6,22.6,0,0,1-2.35,6.25C220.05,290.17,213.63,289.5,210.14,293.64Z" transform="translate(0 0)"/><path class="cls-4" d="M369.28,189.63l17.11,10.43c15.9,14.69,16.35,36.8,26.15,54.43,1.37,33.5,15.71,63.32,26.89,94,5.92,23.54,11.93,47.05,20.39,69.85C463,429.25,466.6,440,470.2,450.75c3,14.71,8.36,28.8,12.05,43.34,1.09,6.13,3.1,12,4.62,18.06,3.81,16.89,9.85,33.16,13.88,50,2,8.14,3.55,16.4,6.23,24.37,2.87,5.39,1.87,16.39,8.12,15.42,6.45-1,5-12.55,8.88-18.66,6.3-9.89,11.91-20.11,15.17-31.46,7.24-20.24,18.9-38.6,25.1-59.28,2.62-6.79,6.09-13.19,9.08-19.81,15-27.69,26.67-57.06,41.8-84.69,6-9.19,7.89-19.88,11.1-30.11a340.52,340.52,0,0,0,28.07-47.49c6.62-5,13.49-8.63,21.86-4,4.28,20.72-10.18,37.42-12.15,56.8-20.92,44.23-42.26,88.31-53.24,136.43a62.22,62.22,0,0,1-2.37,10.79c-1.43,4.56-3.08,9.06-4.67,13.58-5.17,13-12.09,25.34-16.29,38.8-1.41,2.12-3.42,4-4.16,6.39C564.7,627.9,553.06,687.54,557.84,749.5c4.15,4.51,4.41,8.8-.7,12.8l-9.3.72c-26.13,13.14-54.58,6.79-81.92,9.8H455.78c-5.25-4.85-5-10.77-3.3-17,1.08-10.87,3.68-21.85,3-32.61-2.88-44.89-6.75-89.72-10.25-134.57-10.34-12.86-11.32-28.22-11.74-43.73,0-5.39-.29-10.8-.14-16.2-.14-8-2.58-15.64-3.94-23.46-3.07-21.34-6.62-42.6-11.27-63.66-9.23-52.53-19.39-104.85-33.9-156.23-1.56-10.21-3.51-20.32-8.49-29.58-1.35-14.42-3.4-28.64-8.27-42.47C364.73,205.54,361.23,196.93,369.28,189.63Z" transform="translate(0 0)"/><path class="cls-3" d="M673.94,308l-15.85,4.93c-23.28,16.84-52.14,17.05-78,26.26-43.89,1.55-87.28,12.16-131.54,7.64-8.35-6.15-3.17-11.6,1.53-16.07,6.57-6.25,14.9-10.22,22.44-15.19,4.16-2.56,8.53-4.76,12.81-7.1,14.9-9.07,30.29-17.28,45.79-25.31,12.43-6.41,23.07-15.78,35.78-21.76,15.45-6.41,28.79-16.61,43.52-24.35,18.78-6,33.2,4,47.89,12.95,7.14,4.32,13.68,3.41,19.64-2.38,10.85-8.49,13.7-26.51,31.59-26.55,12.37,12.52,25.59,24.31,36.78,37.8,7.09,8.56,12.24,3.62,16.9-.18,10.36-8.46,16-4.23,22,5.34,33.8,53.93,67.93,107.65,102.63,162.51-29.36-9.07-63.6-33.19-73.55-52.87-3.9-7.72-6.14-3.74-7.54,0-4.08,11.05-8.18,7.46-12.89.71-2.92-4.17-5.76-8.44-9.07-12.29-1.49-1.73-4.05-2.53-6.12-3.74-.78,2.86-2.5,5.84-2.18,8.58,4,33.87,2.1,43.37-17,80.79l-35.72-48.9c-8.5-1.5-7.85-9.84-11.37-15.08-1.53-2.88-3.11-5.75-4.87-8.52A37.07,37.07,0,0,1,702,363.39c-1.14-5.36-.88-10.6,1.64-15.57.18-2.1,3.37-2.94,2.38-5.58-.69,1.21,0,3.06-1.83,3.78-3.21,3.88-6.73,5.06-10.89,1.41C682,336.67,683.94,319.39,673.94,308Z" transform="translate(0 0)"/><path class="cls-5" d="M440.3,542.7l4.92,46C363.37,576.9,298.2,538.2,255,466.93c-29.58-48.85-44.8-101.88-34.83-159.86,3.49,26.14,26.44,14.57,40.23,20.77l11.11,35.77c4.5,28.89,12.48,59.41,30.29,80,35.18,40.71,64.83,93,129.8,94.1C435.06,537.79,437.71,540.48,440.3,542.7Z" transform="translate(0 0)"/><path class="cls-6" d="M709.57,221l-28.72,30c-10.82-2.32-14-11.29-17.66-20-16.92-40.3-47.51-65.85-85-87.66-39.6-23.05-79.87-25.44-122.72-19.79a56.82,56.82,0,0,1-6.62-3.71c-22.27-16.65-22.25-16.67-45.89-.59-29.56,20.1-29.57,20.1-43.15-13a33.35,33.35,0,0,1-1.24-4.89C396.21,87.9,434,75.75,474.81,76.52q138.75,2.6,217,116.79C698.05,202.35,703.67,211.79,709.57,221Z" transform="translate(0 0)"/><path class="cls-7" d="M557.14,762.3q.35-6.4.7-12.8l46.92,4.82c4.8,1.76,10.45-.69,14.85,3l21.09,2.42c4.78,1.23,10.23-1,14.52,2.82,28.66,7.15,57.47,13.78,86,21.56,48.31,13.19,96.36,27.31,144.64,40.57,12.63,3.47,27.76,7.15,28.6,20.41.35,5.47-17.1,13.79-27.62,17.76-10.88,4.11-23.1,5.42-34.86,6.36-29.68,2.39-59.44,3.89-89.16,5.74,5.33-1.6,10.81-2.83,16-4.87,15.23-6,30.85-11.38,45.12-19.19,3.9-2.14,4.7-12,4.87-18.31.17-6.18-4.32-10.49-9-3.45-10.67,15.92-15.84,8.25-23.36-3-4.38-6.57-12.41-11.5-19.84-14.88-3.18-1.44-11.48,1.65-13.19,4.91-5.33,10.15-10.92,12-15.29,1.09-3.54-8.85-9.38-8.8-16.08-8.38-10.45.66-15.74-2.67-15.5-14.24.29-13.91-7.78-12.48-16.91-7.76-11.51,6-11.56,5.87-29.14,1.88a15.77,15.77,0,0,1-2.52-.33c-12.14-4.92-19.48,18.49-31.72,6.33-10.25-10.19-19.28-5.43-30.1-3-4.68,1.06-15.47-4.37-15.71-7.46C588.57,761.72,572.37,763.16,557.14,762.3Z" transform="translate(0 0)"/><path class="cls-5" d="M714.27,379.3l9.53,19.53c-21.21,74.83-65.29,130.64-136.36,164-.27-5.26-2.07-11-.5-15.66,2.93-8.66,7.81-16.67,11.88-25,3.38-2.72,5.23-6.13,4.8-10.58l.32-9.85c21.69-32.78,55.53-56.26,71.44-93.43,3.76-3.42,8.55-6,9.46-11.78.87-4.11,1.66-8.24,3.57-12,4.13-3.44,2.26-6.38-.78-9.28-1.09-5.15-.4-9.78,3.6-13.54,5.26-2.52,10.07-2.32,14.17,2.29l5.73,10.84A4,4,0,0,1,714.27,379.3Z" transform="translate(0 0)"/><path class="cls-7" d="M452.48,755.84l3.3,17c-3.31,6-15.73,9.34-3.35,19.43,9.08,7.4,6.91,14.55-3.3,16.09-13,2-26.05-3.44-39.81,3.77-5.1,2.68-21.49-1.63-20.68-18.52.74-15.44-12.88-9.92-20.94-10-10-.07-9.9,6.81-7,14.28,4.69,12.1-2.77,16.27-12.37,15.53-11.59-.9-25.44-1-33.95-7.36-17.15-12.74-21.63-1.38-28.47,10-10.47,17.48-11.61,18-22.65,1.18-7.14-10.84-14.25-8.85-23.71-5.43-11.49,4.15-23.64,11-34.3-2.07,20.24-6.13,40.25-13.13,60.74-18.22,45.94-11.4,92-22.51,138.26-32.33C419.86,755.89,436.37,756.84,452.48,755.84Z" transform="translate(0 0)"/><path class="cls-6" d="M260.42,327.84c-5.75.8-12.57-.1-17.05,2.73-16.41,10.37-18.32,10.17-22.45-8.25-1.1-4.89-.53-10.16-.73-15.25l.37-14.9q-3-1.08-2.14-2.53c.56-1,1.14-1.53,1.75-1.53.68-2.17,1.37-4.34,2.05-6.51-.41-18.19,12.79-5.5,19.11-8.43l9.23-12.1a6.64,6.64,0,0,1,8.41.4q-3.26,19.53-6.52,39c1,4.09.1,8.88,4.35,11.77Q258.62,320.06,260.42,327.84Z" transform="translate(0 0)"/><path class="cls-4" d="M220.17,288.11a7.41,7.41,0,0,1,.39,4.06l-10.42,1.47Z" transform="translate(0 0)"/><path class="cls-2" d="M619.61,757.34l-14.85-3Z" transform="translate(0 0)"/><path class="cls-2" d="M655.22,762.58l-14.52-2.82Z" transform="translate(0 0)"/><path class="cls-7" d="M465.92,772.82c26.49-10.12,54-11.8,81.92-9.8-3.47,9.86-4.54,22.47-11.39,28.46-3.66,3.21-17.18-7-26.47-7.55-11.84-.71-23.61-15-35.79-1.1Q470.05,777.82,465.92,772.82Z" transform="translate(0 0)"/><path class="cls-7" d="M449.71,822.88,447,827.61c-1.69-1.15-3.6-2.11-4.92-3.59-.31-.36,1.55-3.64,2.05-3.55C446,820.81,447.8,822,449.71,822.88Z" transform="translate(0 0)"/><path class="cls-8" d="M435.43,506.93q2.31,10.19,4.61,20.35c-25.08,9.05-46.58-4.18-62.69-17.86-24.9-21.16-49.57-44-65.74-73.83C294.32,403.73,290,370.14,296,334.81c8.89-18.68,18.51-37.05,26.41-56.14,5.62-13.58,8.91-28.13,13.24-42.25l-.26,0,6.48,1.36c15.45,18.56,15.22,39.72,10.28,61.65-25.71,20.89-29.74,44.41-18,76.5,8.67,23.61,21.93,45.83,26.21,71.08,1.46,8.64,7.32,13.76,14.89,15.73C401.36,469.53,419.43,486.72,435.43,506.93Z" transform="translate(0 0)"/><path class="cls-9" d="M660.24,256.78c-6.64-3.45-13.73-6.25-19.81-10.49-9.75-6.79-19.81-8.42-30.92-4.75-19.93-37.65-49.92-61.1-93.08-66l-36.72-31.33c8.23-15.09,21.12-22.46,37.92-19.52,64.53,11.31,109.58,50.61,145,103.05C669.2,237.55,672.51,248.06,660.24,256.78Z" transform="translate(0 0)"/><path class="cls-9" d="M296,334.81c8.4,27.3,1.16,57.21,15.34,83.85,11.08,20.81,19.75,42.8,41.71,55.23a18.34,18.34,0,0,1,7.18,7.12c16.56,32.86,49.05,38,79.78,46.27q.12,7.71.26,15.42c-4.25,0-8.61-.61-12.74.1-27.91,4.81-47.65-10.78-67.38-26.54-7.89-6.31-16.33-12-23.6-19-5.34-5.11-11.68-11.25-13.07-17.88-1.9-9-4.71-12.46-13.89-14.4-5.32-1.12-11.08-7.93-13.52-13.54q-15.51-35.65-28.68-72.28c-1.49-4.16,2.6-10.32,4.11-15.55Z" transform="translate(0 0)"/><path class="cls-10" d="M486.2,313.11l-7.85,4c-20.39.16-25.23-27.75-34.78-28-22-.51-25.65-15.36-34.42-27.48-.92-1.28-.65-3.22-.42-4.93q-11.18-28.34-22.34-56.67c27.72,3.61,53.95,10.9,75.09,30.66a54.39,54.39,0,0,1,14.16,22.4C478.39,273.25,491.45,291.58,486.2,313.11Z" transform="translate(0 0)"/><path class="cls-5" d="M660.24,256.78c10.68-21.6-5.82-35.69-17-47.83-19.23-20.83-40.61-41-64.56-55.76-20-12.37-44.61-18.93-68.06-23.44-9-1.74-20.52,9.28-30.88,14.49L455.5,123.57c35.8-15.77,70.77-15,105.16,4.56,13.79,7.84,28.93,13.46,42.19,22.05,31.48,20.42,56.71,46.34,68,83.57,1.89,6.19,6.56,11.53,10,17.27C676.1,260.52,670.69,267.64,660.24,256.78Z" transform="translate(0 0)"/><path class="cls-8" d="M516.43,175.57c6.36-12,14.31-2.14,21.78-1.95,14.78.38,28.7-.26,33.25,19,1,4.33,8.8,9.52,13.89,10,25.9,2.5,24,21.12,24.16,38.95l-41.23,24c-6.81-5.88-18-8.64-15.34-21.31l34.63.53c-8.17-8.89-15.9-18.24-24.61-26.57C547.77,203.63,532,189.73,516.43,175.57Z" transform="translate(0 0)"/><path class="cls-11" d="M552.94,244.2q7.66,10.65,15.34,21.31l-35.82,21.06c-16.57-19.6-43.48-20.61-63-35l-8-20.84c4.16.3,8.51-.1,12.45,1,23.05,6.47,23,6.59,24.1-15.64,7.41,7.22,14,17,23.2,21.71S542.26,242.27,552.94,244.2Z" transform="translate(0 0)"/><path class="cls-10" d="M347,302.29Q344.48,270,341.9,237.8c5.62-15.65,11.17-31.32,16.87-46.93,2.59-7.09,6.33-6.57,10.51-1.24,3.05,11.85,5.42,23.94,9.35,35.5,3.56,10.45,4.25,20.34-.06,30.51,1.44,23-7.95,41.58-23.39,57.75a8.91,8.91,0,0,1-7.52-.22C345.18,309.67,344.82,306.05,347,302.29Z" transform="translate(0 0)"/><path class="cls-4" d="M241.33,273.17c-3.26,1.84-9.23,5.51-9.41,5.25-7.34-10.77-5.79,4.79-9.7,3.18.34-10.44.67-20.88,1.08-33.47Z" transform="translate(0 0)"/><path class="cls-4" d="M259,261.47l-8.41-.4c.31-1.62.07-3.77,1-4.76,4.14-4.3,8.62-8.26,13-12.34Q261.77,252.72,259,261.47Z" transform="translate(0 0)"/><path class="cls-4" d="M256.8,312.29l-4.35-11.77Z" transform="translate(0 0)"/><path class="cls-4" d="M335.42,236.44l.26,0Z" transform="translate(0 0)"/><path class="cls-12" d="M445.28,343.42l68.44-5c4.22-.31,9.44.88,12.48-1.18,8-5.44,13.33-12.63,23.14,0,3,3.85,18.88-2.32,28.85-3.9,5.68,25.18-11.18,41.72-23,60.21-21,17.9-43.87,31.19-72.17,34.15-10.89,1.13-20.15.61-28.08-7.38l-20.79-71.81C436.69,344.22,440.58,342.93,445.28,343.42Z" transform="translate(0 0)"/><path class="cls-13" d="M347,302.29q.6,5.18,1.19,10.35a5.79,5.79,0,0,0,5.31,1.62q12.52-29.31,25-58.62c12.09,5.25,10.85,15.84,10.45,26.09-11.77,16.88-16.83,37-25.86,55.21-15.12,30.57,3.19,53.72,22.4,75.1,10.87,12.1,25.57,19.51,39.1,28.26l10.77,66.63c-4.77-1.1-12.74-.89-13.81-3.51C411.21,478,386,475,365.22,466.7c-8.93-3.58-12.8-6.56-11.75-15.31,1.4-11.65-4.73-20.3-9.17-30.37a540.79,540.79,0,0,1-25.83-73C313.33,329.55,328.6,307.55,347,302.29Z" transform="translate(0 0)"/><path class="cls-13" d="M619.37,389.19q-20.5,43.47-41,86.93c-31.87,17.32-65.24,27.17-101.94,20.45q-5.62-22.8-11.24-45.59c23.14-9.53,49.24-8.77,71.54-22.63,11.74-7.29,19.58-15.19,23-28.08,7.43-9.62,17.6-16.25,26.48-24.31a24.2,24.2,0,0,1,7-1.86,22.67,22.67,0,0,1,10.46,2C609.24,380,615.34,383.37,619.37,389.19Z" transform="translate(0 0)"/><path class="cls-11" d="M424.66,440.3c-24.93,2.3-36.51-17.79-50.75-31.9-9.34-9.25-16.21-21.78-21.68-34-7-15.62-.71-31.77,6.71-45A129.44,129.44,0,0,0,370,302.67c2.49-8.16,12.4-14.05,19-20.94,10.31,43.83,20.69,87.65,30.84,131.52C421.92,422.16,423.09,431.28,424.66,440.3Z" transform="translate(0 0)"/><path class="cls-9" d="M681.14,409.52c-11,17-20.84,35-33.33,50.79-9.66,12.25-24.25,20.24-30.94,35.64-1.4,3.22-8.47,4-12.93,5.87,6.58-21.4,12.64-43,19.9-64.15,5.94-17.31,12.44-34.55,20.36-51,4.44-9.22,12.27-16.82,18.57-25.15,13.22,9.14,20.07,22.12,22.69,37.65A17,17,0,0,1,681.14,409.52Z" transform="translate(0 0)"/><path class="cls-10" d="M587.43,378.35c-1.77,14.33-16.1,14.94-24.29,22.26-9.58,1.75-15.12,0-9.61-11.18l24.66-56.15,79.9-20.38c-3.48,19.09-14.06,33.77-28.6,46-6.67,9.25-10.11,22.36-25.42,21.34l-9.31-1.72C592.35,376.67,589.9,377.06,587.43,378.35Z" transform="translate(0 0)"/><path class="cls-9" d="M496.48,563.22,481.11,512c30-3.87,56.83-21.47,88-20.08-1.59,23.43-16.21,41.31-26.09,61.2C527.09,554.5,513.57,567.1,496.48,563.22Z" transform="translate(0 0)"/><path class="cls-11" d="M553.53,389.43c-1.49,7.76-.44,13.34,9.61,11.18,0,14.95-1.6,25.05-20.54,31.82-14.13,5-28.69,11.81-43.41,17.12-11.34,4.09-22.5,5.21-34,1.43l-10.26-30.72c29.77,2.09,58.55,1.1,81.74-22.05C540.94,393.93,547.84,392.29,553.53,389.43Z" transform="translate(0 0)"/><path class="cls-11" d="M445.28,343.42l-11.16,5c-9.7-28.51-19.48-57-28.87-85.6-.49-1.5,2.25-4.06,3.48-6.12,6.59,7.67,13.07,15.42,19.82,22.95,2.16,2.41,6.65,6.45,7.3,6,19.19-14.15,13.56,6.94,19.12,12.7,6.89,7.13,15.51,12.59,23.38,18.77Z" transform="translate(0 0)"/><path class="cls-10" d="M681.08,399.16q-9.15-18.82-18.31-37.66C653.89,341,671,326,673.94,308c2.72.61,7.21.45,7.87,2,5.18,11.89,9.63,24.09,14.3,36.2,6.1,6.86.26,12.3-2.17,18.14L692,378.9a4.4,4.4,0,0,1-.5,5.19l-1,14.62C687.51,402.47,684.37,402.4,681.08,399.16Z" transform="translate(0 0)"/><path class="cls-8" d="M569.12,491.89c-14.56,5-30.77,7.56-43.25,15.75-15.31,10.05-29.84,3.95-44.76,4.33l-4.7-15.4c28-7.17,57.75-6.06,84.59-18.88,4.91-2.35,11.52-1.14,17.35-1.57Z" transform="translate(0 0)"/><path class="cls-5" d="M496.48,563.22c3.17-.8,7.82-.54,9.28-2.57,10.28-14.31,23.25-13,37.27-7.56-.45,13.34-4.09,25-17,31.62a26.58,26.58,0,0,1-23.38,5.2Z" transform="translate(0 0)"/><path class="cls-1" d="M502.66,589.91l23.38-5.2c.18.83.72,1.78.48,2.46-3.71,10.66-7.52,21.27-11.31,31.9Q508.94,604.49,502.66,589.91Z" transform="translate(0 0)"/><path class="cls-8" d="M604.07,380.23l25.42-21.34c.78,11.48.06,22.47-10.12,30.3C612.74,388.82,604.5,391.19,604.07,380.23Z" transform="translate(0 0)"/><path class="cls-9" d="M603.62,511.67c10.23,8.9,2.14,9.48-4.8,10.58Z" transform="translate(0 0)"/><path class="cls-12" d="M469.51,251.56c17.49,5.75,35,11.58,52.49,17.22,8.93,2.87,11.57,9.16,10.46,17.79L486.2,313.11Q477.86,282.33,469.51,251.56Z" transform="translate(0 0)"/><path class="cls-4" d="M693.94,364.27q1.08-9.07,2.17-18.14l10.44-2.83-.28-.28-.87,21Z" transform="translate(0 0)"/><path class="cls-4" d="M706.55,343.3l2.28-2.77c-.1.61,0,1.49-.36,1.77a6.55,6.55,0,0,1-2.2.72Z" transform="translate(0 0)"/><polygon class="cls-4" points="546 320.68 544.74 321.21 545 319.75 546 320.68"/><path class="cls-4" d="M714.27,379.3l-3.14-4.41Z" transform="translate(0 0)"/><path class="cls-4" d="M681.08,399.16l9.38-.45c1.72,7.77-2.05,10.8-9.32,10.81Z" transform="translate(0 0)"/><path class="cls-4" d="M691.51,384.09c.17-1.73.33-3.46.5-5.19C691.84,380.63,691.68,382.36,691.51,384.09Z" transform="translate(0 0)"/><path class="cls-8" d="M353.54,314.26l-5.31-1.62Z" transform="translate(0 0)"/><path class="cls-8" d="M587.43,378.35l7.33.16Z" transform="translate(0 0)"/><ellipse class="cls-4" cx="457.5" cy="771.5" rx="9.5" ry="2.5"/><ellipse class="cls-4" cx="453" cy="763.5" rx="1" ry="7.5"/><path class="cls-4" d="M452.48,755.43a12.33,12.33,0,0,1-2.94,4.2,8.66,8.66,0,0,0-2.8,4.57,11.72,11.72,0,0,0,.09,5.43c.66,1.92,2.38,2.72,4.22,3.23a1.51,1.51,0,0,0,.8-2.9,5,5,0,0,1-1.72-.66,1.74,1.74,0,0,1-.59-1.44,8.3,8.3,0,0,1,.52-4.22,20.14,20.14,0,0,1,2.75-3.09,15.15,15.15,0,0,0,2.56-4.33,1.5,1.5,0,0,0-2.89-.79Z" transform="translate(0 0)"/><path class="cls-4" d="M451.91,764.61a12.3,12.3,0,0,1,.41,1.47c.06.25.1.5.14.75l0,.15c0-.13,0-.13,0,0s0,.26,0,.38a14,14,0,0,1,0,3l2.56-1.06a10,10,0,0,0-2.77-2.1,11.06,11.06,0,0,0-1.75-.71l-.39-.13s-.43-.18-.16,0l-.36-.2c.24.12,0,0-.06-.08.23.22,0-.08,0-.08s0,.51.08.19l0,.16c-.08.17-.08.17,0,0,.23-.21-.16.15.08-.1.41-.43.81-.86,1.26-1.25l.11-.1c.15-.12.15-.13,0,0l.11-.07a.72.72,0,0,1-.29.06,1.14,1.14,0,0,1-.7-.34c-.07-.11-.07-.1,0,0-.08-.2-.1-.24-.07-.13s0,.06,0-.15.05-.27,0-.15,0,.08,0-.07l-.09.15c-.06.09,0,.07.05,0l-.12.13-.31.31,2.51.66a.85.85,0,0,1,0-.17c0-.11,0-.08,0,.1,0-.06,0-.22,0-.29,0-.32-.05,0,0,0a1.43,1.43,0,0,1,.09-.34c.07-.27-.08.11,0,0l.15-.26c.17-.29-.19.16.05-.07l.27-.24-2.51-.66c.05.23.09.46.13.69s.05.26.06.39c0-.17,0,0,0,.07.05.49.08,1,.09,1.48s0,.94,0,1.41c0,.24,0,.47-.07.7-.06.49,0-.13,0,.15l-.06.39-.12.54c0,.08,0,.16-.07.24s-.09.24,0,.05l-.11.22s-.2.31-.08.14-.12.12-.12.12.17-.13,0,0,.23-.1.06,0,0-.12.08,0h-.18c.06,0,.36.11.08,0l.12,0c-.21-.1,0,0,.06.06-.15-.12.05.06.08.11.17.28.08.21.05,0a1.52,1.52,0,0,0-1.85-1,1.56,1.56,0,0,0-1,1.85,2.58,2.58,0,0,0,2.73,2,3.34,3.34,0,0,0,2.91-2.47,12.23,12.23,0,0,0,.54-3.7,17.46,17.46,0,0,0-.39-4.14,1.47,1.47,0,0,0-1-1.05,1.56,1.56,0,0,0-1.46.39,4.23,4.23,0,0,0-1.3,4.24,1.51,1.51,0,0,0,2.51.66c1-1,1.78-2.46.89-3.8a2.19,2.19,0,0,0-2.39-1,4.73,4.73,0,0,0-1.87,1.29c-1,1-2.22,2.25-1.68,3.79a3.33,3.33,0,0,0,1.48,1.78,10,10,0,0,0,1.84.71l.26.09s.28.12.13,0,.05,0,.07,0l.24.12a8.28,8.28,0,0,1,.82.47l.39.27c.14.09,0,0,0,0l.26.21c.25.23.49.46.72.71a1.49,1.49,0,0,0,1.64.31,1.55,1.55,0,0,0,.93-1.37,15.06,15.06,0,0,0-.66-6.56,1.5,1.5,0,0,0-2.9.8Z" transform="translate(0 0)"/><path class="cls-4" d="M548.55,762.91a38.77,38.77,0,0,0,7.64,1.31,9.78,9.78,0,0,0,3.62-.07c1.4-.48,1.55-2,1.41-3.25-.27-2.35-1.51-4.35-2.27-6.54a21.14,21.14,0,0,1-1.19-7.13,1.5,1.5,0,0,0-3,0,22.2,22.2,0,0,0,1.41,7c.35,1.08.71,2.16,1,3.27a8.83,8.83,0,0,1,.38,2.87c0,.12-.09.27-.1.39s-.11.22-.08.13a.5.5,0,0,1,.67-.12c.5-.27.09.21.25,0a6,6,0,0,0,.06-.76,7.44,7.44,0,0,0-.29-3.11c-.29-.95-.72-1.85-1.09-2.78a5.59,5.59,0,0,1-.56-2.66h-2.89a3.77,3.77,0,0,1-1.74,3.72c-1.63,1-.13,3.61,1.52,2.59a6.91,6.91,0,0,0,3.11-7.11c-.24-1.42-2.68-1.45-2.89,0-.32,2.15.44,3.91,1.22,5.86a7.22,7.22,0,0,1,.69,2.65c0,1.14-.34,2.18.29,3.25a2.45,2.45,0,0,0,2.84,1.13,3.05,3.05,0,0,0,1.88-2.4c.43-2.15-.34-4.58-1-6.61-.76-2.4-1.69-4.79-1.67-7.34h-3a23.7,23.7,0,0,0,1.29,7.92c.43,1.22,1,2.38,1.49,3.57a13.89,13.89,0,0,1,.59,1.79,5.35,5.35,0,0,1,.14,1.19c0,.37,0,.36.08-.06l.66-.39a6.13,6.13,0,0,1-2.22,0c-.85,0-1.7-.12-2.54-.23a35.63,35.63,0,0,1-4.91-1,1.5,1.5,0,0,0-.79,2.89Z" transform="translate(0 0)"/></svg>