<?xml version="1.0" encoding="utf-8"?>
<!-- Generator: Adobe Illustrator 24.1.1, SVG Export Plug-In . SVG Version: 6.00 Build 0)  -->
<svg version="1.1" id="Livello_1" xmlns="http://www.w3.org/2000/svg" xmlns:xlink="http://www.w3.org/1999/xlink" x="0px" y="0px"
	 viewBox="0 0 283 283.1" style="enable-background:new 0 0 283 283.1;" xml:space="preserve">
<style type="text/css">
	.st0{clip-path:url(#SVGID_2_);}
	.st1{fill:#EF7D00;}
	.st2{fill:#F08300;}
	.st3{fill:#F18900;}
	.st4{fill:#F28F00;}
	.st5{fill:#F49500;}
	.st6{fill:#F59B00;}
	.st7{fill:#F6A000;}
	.st8{fill:#F7A600;}
	.st9{fill:#F8AC00;}
	.st10{fill:#F9B200;}
	.st11{fill:#FBB700;}
	.st12{fill:#FCBC00;}
	.st13{fill:#FDC200;}
	.st14{fill:#FEC700;}
	.st15{fill:#FFCC00;}
	.st16{fill:#FFD100;}
	.st17{fill:#FFD600;}
	.st18{fill:#FFDB00;}
	.st19{fill:#FFDF00;}
	.st20{fill:#FFE400;}
	.st21{fill:#FFE900;}
	.st22{fill:#FFED00;}
	.st23{fill-rule:evenodd;clip-rule:evenodd;fill:#FBCA57;}
	.st24{fill-rule:evenodd;clip-rule:evenodd;fill:#C88040;}
	.st25{fill-rule:evenodd;clip-rule:evenodd;fill:#00933A;}
	.st26{fill-rule:evenodd;clip-rule:evenodd;fill:#171C17;}
</style>
<g>
	<g>
		<defs>
			<path id="SVGID_1_" d="M48.6,83.1C48.7,37.1,86-0.1,132,0s83.2,37.4,83.1,83.4c-0.1,46-37.4,83.2-83.4,83.1c0,0,0,0-0.1,0
				C85.7,166.4,48.5,129,48.6,83.1"/>
		</defs>
		<clipPath id="SVGID_2_">
			<use xlink:href="#SVGID_1_"  style="overflow:visible;"/>
		</clipPath>
		<g class="st0">
			<path class="st1" d="M36.8,83.3c0-52.5,42.6-95.1,95.1-95.1S227,30.8,227,83.3s-42.6,95.1-95.1,95.1
				C79.4,178.3,36.8,135.8,36.8,83.3"/>
			<path class="st1" d="M42.7,83.3c0-49.2,39.9-89.1,89.2-89.1c49.2,0,89.2,39.9,89.1,89.2c0,49.2-39.9,89.1-89.2,89.1l0,0
				C82.6,172.4,42.7,132.5,42.7,83.3L42.7,83.3"/>
			<path class="st1" d="M48.6,83.3c0-46,37.3-83.2,83.2-83.2c46,0,83.2,37.3,83.2,83.2s-37.2,83.2-83.1,83.2l0,0
				C85.9,166.5,48.6,129.2,48.6,83.3L48.6,83.3"/>
			<path class="st2" d="M51.3,83.3c0-44.5,36.1-80.6,80.6-80.6s80.6,36.1,80.6,80.6s-36.1,80.6-80.6,80.6l0,0
				C87.4,163.8,51.3,127.8,51.3,83.3L51.3,83.3"/>
			<path class="st3" d="M54,83.3c0-43,34.9-77.9,77.9-77.9s77.9,34.9,77.9,77.9s-34.9,77.9-77.9,77.9l0,0
				C88.8,161.2,54,126.3,54,83.3"/>
			<path class="st4" d="M56.6,83.3C56.6,41.7,90.3,8,131.9,8s75.3,33.7,75.3,75.3s-33.8,75.2-75.3,75.2l0,0
				C90.3,158.5,56.6,124.8,56.6,83.3L56.6,83.3"/>
			<path class="st5" d="M59.3,83.3c0-40.1,32.5-72.6,72.6-72.6s72.6,32.5,72.6,72.6s-32.5,72.6-72.6,72.6l0,0
				C91.8,155.9,59.3,123.4,59.3,83.3L59.3,83.3"/>
			<path class="st6" d="M61.9,83.3c0-38.6,31.3-69.9,69.9-69.9s69.9,31.3,69.9,69.9s-31.3,69.9-69.9,69.9l0,0
				C93.2,153.2,61.9,121.9,61.9,83.3"/>
			<path class="st7" d="M64.6,83.3c0-37.2,30.1-67.3,67.3-67.3s67.3,30.1,67.3,67.3s-30.1,67.3-67.3,67.3l0,0
				C94.7,150.6,64.6,120.4,64.6,83.3L64.6,83.3"/>
			<path class="st8" d="M67.2,83.3c0-35.7,28.9-64.6,64.6-64.6s64.6,28.9,64.6,64.6s-28.9,64.6-64.6,64.6l0,0
				C96.2,147.9,67.2,119,67.2,83.3L67.2,83.3"/>
			<path class="st9" d="M69.9,83.3c0-34.2,27.8-62,62-62s62,27.8,62,62s-27.8,62-62,62S69.9,117.5,69.9,83.3L69.9,83.3"/>
			<path class="st10" d="M72.6,83.3c0-32.8,26.6-59.3,59.3-59.3s59.3,26.6,59.3,59.3s-26.6,59.3-59.3,59.3l0,0
				C99.1,142.6,72.6,116.1,72.6,83.3L72.6,83.3"/>
			<path class="st11" d="M75.2,83.3c0-31.3,25.4-56.7,56.7-56.7s56.7,25.4,56.7,56.7S163.2,140,131.9,140l0,0
				C100.5,139.9,75.2,114.6,75.2,83.3L75.2,83.3"/>
			<path class="st12" d="M77.9,83.3c0-29.8,24.2-54,54-54s54,24.2,54,54s-24.2,54-54,54S77.9,113.1,77.9,83.3"/>
			<path class="st13" d="M80.5,83.3c0-28.4,23-51.3,51.4-51.3s51.3,23,51.3,51.4c0,28.3-23,51.3-51.4,51.3
				C103.5,134.7,80.5,111.7,80.5,83.3"/>
			<path class="st14" d="M83.2,83.3c0-26.9,21.8-48.7,48.7-48.7s48.7,21.8,48.7,48.7S158.8,132,131.9,132S83.2,110.2,83.2,83.3
				L83.2,83.3"/>
			<path class="st15" d="M85.8,83.3c0-25.4,20.6-46,46-46s46,20.6,46,46s-20.6,46-46,46S85.8,108.7,85.8,83.3L85.8,83.3"/>
			<path class="st16" d="M88.5,83.3c0-24,19.4-43.4,43.4-43.4s43.4,19.4,43.4,43.4s-19.4,43.4-43.4,43.4l0,0
				C107.9,126.7,88.5,107.2,88.5,83.3L88.5,83.3"/>
			<path class="st17" d="M91.2,83.3c0-22.5,18.2-40.7,40.7-40.7s40.7,18.2,40.7,40.7S154.4,124,131.9,124l0,0
				C109.4,124,91.2,105.8,91.2,83.3"/>
			<path class="st18" d="M93.8,83.3c0-21,17-38.1,38.1-38.1c21,0,38.1,17,38.1,38.1s-17,38.1-38.1,38.1l0,0
				C110.8,121.3,93.8,104.3,93.8,83.3L93.8,83.3"/>
			<path class="st19" d="M96.5,83.3c0-19.6,15.8-35.4,35.4-35.4s35.4,15.8,35.4,35.4s-15.8,35.4-35.4,35.4l0,0
				C112.3,118.7,96.5,102.8,96.5,83.3L96.5,83.3"/>
			<path class="st20" d="M99.1,83.3c0-18.1,14.7-32.8,32.7-32.8s32.8,14.7,32.8,32.8s-14.7,32.8-32.8,32.8
				C113.8,116,99.1,101.4,99.1,83.3"/>
			<path class="st21" d="M101.8,83.3c0-16.6,13.5-30.1,30.1-30.1S162,66.7,162,83.3s-13.5,30.1-30.1,30.1l0,0
				C115.2,113.4,101.8,99.9,101.8,83.3L101.8,83.3"/>
			<path class="st22" d="M104.4,83.3c0-15.2,12.3-27.4,27.4-27.4c15.2,0,27.4,12.3,27.4,27.4s-12.3,27.4-27.4,27.4l0,0
				C116.7,110.7,104.4,98.4,104.4,83.3L104.4,83.3"/>
			<path class="st22" d="M107.1,83.3c0-13.7,11.1-24.8,24.8-24.8s24.8,11.1,24.8,24.8s-11.1,24.8-24.8,24.8l0,0
				C118.2,108,107.1,97,107.1,83.3"/>
			<path class="st22" d="M119.5,83.3c0-6.8,5.5-12.4,12.4-12.4s12.4,5.5,12.4,12.4c0,6.8-5.5,12.4-12.4,12.4l0,0
				C125,95.7,119.5,90.1,119.5,83.3"/>
		</g>
	</g>
</g>
<path class="st23" d="M10.9,248.5c15-22.2,112.3-31.7,137.8-31.4c13.5,0,105.3,7.8,115.9,26c4.5,1.4,8.9,3.4,12.9,6
	c-0.7-0.3-2.3,0.7-3,1l-3,2l-3,1l-1,1c-1,0.3-3.4,1-4,2c-1.8,0-4.2,0-5.9,0l-4,1h-3l-2,1c-1,0-8.9,0-10.9,0c-1,0-3,0-4,0
	c0,0-5.5,1-6.9,1c0,0-5.3,1-5.9,1l-1,1h-2c0.5,1.4,2.1,3.4,2,5c0.7,1.5,1.7,2.9,3,4h1v2c-1.7,0.5-3.4,1.2-5,2h-3
	c-1.2,0.5-3.7,1.2-5,1l-8.9,2h-3c-4,2.5-9.4,2-13.9,2c-1.1,0.5-5.9,2-5.9,2c-0.7,0-3.3,0-4,0l-2,1c-2.8,0-6.1,0-8.9,0l-1,1
	c-4.1,0-8.7,0-12.9,0l-2-1h-2c-2,0-5,0-6.9,0h-2l-2-1c-1.8,0-4.2,0-5.9,0c-0.8,0.2-7.2-1-7.9-1l-1-1c-3.2,0-6.7,0-9.9,0
	c0,0-6.9-1-8.9-1c0,0-6.9-1-8.9-1l-2-1c0,0-8.1,0-10.9,0c-1.1-0.5-3.7-1.3-4.9-1c0,0-7.8-1-8.9-1c-1.8-0.8-16.1-6.1-17.8-7v-2l1-1
	v-5.6c-1.1-1.4-3.5-2.1-5-3l-7.9-1c-1.2-0.5-3.7-1.3-5-1h-3c0,0-11.4-1.9-13.9-2c-1.5-0.7-2.9-1.7-4-3"/>
<polyline class="st24" points="191.5,73.5 197.4,71.5 194.5,79.5 191.5,88.4 187.5,96.3 184.5,106.2 176.5,124 173.5,134.9 
	170.5,144.8 167.6,153.7 165.6,164.6 162.6,174.5 161.5,184.4 157.5,204.2 157.5,222 128.8,217 130.8,213.1 131.8,209.1 
	133.8,205.1 134.8,201.2 136.8,196.2 137.8,192.3 139.8,187.3 141.7,183.4 143.7,178.4 146.7,174.5 147.7,169.5 149.7,164.6 
	152.7,159.6 153.7,155.7 157.7,145.8 160.6,141.8 166.6,127 168.6,123 170.6,118 173.6,113.1 175.6,109.1 177.6,104.2 179.6,100.2 
	181.5,95.3 183.5,91.3 185.5,86.4 188.5,82.4 189.5,78.5 191.5,73.5 "/>
<polyline class="st25" points="195.5,60.6 179.7,50.7 120.1,85.3 148.9,83.3 155.8,74.4 153.8,84.3 191.5,75.5 197.4,71.5 
	195.5,60.6 "/>
<polyline class="st25" points="220.2,62.7 229.2,56.8 266.7,116.3 242.9,101.4 240,90.5 238,100.4 226.1,84.5 220.2,62.7 "/>
<polyline class="st25" points="206.4,45.8 195.5,60.6 197.4,71.5 204.3,87.4 209.3,78.5 206.3,91.4 224.1,122.1 231.1,101.3 
	218.3,55.7 206.4,45.8 "/>
<polyline class="st26" points="182.6,77.5 191.5,75.5 185.5,86.4 172.6,97.3 167.7,93.3 166.7,100.2 155.8,105.1 166.7,81.4 
	182.6,77.5 "/>
<polyline class="st26" points="197.4,71.5 202.4,86.4 200.3,106.2 191.5,87.4 197.4,71.5 "/>
<polyline class="st24" points="102.4,35.7 95.5,32.7 99.4,42.6 101.4,52.5 110.2,88.2 112.2,100.1 115.1,113 117.1,125.9 120,138.7 
	121,150.6 122,163.5 123.9,176.4 124.9,189.3 125.9,201.2 125.8,213.1 124.8,224.9 153.6,220 151.6,209.1 148.6,198.2 146.7,187.3 
	143.7,176.4 139.8,164.5 136.8,152.6 132.9,140.8 130,127.9 122.1,104.1 119.1,92.2 115.2,80.3 111.3,69.4 108.3,57.5 104.4,46.6 
	102.4,35.7 "/>
<polyline class="st25" points="99.5,18.8 116.3,7 171.7,54.7 144,50.6 138.1,38.7 139,51.6 102.4,37.7 95.5,32.7 99.5,18.8 "/>
<polyline class="st25" points="74.7,19.8 65.8,12.8 24.1,84.1 48.9,68.3 51.9,52.4 53.8,65.3 66.7,46.5 74.7,19.8 "/>
<polyline class="st25" points="88.6,-1 99.5,18.8 96.5,32.7 87.5,52.5 84.6,40.6 86.5,56.5 66.6,93.1 59.8,68.3 76.7,11.9 88.6,-1 
	"/>
<polyline class="st26" points="111.3,40.7 102.4,37.7 107.3,52.5 119.2,67.4 123.2,61.5 125.1,71.4 135,77.4 126.2,46.6 111.3,40.7 
	"/>
<polyline class="st26" points="95.5,32.7 89.5,50.5 91.4,77.3 101.4,52.5 95.5,32.7 "/>
</svg>
