<?xml version="1.0" encoding="utf-8"?>
<!-- Generator: Adobe Illustrator 24.1.1, SVG Export Plug-In . SVG Version: 6.00 Build 0)  -->
<svg version="1.1" id="Livello_1" xmlns="http://www.w3.org/2000/svg" xmlns:xlink="http://www.w3.org/1999/xlink" x="0px" y="0px"
	 viewBox="0 0 300 300.1" style="enable-background:new 0 0 300 300.1;" xml:space="preserve">
<style type="text/css">
	.st0{clip-path:url(#SVGID_2_);}
	.st1{fill:#EF7D00;}
	.st2{fill:#F08300;}
	.st3{fill:#F18900;}
	.st4{fill:#F28F00;}
	.st5{fill:#F49500;}
	.st6{fill:#F59B00;}
	.st7{fill:#F6A000;}
	.st8{fill:#F7A600;}
	.st9{fill:#F8AC00;}
	.st10{fill:#F9B200;}
	.st11{fill:#FBB700;}
	.st12{fill:#FCBC00;}
	.st13{fill:#FDC200;}
	.st14{fill:#FEC700;}
	.st15{fill:#FFCC00;}
	.st16{fill:#FFD100;}
	.st17{fill:#FFD600;}
	.st18{fill:#FFDB00;}
	.st19{fill:#FFDF00;}
	.st20{fill:#FFE400;}
	.st21{fill:#FFE900;}
	.st22{fill:#FFED00;}
	.st23{fill-rule:evenodd;clip-rule:evenodd;fill:#FBCA57;}
	.st24{fill-rule:evenodd;clip-rule:evenodd;fill:#C88040;}
	.st25{fill-rule:evenodd;clip-rule:evenodd;fill:#00933A;}
	.st26{fill-rule:evenodd;clip-rule:evenodd;fill:#171C17;}
</style>
<g>
	<g>
		<g>
			<defs>
				<path id="SVGID_1_" d="M51.1,99c0.1-46,44.2-82.1,90.2-82s76.4,36.3,76.3,82.3c-0.1,46-37.4,83.2-83.4,83.1c0,0,0,0-0.1,0
					C88.2,182.3,51,144.9,51.1,99"/>
			</defs>
			<clipPath id="SVGID_2_">
				<use xlink:href="#SVGID_1_"  style="overflow:visible;"/>
			</clipPath>
			<g class="st0">
				<path class="st1" d="M39.3,99.2c0-52.5,49.4-94,101.9-94s88.3,41.5,88.3,94s-42.6,95.1-95.1,95.1
					C81.9,194.2,39.3,151.7,39.3,99.2"/>
				<path class="st1" d="M45.2,99.2c0-49.2,46.7-88,96-88c49.2,0,82.4,38.8,82.3,88.1c0,49.2-39.9,89.1-89.2,89.1l0,0
					C85.1,188.3,45.2,148.4,45.2,99.2L45.2,99.2"/>
				<path class="st1" d="M51.1,99.2c0-46,37.3-83.2,83.2-83.2c46,0,83.2,37.3,83.2,83.2s-37.2,83.2-83.1,83.2l0,0
					C88.4,182.4,51.1,145.1,51.1,99.2L51.1,99.2"/>
				<path class="st2" d="M53.8,99.2c0-44.5,36.1-80.6,80.6-80.6S215,54.7,215,99.2s-36.1,80.6-80.6,80.6l0,0
					C89.9,179.7,53.8,143.7,53.8,99.2L53.8,99.2"/>
				<path class="st3" d="M56.5,99.2c0-43,34.9-77.9,77.9-77.9s77.9,34.9,77.9,77.9s-34.9,77.9-77.9,77.9l0,0
					C91.3,177.1,56.5,142.2,56.5,99.2"/>
				<path class="st4" d="M59.1,99.2c0-41.6,33.7-75.3,75.3-75.3s75.3,33.7,75.3,75.3s-33.8,75.2-75.3,75.2l0,0
					C92.8,174.4,59.1,140.7,59.1,99.2L59.1,99.2"/>
				<path class="st5" d="M61.8,99.2c0-40.1,32.5-72.6,72.6-72.6S207,59.1,207,99.2s-32.5,72.6-72.6,72.6l0,0
					C94.3,171.8,61.8,139.3,61.8,99.2L61.8,99.2"/>
				<path class="st6" d="M64.4,99.2c0-38.6,31.3-69.9,69.9-69.9s69.9,31.3,69.9,69.9s-31.3,69.9-69.9,69.9l0,0
					C95.7,169.1,64.4,137.8,64.4,99.2"/>
				<path class="st7" d="M67.1,99.2c0-37.2,30.1-67.3,67.3-67.3s67.3,30.1,67.3,67.3s-30.1,67.3-67.3,67.3l0,0
					C97.2,166.5,67.1,136.3,67.1,99.2L67.1,99.2"/>
				<path class="st8" d="M69.7,99.2c0-35.7,28.9-64.6,64.6-64.6s64.6,28.9,64.6,64.6s-28.9,64.6-64.6,64.6l0,0
					C98.7,163.8,69.7,134.9,69.7,99.2L69.7,99.2"/>
				<path class="st9" d="M72.4,99.2c0-34.2,27.8-62,62-62s62,27.8,62,62s-27.8,62-62,62S72.4,133.4,72.4,99.2L72.4,99.2"/>
				<path class="st10" d="M75.1,99.2c0-32.8,26.6-59.3,59.3-59.3s59.3,26.6,59.3,59.3s-26.6,59.3-59.3,59.3l0,0
					C101.6,158.5,75.1,132,75.1,99.2L75.1,99.2"/>
				<path class="st11" d="M77.7,99.2c0-31.3,25.4-56.7,56.7-56.7s56.7,25.4,56.7,56.7s-25.4,56.7-56.7,56.7l0,0
					C103,155.8,77.7,130.5,77.7,99.2L77.7,99.2"/>
				<path class="st12" d="M80.4,99.2c0-29.8,24.2-54,54-54s54,24.2,54,54s-24.2,54-54,54S80.4,129,80.4,99.2"/>
				<path class="st13" d="M83,99.2c0-28.4,23-51.3,51.4-51.3s51.3,23,51.3,51.4c0,28.3-23,51.3-51.4,51.3
					C106,150.6,83,127.6,83,99.2"/>
				<path class="st14" d="M85.7,99.2c0-26.9,21.8-48.7,48.7-48.7s48.7,21.8,48.7,48.7s-21.8,48.7-48.7,48.7S85.7,126.1,85.7,99.2
					L85.7,99.2"/>
				<path class="st15" d="M88.3,99.2c0-25.4,20.6-46,46-46s46,20.6,46,46s-20.6,46-46,46S88.3,124.6,88.3,99.2L88.3,99.2"/>
				<path class="st16" d="M91,99.2c0-24,19.4-43.4,43.4-43.4s43.4,19.4,43.4,43.4s-19.4,43.4-43.4,43.4l0,0
					C110.4,142.6,91,123.1,91,99.2L91,99.2"/>
				<path class="st17" d="M93.7,99.2c0-22.5,18.2-40.7,40.7-40.7s40.7,18.2,40.7,40.7s-18.2,40.7-40.7,40.7l0,0
					C111.9,139.9,93.7,121.7,93.7,99.2"/>
				<path class="st18" d="M96.3,99.2c0-21,17-38.1,38.1-38.1c21,0,38.1,17,38.1,38.1s-17,38.1-38.1,38.1l0,0
					C113.3,137.2,96.3,120.2,96.3,99.2L96.3,99.2"/>
				<path class="st19" d="M99,99.2c0-19.6,15.8-35.4,35.4-35.4s35.4,15.8,35.4,35.4s-15.8,35.4-35.4,35.4l0,0
					C114.8,134.6,99,118.7,99,99.2L99,99.2"/>
				<path class="st20" d="M101.6,99.2c0-18.1,14.7-32.8,32.7-32.8s32.8,14.7,32.8,32.8S152.4,132,134.3,132
					C116.3,131.9,101.6,117.3,101.6,99.2"/>
				<path class="st21" d="M104.3,99.2c0-16.6,13.5-30.1,30.1-30.1s30.1,13.5,30.1,30.1s-13.5,30.1-30.1,30.1l0,0
					C117.7,129.3,104.3,115.8,104.3,99.2L104.3,99.2"/>
				<path class="st22" d="M106.9,99.2c0-15.2,12.3-27.4,27.4-27.4c15.2,0,27.4,12.3,27.4,27.4s-12.3,27.4-27.4,27.4l0,0
					C119.2,126.6,106.9,114.3,106.9,99.2L106.9,99.2"/>
				<path class="st22" d="M109.6,99.2c0-13.7,11.1-24.8,24.8-24.8s24.8,11.1,24.8,24.8S148.1,124,134.4,124l0,0
					C120.7,123.9,109.6,112.9,109.6,99.2"/>
				<path class="st22" d="M122,99.2c0-6.8,5.5-12.4,12.4-12.4c6.9,0,12.4,5.5,12.4,12.4c0,6.8-5.5,12.4-12.4,12.4l0,0
					C127.5,111.6,122,106,122,99.2"/>
			</g>
		</g>
	</g>
</g>
<path class="st23" d="M20.2,265.5c15-22.2,105.5-32.8,131-32.5c13.5,0,105.3,7.8,115.9,26c4.5,1.4,8.9,3.4,12.9,6
	c-0.7-0.3-2.3,0.7-3,1l-3,2l-3,1l-1,1c-1,0.3-3.4,1-4,2c-1.8,0-4.2,0-5.9,0l-4,1h-3l-2,1c-1,0-8.9,0-10.9,0c-1,0-3,0-4,0
	c0,0-5.5,1-6.9,1c0,0-5.3,1-5.9,1l-1,1h-2c0.5,1.4,2.1,3.4,2,5c0.7,1.5,1.7,2.9,3,4h1v2c-1.7,0.5-3.4,1.2-5,2h-3
	c-1.2,0.5-3.7,1.2-5,1l-8.9,2h-3c-4,2.5-9.4,2-13.9,2c-1.1,0.5-5.9,2-5.9,2c-0.7,0-3.3,0-4,0l-2,1c-2.8,0-6.1,0-8.9,0l-1,1
	c-4.1,0-8.7,0-12.9,0l-2-1h-2c-2,0-5,0-6.9,0h-2l-2-1c-1.8,0-4.2,0-5.9,0c-0.8,0.2-7.2-1-7.9-1l-1-1c-3.2,0-6.7,0-9.9,0
	c0,0-6.9-1-8.9-1c0,0-6.9-1-8.9-1l-2-1c0,0-1.3,1.1-4.1,1.1c-1.1-0.5-3.7-1.3-4.9-1c0,0-7.8-1-8.9-1c-1.8-0.8-16.1-6.1-17.8-7v-2
	l1-1v-5.6c-1.1-1.4-3.5-2.1-5-3l-7.9-1c-1.2-0.5-3.7-1.3-5-1h-3c0,0-11.4-1.9-13.9-2c-1.5-0.7-2.9-1.7-4-3"/>
<polyline class="st24" points="194,89.4 199.9,87.4 197,95.4 194,104.3 190,112.2 187,122.1 179,139.9 176,150.8 173,160.7 
	170.1,169.6 168.1,180.5 165.1,190.4 164,200.3 160,220.1 160,237.9 131.3,232.9 133.3,229 134.3,225 136.3,221 137.3,217.1 
	139.3,212.1 140.3,208.2 142.3,203.2 144.2,199.3 146.2,194.3 149.2,190.4 150.2,185.4 152.2,180.5 155.2,175.5 156.2,171.6 
	160.2,161.7 163.1,157.7 169.1,142.9 171.1,138.9 173.1,133.9 176.1,129 178.1,125 180.1,120.1 182.1,116.1 184,111.2 186,107.2 
	188,102.3 191,98.3 192,94.4 194,89.4 "/>
<polyline class="st25" points="198,76.5 182.2,66.6 122.6,101.2 151.4,99.2 158.3,90.3 156.3,100.2 194,91.4 199.9,87.4 198,76.5 
	"/>
<polyline class="st25" points="222.7,78.6 231.7,72.7 269.2,132.2 245.4,117.3 242.5,106.4 240.5,116.3 228.6,100.4 222.7,78.6 "/>
<polyline class="st25" points="208.9,61.7 198,76.5 199.9,87.4 206.8,103.3 211.8,94.4 208.8,107.3 226.6,138 233.6,117.2 
	220.8,71.6 208.9,61.7 "/>
<polyline class="st26" points="185.1,93.4 194,91.4 188,102.3 175.1,113.2 170.2,109.2 169.2,116.1 158.3,121 169.2,97.3 
	185.1,93.4 "/>
<polyline class="st26" points="199.9,87.4 204.9,102.3 202.8,122.1 194,103.3 199.9,87.4 "/>
<polyline class="st24" points="104.9,51.6 98,48.6 101.9,58.5 103.9,68.4 112.7,104.1 114.7,116 117.6,128.9 119.6,141.8 
	122.5,154.6 123.5,166.5 124.5,179.4 126.4,192.3 127.4,205.2 128.4,217.1 128.3,229 127.3,240.8 156.1,235.9 154.1,225 
	151.1,214.1 149.2,203.2 146.2,192.3 142.3,180.4 139.3,168.5 135.4,156.7 132.5,143.8 124.6,120 121.6,108.1 117.7,96.2 
	113.8,85.3 110.8,73.4 106.9,62.5 104.9,51.6 "/>
<polyline class="st25" points="102,34.7 118.8,22.9 174.2,70.6 146.5,66.5 140.6,54.6 141.5,67.5 104.9,53.6 98,48.6 102,34.7 "/>
<polyline class="st25" points="77.2,35.7 68.3,28.7 26.6,100 51.4,84.2 54.4,68.3 56.3,81.2 69.2,62.4 77.2,35.7 "/>
<polyline class="st25" points="97.9,16 102,34.7 99,48.6 90,68.4 87.1,56.5 89,72.4 69.1,109 62.3,84.2 79.2,27.8 97.9,16 "/>
<polyline class="st26" points="113.8,56.6 104.9,53.6 109.8,68.4 121.7,83.3 125.7,77.4 127.6,87.3 137.5,93.3 128.7,62.5 
	113.8,56.6 "/>
<polyline class="st26" points="98,48.6 92,66.4 93.9,93.2 103.9,68.4 98,48.6 "/>
</svg>
