<svg id="Livello_1" data-name="Livello 1" xmlns="http://www.w3.org/2000/svg" viewBox="0 0 963.39 551.78"><defs><style>.cls-1{fill:#c7b299;}</style></defs><path class="cls-1" d="M87,611.16q35.46-68.07,76.41-133.08C201.08,418.23,244.26,358.59,306,324c2.45-1.37,5.16-2.74,7.94-2.3,4.81.77,7.08,6.34,7.88,11.15,4.29,25.8-8.1,51.75-24.75,71.92s-37.59,36.37-55,55.86A215,215,0,0,0,190.52,567.7c-1.51,9-1.88,19.66,5,25.65C202,599,211.66,597.77,220,596c13.44-2.79,26.91-6.21,39-12.72,64-34.48,62.38-135.75,123.64-174.9,10.67-6.82,23.69-11.37,36-8.31,16.49,4.09,27.11,20.88,30.17,37.6,8.28,45.2-25.47,86.42-58,118.88s-68.86,69.59-67.45,115.53c.19,6,1.14,12.22,4.59,17.13,8,11.39,25.09,10.77,38.41,6.7,47.18-14.41,81.74-54.81,107.36-97s45.38-88.28,77.1-126a251.73,251.73,0,0,1,130.56-81.67c5.24-1.32,10.79-2.46,16-1,13.86,3.82,16.86,22.34,14.21,36.46-7.39,39.46-36.47,71.2-67.28,96.94s-65,48.31-89.39,80.23a178.44,178.44,0,0,0-35.72,92.76c-.78,9.29-.68,19.22,4.17,27.18,4.19,6.88,11.5,11.42,19.19,13.84,17.34,5.45,36.66.89,52.23-8.49s28-23.18,39.39-37.31a553,553,0,0,0,68.73-108.81c8.75-18.27,16.7-37.35,30.14-52.52a92.67,92.67,0,0,1,77-30.27c3.83.37,8,1.16,10.49,4.07,2,2.37,2.59,5.66,2.93,8.77a127.8,127.8,0,0,1-21.91,86c-27.74,39.88-77.66,63-96.65,107.72-4.57,10.77-6.79,24,0,33.55,4,5.59,10.54,8.89,17.15,10.78,32.71,9.34,65.87-11.13,93.09-31.52a1489.58,1489.58,0,0,0,115.35-95.8" transform="translate(-27.1 -261.7)"/><path d="M138.78,641.44c28.45-54.56,59.23-108.21,93.43-159.39,8.68-13,17.7-25.73,27.22-38.1L250,456.09c19.46-25.17,41.11-48.71,66.26-68.3l-12.14,9.38c10.81-8.34,22.32-16.64,34.63-22.65l-14.34,6a13.89,13.89,0,0,1,2.66-.9l-15.95,2.14a7.48,7.48,0,0,1,2.75-.09l-16-2.14a6.44,6.44,0,0,1,1.91.6l-14.34-6.05.85.5-12.14-9.38a12.64,12.64,0,0,1,2.11,2.09L267,355.19a20.68,20.68,0,0,1,1.54,2.76l-6.05-14.33a30,30,0,0,1,1.69,6.6l-2.14-16a72.14,72.14,0,0,1,0,18.22l2.14-15.95a90.53,90.53,0,0,1-6.09,21.76L264.13,344a126.9,126.9,0,0,1-16.21,27.18L257.3,359c-12.09,15.4-26.79,28.41-40.85,41.94a317.61,317.61,0,0,0-45.62,54.67c-12.61,19.26-22.19,40.83-29.63,62.55A211.65,211.65,0,0,0,134,544.79c-3.81,18.68-5.92,35.8-1.66,54.57,6,26.39,27.1,47.14,52.63,54.87,18.4,5.58,37.2,2.75,55.51-1.29,14.25-3.15,27.17-8.1,40.6-13.9a97.12,97.12,0,0,0,20-11.5c8.84-6.64,17.65-13.15,25.13-21.31a236.14,236.14,0,0,0,21-26.91c7.49-11,13.55-23,19.17-35.07,12.8-27.54,23.26-56.83,42-81.13l-9.38,12.15a112.73,112.73,0,0,1,19.57-19.78l-12.14,9.38a81.26,81.26,0,0,1,16.63-10l-14.33,6a56.62,56.62,0,0,1,12.16-3.52l-15.95,2.14a42.35,42.35,0,0,1,9.68-.21l-15.95-2.14a36.57,36.57,0,0,1,8.66,2.25l-14.33-6.05a38.84,38.84,0,0,1,8.11,4.82l-12.15-9.39a47,47,0,0,1,6.73,6.79l-9.39-12.14A56.73,56.73,0,0,1,393,455.07L387,440.74a66.3,66.3,0,0,1,4.56,16.93l-2.15-15.95a84.17,84.17,0,0,1-.12,21l2.14-15.95a102.72,102.72,0,0,1-7.22,25.25l6.05-14.33c-5.51,12.67-13,24.29-21.37,35.24l9.38-12.15c-11.37,14.64-24.38,27.69-37.4,40.84a469.2,469.2,0,0,0-43.75,50.88c-12.82,17.29-23.06,37.51-28.63,58.31A150.47,150.47,0,0,0,265.15,650c-.94,7-2,13.8-1.86,20.82.37,23,7.23,46.36,23.94,63,25.15,25.06,63.31,30,96.29,19.6,20.9-6.59,41.14-16.38,58.6-29.66s33.55-27.26,47.5-44.4a457.36,457.36,0,0,0,38.92-55.16c22.38-37.73,40.66-78,67.56-112.93l-9.38,12.14a255.78,255.78,0,0,1,44.72-44.72l-12.14,9.38a258.08,258.08,0,0,1,56.23-32.9l-14.34,6.05c13.74-5.77,28.56-11.44,43.38-13.56l-16,2.15a33.61,33.61,0,0,1,5.85-.11l-16-2.14a23.22,23.22,0,0,1,4.78,1.19L669,442.7a20.31,20.31,0,0,1,4.14,2.4L661,435.72a22.85,22.85,0,0,1,3.29,3.38L654.87,427a28.07,28.07,0,0,1,2.91,5.08l-6-14.33a39.45,39.45,0,0,1,2.41,9l-2.15-16a53,53,0,0,1-.1,13.9L654,408.72a109.56,109.56,0,0,1-7.22,24.81l6-14.34a152.72,152.72,0,0,1-19.61,33L642.64,440c-25.36,32.61-60,55.33-91.21,81.75a307.44,307.44,0,0,0-50.93,55.27,177.31,177.31,0,0,0-16.17,27.17c-6.58,13.68-12.59,27.92-16.79,42.55-4.26,14.84-6.3,30.25-8,45.56a100.34,100.34,0,0,0-.74,14.18c.58,16.77,3.92,28.93,10.82,43.88a70.45,70.45,0,0,0,16.07,21.67c9.94,9.18,18.2,14.1,30.08,19.12,15.72,6.63,32.92,10.16,50.05,8.32,9.82-1,20.13-2.11,29.58-5.34a167,167,0,0,0,27.18-11.79c13.08-7.27,25.17-17.16,35.81-27.66a263,263,0,0,0,21-24c9.79-12.31,19.42-24.78,28.48-37.64a554,554,0,0,0,38.64-63.46c11-21.12,19.31-44.09,33.7-63.24l-9.38,12.14A95.57,95.57,0,0,1,788,561.32l-12.14,9.38a97.87,97.87,0,0,1,20.53-11.81l-14.33,6a98.51,98.51,0,0,1,24.14-6.48l-16,2.14a91.87,91.87,0,0,1,21-.19l-15.95-2.14a28.22,28.22,0,0,1,5,1.16l-14.33-6a15,15,0,0,1,3.25,1.87l-12.14-9.38.89.89-9.38-12.14a9.48,9.48,0,0,1,1.42,2.23L764,522.51a23.27,23.27,0,0,1,1.35,5.2l-2.14-16a128.26,128.26,0,0,1-.16,31l2.14-15.95a133.33,133.33,0,0,1-9.28,34.06l6-14.33a131.29,131.29,0,0,1-16.63,28.13l9.38-12.14c-16.48,21-38,37-57.21,55.27a250.09,250.09,0,0,0-34.38,40.43,129.86,129.86,0,0,0-22.53,65.18c-.53,8.26.94,16.93,2.79,24.86.86,3.7,2.73,7.36,4.16,10.75,1.72,4.06,3.06,8,5.48,11.62,7.84,11.73,15.27,19,27,26.9,6.89,4.68,15.24,7.67,23,10.46a59.53,59.53,0,0,0,10.1,2.55c8.61,1.48,17.64,3,26.46,2.91A136.5,136.5,0,0,0,777,807.83c41-12.42,74-40.18,107.11-66.15q45.82-36,88.75-75.41A45,45,0,0,0,985.29,647a54.35,54.35,0,0,0,0-46.23,45,45,0,0,0-12.41-19.31c-11.43-10.5-26.45-18.29-42.43-17.58A64.78,64.78,0,0,0,888,581.42q-47,43.17-97.57,82.27l12.14-9.38c-19.19,14.8-38.52,30.16-60.92,39.86l14.33-6a98.87,98.87,0,0,1-23.34,6.8l16-2.15a70.55,70.55,0,0,1-18.19.15l16,2.15a59.89,59.89,0,0,1-13.32-3.46l14.33,6a37.24,37.24,0,0,1-7.82-4.49l12.14,9.38a31.48,31.48,0,0,1-3.64-3.57l9.38,12.14a26.53,26.53,0,0,1-3.24-5.48l6,14.34a30.58,30.58,0,0,1-1.59-6.08l2.14,16a39.52,39.52,0,0,1,.07-9l-2.15,15.95a59.28,59.28,0,0,1,4-14l-6.05,14.34a115.19,115.19,0,0,1,14.68-24.55L762,724.72c18.4-23.48,43.15-40.68,63.94-61.83,8.48-8.62,15.72-18,23.09-27.63a132.25,132.25,0,0,0,13-20.44,209.35,209.35,0,0,0,15.07-37.38c3.71-13,5.47-26.88,6.6-40.3a126.65,126.65,0,0,0-.44-25.38c-.78-6.57-1.18-13.51-3-19.92-3.15-11-6.41-15.78-12.65-23.87-5.58-7.22-11.64-13.14-19.82-17.71a99.24,99.24,0,0,0-15.5-6.56,30.05,30.05,0,0,0-3.76-1c-12.71-2.39-25.44-3.61-38.27-2.14s-25.56,3-37.64,7.65-24.14,9.47-34.66,16.9-21,15.29-29.24,25.16c-8.52,10.23-16.52,20.83-23,32.5-4.2,7.63-7.88,15.54-11.59,23.42a571.18,571.18,0,0,1-64.29,105.83l9.38-12.14c-11.25,14.51-23,29-37.49,40.36l12.14-9.39a94.4,94.4,0,0,1-19.44,11.6l14.34-6.05a76.22,76.22,0,0,1-18.9,5.22l16-2.14a62.42,62.42,0,0,1-15.21,0l16,2.15a54.1,54.1,0,0,1-11.72-3.13l14.33,6a42.63,42.63,0,0,1-8.84-5.07l12.15,9.38a34.26,34.26,0,0,1-5.33-5.37l9.39,12.14a31.66,31.66,0,0,1-3.3-5.8l6.05,14.33a40,40,0,0,1-2.15-8l2.15,16c-1.05-8-.26-16.08.77-24.05L578,704a183.32,183.32,0,0,1,12.49-45.68l-6.05,14.34A182.59,182.59,0,0,1,607.56,633l-9.38,12.14c28-35.82,67.47-59.38,100.7-89.71,18.87-17.22,36.22-37.24,49.27-59.22a193.18,193.18,0,0,0,18.41-42,106.43,106.43,0,0,0,3.19-13.65c1.42-8.64,3.3-18.65,2.49-27.72-.78-8.57-1.42-17.89-4.42-26.16-4.87-13.45-10.62-25.29-21.28-35.27-9.67-9.05-21.63-16.45-34.68-19.41-15.86-3.6-30.79-2.53-46.47,1.35-25.34,6.27-50.22,16.6-73.09,29.1S548,391.06,529,408.81c-19.62,18.3-36.3,39.95-51,62.31-27.89,42.42-47.33,90-78.45,130.33l9.38-12.14c-11.59,14.88-24.55,28.65-39.48,40.22l12.15-9.39a154.07,154.07,0,0,1-33.29,19.58l14.33-6.05c-7.24,3-14.66,5.56-22.43,6.66l15.95-2.15a49.68,49.68,0,0,1-11.56.15l15.95,2.14a33.64,33.64,0,0,1-7.45-1.88l14.34,6a25.08,25.08,0,0,1-5.5-3.22L374,650.8a25.28,25.28,0,0,1-3-3.08l9.38,12.14a26,26,0,0,1-2.67-4.48l6.05,14.33a34.94,34.94,0,0,1-2.14-8l2.14,15.95a79.68,79.68,0,0,1,.31-19.7l-2.14,15.95a101.36,101.36,0,0,1,6.8-24.34l-6.05,14.33c5.31-12.46,12.62-23.83,20.87-34.53l-9.38,12.15c10.77-13.81,22.94-26.41,35.3-38.79a484.58,484.58,0,0,0,44.73-51.45,178.93,178.93,0,0,0,14.36-22.06c3.18-5.87,5.74-12,8.33-18.1a177.87,177.87,0,0,0,7.51-19.63A94.24,94.24,0,0,0,506.94,480c1.44-9.08,3-18.43,3.1-27.68.07-8.9-1.51-17.79-2.78-26.56a68.78,68.78,0,0,0-3-12.9c-6-17.32-13.62-31.37-26.22-44.82-5.63-6-12.5-11.05-19.39-15.5a39.35,39.35,0,0,0-5.22-2.75c-6.06-2.75-12.37-5.93-18.89-7.55-18.24-4.54-38.83-4.28-56.53,2.45-8.18,3.11-16.89,6.51-24.48,11.16-7,4.31-13.55,9.75-19.95,14.78-13.94,10.95-25,25.45-34.83,40.07-7.39,11-13.42,22.91-19,34.92-12.67,27.27-23,56.31-41.5,80.36l9.38-12.14a110.24,110.24,0,0,1-18.54,18.85l12.14-9.38a94,94,0,0,1-20.78,12.1l14.34-6a160.88,160.88,0,0,1-35.89,9.74l16-2.15a41.3,41.3,0,0,1-10.36.26l16,2.14a25.53,25.53,0,0,1-4.78-1.27l14.34,6a21.72,21.72,0,0,1-3.23-1.81l12.14,9.38a19.49,19.49,0,0,1-3.32-3.35L245,560.5a25.34,25.34,0,0,1-1.68-3l6.05,14.33a27,27,0,0,1-1.55-5.58l2.14,16a47.15,47.15,0,0,1,.21-12.16L248,586a207.67,207.67,0,0,1,14.2-49.86l-6,14.34a220.84,220.84,0,0,1,27.71-47.61l-9.38,12.15c11.86-15.31,26-28.42,39.95-41.74,17.23-16.42,33.76-34.2,46.09-54.68a165.08,165.08,0,0,0,16.85-38.49c2.61-8.95,3.57-18.48,4.65-27.65a73.6,73.6,0,0,0,.43-14c-.64-8.61-1.2-17.52-3.89-25.76-5.66-17.41-16-32.59-32.05-42-9.22-5.4-21.81-9.31-32.61-9.05-6.92.16-14.81.82-21.36,3.14a133,133,0,0,0-25.22,12.26c-70.55,43.28-119.28,111.86-162.19,181q-37.29,60.06-70,122.8c-7.41,14.23-10.38,30.48-6,46.24C33,641,43.71,656.11,56.69,663c13.92,7.36,30.79,11,46.23,6,14.47-4.68,28.62-13.68,35.86-27.57Z" transform="translate(-27.1 -261.7)"/></svg>