<svg id="Livello_1" data-name="Livello 1" xmlns="http://www.w3.org/2000/svg" viewBox="0 0 1000 236.71"><path id="path2987" d="M194,247.32c-5-.33-13.34-.83-18.6-1.11-18.74-1-30.32-1.67-31.89-1.94-.87-.15-4.34-.46-7.7-.69s-6.94-.59-8-.81-3.41-.5-5.31-.64a94.77,94.77,0,0,1-16.58-2.51,10.42,10.42,0,0,0-3.74-.53c-.29.17-.37.06-.17-.24s-1.52-.62-5.47-.77a45.14,45.14,0,0,1-6.63-.54,3.23,3.23,0,0,1-1.09-2.18c-.34-2.12-.9-2.44-6-3.49a59.75,59.75,0,0,1-6.6-1.81c-1.74-.62-3.8-1.25-4.57-1.42-2.19-.48-2.15-1.66.13-3.89s4.3-3.33,8.15-4.22c2.5-.57,5.92-2.95,6-4.13,0-.4-2.28-1.17-5.54-1.87-.87-.19-3.74-.53-6.37-.76a52,52,0,0,1-7.76-1.27,45.37,45.37,0,0,0-9.44-1c-7-.18-10-1-10.45-2.89-.15-.64-1.46-1.65-3.32-2.58-1.7-.83-3-1.71-2.8-1.95s0-.33-.41-.21c-1.73.55-4.3-.67-5.21-2.47-1-2-.52-3.78,1-3.75.43,0,.79-.16.8-.38s1.63-.42,3.6-.46,3.68-.29,3.78-.56.64-.5,1.18-.49a1.67,1.67,0,0,0,1.33-.5,1.21,1.21,0,0,1,.88-.51c.29,0,.41.2.26.43s.43.43,1.29.44,1.56-.27,1.57-.68.26-.55.54-.36.53.12.54-.16c0-.82-1.36-1.16-3.81-.92a15.6,15.6,0,0,1-4.67-.45c-1.31-.37-2.74-.75-3.17-.84a11.56,11.56,0,0,1-1.73-.6,3.61,3.61,0,0,0-2-.18c-1.36.32-1.8-.41-.75-1.24.44-.35.81-.43.8-.17s.18.22.41-.06c.68-.89,2.83-1.85,2.81-1.27a.55.55,0,0,0,.55.55c.31,0,.45-.17.32-.41-.36-.6,3.92-.59,5,0a1.19,1.19,0,0,0,1.5-.09c.72-.68,2.86-.9,2.44-.25s1.22.5,1.9-.28c.49-.56,1-.62,2-.22,1.68.69,2.26.69,1.26,0-.59-.41-.32-.52,1.07-.45a47.73,47.73,0,0,0,5.87-.41c2.2-.28,4.64-.52,5.43-.54,2.32-.06,1.7-1.85-1.41-4-1.77-1.24-2.61-2.17-2.41-2.66s.53-.58.9-.26a1.93,1.93,0,0,0,1.67.09,10.8,10.8,0,0,1,3.06-.38A2.92,2.92,0,0,0,71.27,178c1.2-1.74,1.38-2.73.71-4.05-.29-.58-.31-.91,0-.73s.82-.57,1.23-1.64a6.4,6.4,0,0,1,1.36-2.32c.32-.21-.36-.41-1.53-.45-1.57-.05-1.92-.2-1.32-.56s.39-.51-.92-.55a7.18,7.18,0,0,1-2.65-.56c-.5-.28-3.11-1.45-5.8-2.6-5.39-2.3-8.52-2.88-20-3.66-8.78-.6-9.77-.73-11.15-1.51s-8.64-2.07-13.24-2.34a16.74,16.74,0,0,1-6.09-1.38,21.2,21.2,0,0,0-5-1.59c-2.9-.47-6.61-1.89-6.59-2.52,0-.22,1.4-.82,3.1-1.33,2.6-.78,4.81-.89,14.25-.68,7.54.17,11.84,0,13.22-.38,2-.61,3.9-.47,8.76.65a61,61,0,0,0,7.93.76c3.1.13,6.1.5,6.65.82a5,5,0,0,0,3,.22,9.65,9.65,0,0,1,2.42-.23c1,.25,17.15.5,18.95.29,3.06-.36,6.9-.58,12.19-.7,2.74-.06,5.26-.37,5.58-.67.58-.55-.4-.86-2.15-.67a.56.56,0,0,1-.65-.55c0-.33-.33-.49-.75-.34a1.4,1.4,0,0,1-1.4-.53c-.51-.65-.73-.68-1.1-.13s-.45.55-.44,0-.36-.59-1-.4a1,1,0,0,1-1.34-.66c-.19-.52-.08-1,.24-1.12.82-.25,2.19-1.62,2.2-2.21,0-.81-2.06-2.73-2.61-2.41-.28.16-.37-.05-.19-.48.24-.59,0-.71-.88-.5s-1.14.11-.85-.57c.52-1.27-.6-1.71-1.51-.6-.5.62-.68.68-.5.18.32-.89-2.13-2.37-3-1.85-.31.19-.37.06-.15-.28s.14-.61-.17-.62-.57.35-.58.78c0,1.13-1.08,1-1.1-.16,0-.79-.08-.77-.47.12a2.62,2.62,0,0,0-.3,1.35c.09.16-.31.32-.87.34-1.25.07-1.31-.36-.17-1.14.66-.46.19-.57-2.16-.5-1.77.05-2.87-.11-2.68-.4s-.16-.38-.75-.24-1.07,0-1.06-.38-.26-.46-.61-.25-.51.07-.2-.64a9.88,9.88,0,0,0,.57-1.73c.24-1.24,1.61-1.56,3.26-.78.87.41,1.28.75.91.77-1.31.05-.67,1.09.69,1.12,1,0,1.31-.18,1.11-.75a1,1,0,0,1,.26-1.11c.35-.2.31-.63-.12-1.18-.57-.73-.54-.82.17-.53a1.89,1.89,0,0,0,1.6-.18c.6-.4.56-.45-.18-.23s-.89,0-.56-1.16a4,4,0,0,1,.83-1.72c.78-.49,0-2.59-.89-2.29-.56.2-.74,0-.6-.71s-.09-1-.87-.91c-.58,0-.76,0-.39-.19s.56-.48.41-.74.22-.78.82-1.18.94-.88.75-1.08.12-.35.68-.34c.83,0,.88-.07.25-.5s-.91-.3-1.18.1-.54.45-.73.26c-.33-.35.72-2.58,1.44-3s1.32-2.81.75-2.48c-.27.16-.76-.17-1.09-.72-.53-.9-.44-1,.85-.88.91.09,1.4-.11,1.32-.53s.07-.64.29-.6c1.09.21,1.73-.09,1.75-.81,0-.44.27-.79.58-.79s.43-.2.28-.48,0-.6.38-.74.31-.28-.25-.32-.93-.25-.92-.47-.83-.39-1.85-.37-1.73-.17-1.56-.43-.2-.49-.82-.5-1-.27-.78-.55.06-.53-.28-.54-.47-.39-.26-.88c.3-.73.22-.76-.47-.22s-.83.51-.81-.15a1.34,1.34,0,0,1,1.09-1,1.41,1.41,0,0,0,1.1-1.37c0-.95-.2-1.08-1.44-.85s-1.3.17-.54-.29.85-.65-.18-1.9A3.7,3.7,0,0,0,72.49,98c-1.6,0-.16-.57,2-.73,1.29-.09,2.08,0,1.9.33s-.08.49.21.5a1,1,0,0,0,.81-.42,3.13,3.13,0,0,1,2-.29,4.54,4.54,0,0,0,2.38-.32c.39-.29.76-.25,1,.1s.66.4,1.34.06a5.18,5.18,0,0,1,2.24-.43,55.54,55.54,0,0,0,8.88-.56,61.07,61.07,0,0,1,8-.81c.93,0,.9-2.51,0-3.25a3.18,3.18,0,0,1-.86-2.09c0-.91-.33-1.38-.74-1.24s-.54-.06-.37-.48-.25-.85-1.29-1.1c-1.74-.43-3-1.63-2.45-2.4.18-.28-.15-.39-.75-.25-.76.18-1.07,0-1-.66a1.38,1.38,0,0,0-1-1.21c-1.18-.34-1.36-1-.41-1.55.39-.23.47-.13.22.25s-.21.59,0,.56c1.14-.17,1.77.16,1.75.93,0,1.1,1.26.71,1.52-.46.11-.49,0-.87-.25-.83-1.47.22-2.3-.22-2.27-1.2,0-.61.26-.94.55-.76s.54-.15.55-.75.36-1.09.77-1.08a1.28,1.28,0,0,0,1.08-.79c.18-.45.11-.69-.16-.53s-.59,0-.7-.39-.16-.26-.1.25-.1.93-.37.93a.58.58,0,0,1-.46-.65c0-.35-.34-.18-.76.38-.58.74-.62,1.11-.18,1.4s.14.35-.5.28c-1-.09-1.62-1.5-.68-1.48.2,0,.54-.7.73-1.58.29-1.26.64-1.58,1.71-1.55.74,0,1.35-.21,1.35-.5s.5-.52,1.08-.5c1.13,0,1.41.81.49,1.34s-.08,1.2,1.59,1.1c2.18-.13,2.72-.71.76-.83-1.52-.09-1.52-.1-.21-.44l1.34-.34-1.18-.68c-1.36-.79-1.54-1.72-.32-1.69.45,0,.67.26.48.55s-.09.53.22.53.58-.46.59-1,.39-1.06.93-1c.78,0,.77-.07-.11-.76s-1.07-.65-1.3-.1-.67.53-1.27.29c-.93-.35-.93-.43-.06-1.26a3,3,0,0,1,1.68-.85c.69,0,1-.62.87-1.71,0-.22.32-.39.78-.38s.69-.21.53-.48c-.38-.66.64-1.25,1.35-.79.38.25.35.59-.09,1.1s-.47.73,0,.75c.62,0,.81-.63.67-2.32-.11-1.33.91-1.88,3.36-1.83,1.17,0,1.94-.2,1.87-.55s1-.57,3.08-.53A10.5,10.5,0,0,0,119,60.7a3.31,3.31,0,0,1,2.22-.16,2,2,0,0,0,2.26-.54c.39-.49.5-.72.23-.5s-1.13-.65-1.93-1.91-1.45-2.09-1.46-1.83-.48,0-1-.5a3.09,3.09,0,0,1-1-1.58c0-.32.27-.15.55.37a1.89,1.89,0,0,0,1.4,1c.65,0,.72-.13.29-.59a1.38,1.38,0,0,1-.26-1.38c.26-.63.4-.64.75,0s.44.44.45-.34c0-1.33-1.19-3.07-1.78-2.57-.24.21-.26.09,0-.28a.67.67,0,0,1,.89-.34c.27.17.49.07.5-.22a1.12,1.12,0,0,0-.49-.86c-.67-.44,0-2,1.22-2.81.55-.37.85-.93.67-1.24s.11-.42.92-.15c1,.34,1.14.29.61-.3-.79-.86-.81-2.47,0-2.71.53-.16.67-1.08.51-3.21a1.11,1.11,0,0,0-1.18-1c-.64,0-.86-.2-.53-.42.84-.54,1.38-2.13.85-2.48-.25-.17-.57,0-.71.36s-.4.53-.56.38-.09-.63.18-1c.42-.64.66-.59,1.57.27s1.07,1,1.13,0c0-.57.18-.72.32-.35a1.05,1.05,0,0,0,.8.69c.3,0,.42-.35.26-.79s-.11-.75.09-.71a6,6,0,0,0,1.91-.49,3.22,3.22,0,0,1,2-.27c.26.17.48.05.49-.28s.24-.45.51-.28a.58.58,0,0,0,.81-.18,1.62,1.62,0,0,1,1.25-.47c1.46,0,2.38-.22,4.83-1.42a11.28,11.28,0,0,1,3-1.11,1.06,1.06,0,0,0,1-.62c.25-.69,5.22-.9,5.2-.22,0,.21.66.22,1.47,0a19.27,19.27,0,0,1,7.42.37c1.27.32,1.66.16,2.27-.9a2.46,2.46,0,0,0,.42-1.8c-.43-.74-4-1.33-9.88-1.64a22.76,22.76,0,0,1-6.21-.93,4.06,4.06,0,0,0-1.58-.61c-.23,0-1.29,0-2.35,0-1.46-.09-2-.38-2.19-1.19s0-1.06,1.17-1.05c1.35,0,1.37,0,.41-.78s-.49-.77,3.87-.55c2.68.14,4.87.4,4.87.58s.65.26,1.46.19c3.61-.33,9.12-.64,11.15-.64,1.23,0,2.12-.18,2-.42s.18-.45.71-.48a8.89,8.89,0,0,0,3.53-.59,6.38,6.38,0,0,0,2-2.38c1.08-2,2.82-3.14,3.15-2.06.13.41.42.4,1,0s.93-.44,1.15-.1c.37.56,8.95.78,9.52.25.18-.18.6-.08.94.22.65.57,3.86.56,4.85,0a4.41,4.41,0,0,1,2.41.21,96.8,96.8,0,0,0,11.63,1.07c5.39.29,12.92.72,16.72,1,20.48,1.31,26.73,1.6,39.47,1.87,10,.21,14,.47,14,.9s.18.44.7,0c.71-.56,3.92-.63,13.15-.28,2.77.11,5.29.18,5.58.16l6.4-.39a42.25,42.25,0,0,1,6.74-.06c.48.17,1,.1,1.17-.14s2.28-.45,4.71-.45a60.68,60.68,0,0,0,7.48-.47c1.68-.25,6.12-.48,9.86-.52s8.49-.11,10.54-.17a14.32,14.32,0,0,1,4.71.43c.54.3.85.32.7.05s1.95-.41,4.86-.3a30.34,30.34,0,0,0,7-.42c1.42-.44,2-.43,2.25,0s.39.44.4,0,1.51-.59,3.88-.61c5.28,0,21.35.33,24.61.55,1.46.09,4.81.08,7.45,0,6.36-.27,16.24-.18,16.23.15s2.55.29,6.82-.33a18.29,18.29,0,0,1,5.33-.15c1.84.54,5.41.76,5.42.34,0-.18.67-.3,1.47-.28,14.88.39,43,.11,43.91-.44.23-.14.41,0,.41.22s.7.39,1.58.28a5.9,5.9,0,0,1,2.52.23c1.18.53,3.3.74,3.05.31-.11-.18,3.92-.18,8.95,0s9.15.39,9.15.44a32.72,32.72,0,0,0,3.32.28c1.82.1,3.32,0,3.33-.15s.84-.14,1.86.12,2,.3,2.1.1,2.4-.3,5.05-.21c2.88.09,4.83-.07,4.84-.38s.18-.29.4.05c.47.73,4.49.8,5,.09.27-.35.4-.35.4,0s.89.52,2,.52a10.36,10.36,0,0,1,3.22.48,2.86,2.86,0,0,0,2.21,0c1-.48,3.19-.63,14.68-1,2.93-.09,7.72-.31,10.65-.5s9.53-.27,14.65-.18,10.27,0,11.44-.17,7.65-.25,14.38-.14c15.81.28,27.7.15,32.44-.34l9.91-1c3.38-.35,9-.85,12.54-1.09s7.48-.55,8.8-.66a43.75,43.75,0,0,1,12.28.59c2.24.47,9.06.87,19,1.12,8.55.21,15.7.49,15.9.61s9.22.62,20,1.08,21.59,1,23.92,1.21c13.12,1.11,23.08,1.56,44.93,2.06,3.07.07,6.42.22,7.44.34,2.21.25,12.44,1,22,1.56,20.77,1.25,28.52,1.65,42.52,2.21,8.49.34,16.26.77,17.28,1s3.77.47,6.1.64c4.33.31,9.27,1,9.91,1.42a23.94,23.94,0,0,0,4,.6c2,.2,5.06.63,6.81,1s3.89.7,4.77.84,3.53.81,5.9,1.49A38.11,38.11,0,0,0,931.55,31c.61,0,1.11.23,1.1.47s.29.46.65.47a99.06,99.06,0,0,1,13.53,1.63,6.62,6.62,0,0,1,2.79,2.21c1.17,1.75,4.36,3.53,7.3,4.1A79.5,79.5,0,0,0,968.3,41.2c.75-.06,1.36.14,1.35.46s.15.41.35.22.86.13,1.45.72a29.82,29.82,0,0,0,4.63,3,15.14,15.14,0,0,0,7.32,2.27c4,.33,4.69.8,4.24,2.85-.28,1.31-2.42,2.34-4.76,2.28a2.06,2.06,0,0,0-1.56.49,3.24,3.24,0,0,1-2.14.48c-2.8-.07-7.21.9-7.21,1.59,0,1.13,4,2.62,8,2.95,2.14.18,7.13.55,11.07.82,8,.55,8.8.72,9.2,1.83.58,1.64-6.87,7-12.93,9.27-2,.74-3,1.5-3.64,2.77-1.17,2.18-.66,3.24,2.49,5.21,1.23.76,2.22,1.75,2.21,2.2a2.76,2.76,0,0,0,.76,1.63c1.21,1.28.88,2.56-.92,3.56a28.63,28.63,0,0,0-4,3c-2,1.75-2.76,2.12-5,2.22-1.92.1-2.85.44-3.53,1.29-.51.63-.81,1.34-.68,1.57s0,.41-.3.41-.83.51-1.19,1.16-.47,1-.25.82c.57-.5,2,1.09,1.57,1.74-.2.3.07.41.63.27s0,.21-1.19.76a10.81,10.81,0,0,1-3.85,1,10.63,10.63,0,0,0-3.07.45c-1,.36-1.38.31-1.38-.16s-.25-.25-.55.24c-1.05,1.7-.09,3.58,2.54,5a10.33,10.33,0,0,1,3.28,2.62,6,6,0,0,0,2.87,2c4.26,1.4,4.86,4.17,1.11,5.15-2.34.6-3.49,2.29-2.83,4.16.34,1,.32,1.41-.06,1.4-1,0-2,1.28-1.93,2.59s0,1.31-4.53,2.23a8.79,8.79,0,0,0-3,1.63,20.05,20.05,0,0,1-3.11,2.08c-.82.39-1.49,1.07-1.5,1.49,0,1-2,2-4.26,2.14-2.52.2-3.55.83-3.7,2.24-.11,1.17,1.93,3.72,3,3.75.66,0,3.61,3.15,3.59,3.81,0,.91-2,1.49-5.68,1.69a61.53,61.53,0,0,0-6.36.71c-2.43.45-11.13,1.7-13.11,1.88-.83.08-1.24,2-.43,2,.24,0,.19.45-.12,1s-.39,1.15-.19,1.36c.66.7.25,7.46-.51,8.21a6.26,6.26,0,0,1-3.16.81c-2.18.09-3.63.89-3.16,1.73.09.16-.17.6-.59,1s-.76.49-.75.28-.28-.12-.63.21a.83.83,0,0,1-1.33,0c-.5-.44-1.13-.43-2.3,0-2.72,1-1.88,2.67,1.77,3.42,4.08.84,5,1.23,4.35,1.83a62,62,0,0,1-8.42.27c-9.47,0-10.56.37-11.43,4.25a15.4,15.4,0,0,1-1.83,4.25,13.47,13.47,0,0,0-2.22,5.49c0,.29-.84.58-1.83.65-1.23.09-1.88.45-2.08,1.14s-.5.88-.76.71-.47-.06-.48.24-1.11,1.15-2.45,1.89c-3.81,2.1-4.38,3.88-1.6,5,1.3.53,1.35.94.41,3.16-.68,1.64,1,2.74,6.74,4.3,5.52,1.52,7.06,2.52,5.44,3.54-1,.63-8.21-.18-19.55-2.19-5.13-.91-7.3-.55-8.49,1.41s-2.42,2.51-6,2.7c-2.94.16-5.7,1.54-5.73,2.87,0,.81,2.32,1.64,5,1.78,2,.1,4.43,1.57,3.24,2a5.18,5.18,0,0,0-1.49,1c-.45.42-.81.63-.8.45,0-.64-3.26,1.29-3.93,2.32-.82,1.28-3.62,3-4.72,2.91-2.74-.24-6.39,0-6.4.46,0,.83,2.72,3.26,3.3,2.93.29-.17.36-.05.15.26a.66.66,0,0,0,.17.92.63.63,0,0,1,.21.86,1.32,1.32,0,0,0,.31,1.33c1,1.27,0,1.75-4.09,1.93a51.59,51.59,0,0,0-6.13.63c-1.32.25-5.77.89-9.88,1.42a85,85,0,0,0-10.47,1.9,22.89,22.89,0,0,1-6.28.85,32.54,32.54,0,0,0-7.17.9c-3.66.93-4.92.94-22.49.23-10.24-.42-20.64-.92-23.13-1.11-6.47-.5-14.42-1.28-15.51-1.52-.52-.11-6.74-.51-13.83-.89-10.14-.55-14.43-.56-20.09,0-4,.36-11.24.69-16.18.75s-9.85.17-10.92.28c-3.69.35-16.36.87-23.79,1-4.1.06-11.53.23-16.51.38s-15,.26-22.36.26-14,0-14.91.12-6.89.15-13.36.17-12.46.11-13.31.19c-1.64.16-5.67.33-19.93.86-11.19.42-19.6,1-26.54,1.75-3,.34-6.4.59-7.52.56a14.64,14.64,0,0,0-3.59.41,27.8,27.8,0,0,1-4.92.65c-1.85.11-5.69.61-8.54,1.12s-6.62,1-8.38,1.12-5,.39-7.2.62-5.44.5-7.2.6-5.81.49-9,.86-7.74.77-10.14.88-5.72.35-7.4.52-6,.3-9.59.27-8.33.11-10.53.32c-4.34.42-13.59.68-20.77.6a53.53,53.53,0,0,0-6.93.33c-1.32.22-10.43.31-20.23.22s-18.35-.08-19,0-5.78.25-11.45.31-11.5.14-13,.19-6.85.14-12,.19-11.35.19-13.84.32a43.56,43.56,0,0,1-5.06.08c-.29-.09-4,0-8.26.22s-10.12.45-13.05.54-6.17.23-7.2.32-5.1.25-9.05.33-7.31.23-7.46.32-3.27.24-6.93.33-7.14.26-7.73.36c-1.08.19-38.77-.08-55.08-.39-4.83-.09-12.84-.45-17.81-.78ZM86,178.72c.27,0,0-.51-.47-1.13-.82-1-1.49-1.1-4.67-1.05-2,0-3.81.32-3.92.63-.29.81,3.37,1.81,6.18,1.68ZM99.29,150c0-.13-.23-.24-.52-.25a.55.55,0,0,0-.55.55c0,.31.23.42.53.25S99.29,150.12,99.29,150ZM72.57,133.43c0-.11-.37-.36-.81-.55s-.69-.11-.51.2c.3.51,1.31.78,1.32.35Zm6.35-16.8c-.52-.54-.58-.48-.31.29.19.53.48.83.65.67s0-.59-.34-1Zm4.41-6.28c-.51-.53-.57-.47-.3.29.19.53.48.83.64.68s0-.6-.34-1Zm-4-3.15c-.18-.3-.42-.54-.55-.55s-.24.24-.25.53a.55.55,0,0,0,.55.55C79.42,107.73,79.53,107.5,79.36,107.2Zm21.75-24.83a1.08,1.08,0,0,0-1,0c-.18.17.13.31.69.3s.75-.14.33-.32ZM101.05,81a8,8,0,0,1-2-3.41c0-.19.36,0,.8.35,1,.91,1.66.3.81-.78s-2.13-.25-2.16,1.1c0,.42-.21.64-.44.49s-.46.19-.52.76a.84.84,0,0,0,.93,1.05c.57,0,1,.27,1,.56s.52.54,1.18.54c1,0,1.09-.08.42-.66Zm-3.16-1.22c0-.13.25-.38.54-.55s.54-.06.53.25a.55.55,0,0,1-.55.55C98.12,80,97.88,79.89,97.89,79.76Zm9.69-10.83c0-.66,0-.9-.19-.53s-.49.52-.75.35-.34.06-.17.52C106.9,70.49,107.47,70.31,107.58,68.93Zm-2.73-.5c.6-.92,0-1.13-.8-.27-.43.5-.48.8-.13.81a1.25,1.25,0,0,0,.93-.54Zm17.73-17.82c0-.12-.35-.36-.78-.54s-.8-.09-.81.19.35.52.79.53.8-.07.8-.18ZM32.8,190.14a1.16,1.16,0,0,1,.55-.81c.3-.18.53.06.52.51s-.26.82-.55.82A.52.52,0,0,1,32.8,190.14ZM55.6,147a1.37,1.37,0,0,1,1.27-.3c.39.14.15.38-.58.55C55.4,147.42,55.19,147.34,55.6,147Zm7.57.28c-.55-.37-.58-.55-.12-.59a4,4,0,0,0,2.11-.57.72.72,0,0,1,1,.24c.23.4.15.49-.23.24s-.62-.06-.63.44C65.28,147.93,64.34,148,63.17,147.24ZM60.46,146c.41-.39.8-.41,1.14-.05s.12.55-.63.59-1-.09-.51-.54ZM74,138.17c0-.46.26-.68.55-.49a1.13,1.13,0,0,1,.51.85.52.52,0,0,1-.55.48C74.26,139,74,138.63,74,138.17Zm.82-8.88c.91-1.64,1-1.69.88-.43a1.65,1.65,0,0,1-.82,1.35c-.56.2-.57,0-.06-.92Zm3.67-19.43c-.45-.29-.19-.53.79-.75,1.78-.4,2.12-.15.83.61a1.74,1.74,0,0,1-1.62.14ZM90.19,74.15a1.06,1.06,0,0,1,1,0c.42.18.29.3-.33.31s-.87-.12-.69-.3Zm1.65-2.08a1.06,1.06,0,0,1,1,0c.42.18.29.3-.33.31S91.66,72.24,91.84,72.07Zm9.65-6.58c0-.56.12-.87.29-.69a1.06,1.06,0,0,1,0,1c-.18.42-.3.29-.31-.33ZM120.81,36.4c-.47-.32-.53-.53-.15-.53a1.24,1.24,0,0,1,1,.55c.39.67.21.67-.8,0Z" transform="translate(-0.25 -11.85)"/></svg>