<svg id="Livello_1" data-name="Livello 1" xmlns="http://www.w3.org/2000/svg" viewBox="0 0 405.09 130.21"><path d="M142.16,141.35c-1.18,1.52-1.2,1.83-.08,2,2.63.34,5.27.6,7.91.89.74-.82,2.23-.13,3.13-1.57l-10-1.28A2.24,2.24,0,0,0,142.16,141.35Z" transform="translate(-9.13 -14.47)"/><path d="M162.78,20.53l.56.22a3.75,3.75,0,0,0,1.78.31,4.5,4.5,0,0,0,1.2-.3,4.09,4.09,0,0,0,2-1.53s.09-.13.12-.4v0c1.23,1.14,2.84,1.13,4.43,1.17a16.65,16.65,0,0,1,3-.41,3.48,3.48,0,0,0,2.47-.19l0-.09c.08-.28.18-.55.28-.82h0c3.18,0,6.37-.35,9.55.13,2.79.43,5.16-.66,7.46-2-.42-1-1.11-.82-1.75-.69a2.46,2.46,0,0,1-2.66-.92,73.61,73.61,0,0,0-15.35-.14,4.1,4.1,0,0,0-3.21.62c-3.51-.43-7,.16-10.39.71C161.17,17.76,161,19.28,162.78,20.53Z" transform="translate(-9.13 -14.47)"/><path d="M50.09,70.47c.18-.27-.06-.49-.48-.52-.62,0-1.23-.12-1.85-.18.26.73,1,.81,1.54,1.07C49.57,70.72,49.94,70.67,50.09,70.47Z" transform="translate(-9.13 -14.47)"/><path d="M413.6,130.82c-2.75-1.37-5.75-1.77-8.73-2.26-2-.33-4.06-.25-5.69-1.72-2.63-.39-5.25-.87-7.89-1.13-2.13-.22-4.3-.62-6.39.27A34.74,34.74,0,0,1,372.35,127a2.58,2.58,0,0,0-1,.27,15.15,15.15,0,0,0-5-.25c-.06.24-.12.48-.17.72l-.05,0h0c-2.72-.11-5.44.59-8.15-.11h0c-1.45-1.24-3.52-.8-5-1.86l-.63.19-.09.06L352,126h0l-1.46-1.18c2-2.13,4.67-2.63,7.37-3.1l0-.08a3.82,3.82,0,0,0,3.85.47l2.89.26a3.85,3.85,0,0,0,.36-.77,6.59,6.59,0,0,0,3.93.13,1,1,0,0,0,.57-.69,1.08,1.08,0,0,0-.24-.89,20.66,20.66,0,0,0-2.51-1.62,2.19,2.19,0,0,1-1.1-2.08l6.25-1.2h0l5,.46.42,0,.41.1c1.39-.76,3,.62,4.36-.44h0c.43-.22,1-.2,1.19-.83.34-.37.87-.69,1-1.11.22-1-.64-1-1.23-1-1.5-.19-3-.3-4.51-.45l-5.21.45c-.41.08-.55.32-.42.75v0l-4.62-.25a5.77,5.77,0,0,1-3.34.26,3.94,3.94,0,0,0-3.23.59h0c-2.81,0-5.39-.4-6.72-3.44-.14-.32-.74-.45-1.29-.59a3.26,3.26,0,0,0-.37-1.23,6.82,6.82,0,0,0-3.83-2.17c-.8-.17-1.86-.3-2.28-.84-1.43-1.87-3.24-1.91-5.32-1.81a42,42,0,0,1-5.45-.43h0c-1-.61-2.35-1-2.92-1.88-1.08-1.69-2.53-1.93-4.26-2.13-3.35-.38-6.72-.68-9.89-2-3.35-1.8-7.05-1.5-10.66-1.73a2.68,2.68,0,0,0-.3.12c0-.49.29-.83,1.07-.71a8.32,8.32,0,0,0,6.68-1.75,5,5,0,0,1,1.94-.47c.45-.18.92-.3,1.36-.48a2.42,2.42,0,0,0,.76.8l.46.08.47,0c.29-.18.58-.36.87-.52a2.84,2.84,0,0,0,2.13-.37c2.22-2.23,4.66-1.33,7.06-.44,1.51.57,2.28,2.61,4.3,2.22h0c.82-.68,1.73-.24,2.6-.21a13.82,13.82,0,0,1,7.85-.43h1.71c.7-.22,1.43-.29,2.14-.5,2.31-.41,4.24-1.9,6.6-2.31,1-.18,1.76-.85,1.54-1.91l5.57-1.53.05.09.59.36c2.3-.19,4.6-.36,6.89-.6a1.78,1.78,0,0,0,1.29-2.64c-.24-.52-1-.82-1.47-1.22a10.08,10.08,0,0,0-4.16.3,3.31,3.31,0,0,1-.94.11l-2.19.6h0L354.79,83c.12-2.93-2.36-2.79-4.17-3.45a2.3,2.3,0,0,1-.91-.28,11.54,11.54,0,0,0-4.19-1.2,1.08,1.08,0,0,0-1,.67c-.15,0-.31-.08-.47-.12,1.1-1.33,2.23-2.65-.14-4l-1.71-.48c-1.58-1.45-3.57-1.32-5.5-1.43a2.88,2.88,0,0,0-1.49.7,7.53,7.53,0,0,0-3.17-.27,2.43,2.43,0,0,0-2.24.53c-1-.41-1.95-.83-1.78-2.18l-.05,0s-.14-.34-.15-.34l-.32.17-.12-.34a.67.67,0,0,0-.31-.64h0a7.74,7.74,0,0,0-9-1.76,2.63,2.63,0,0,0-.33-.34c0-1.39,1.11-.35,1.58-.74,1.91-.45,3.95.07,5.87-.39a10.75,10.75,0,0,1,2.33.85,10,10,0,0,0,2.89.49L332,68l.26.07a.87.87,0,0,0,1.17-.11,3.89,3.89,0,0,1,.74.89,9.5,9.5,0,0,0,3.58.65c2.76-.54,5.43.68,8.18.37a31,31,0,0,0,3.3-.77q.65,0,1.29-.15a4.11,4.11,0,0,0,1.57-1l.21-.39,0,0c2.48,1.47,5,2.59,8,1.67h.39l.37.13c2.08-.89,4.25.93,6.31-.22,2-1,4-.25,6-.31,1.12,0,2.38.36,3.29-1.12-1.71-1-3.58-.82-5.32-1.09-2.84-.44-5.7-.75-8.55-1.11l-10.24-.27L349.48,65a4.33,4.33,0,0,0-3.4.31h0a13.06,13.06,0,0,1-6,.41c-3-.49-6-.89-9-1.33L326,63.69a.83.83,0,0,0-1.2.25l-2.64-.65a6.39,6.39,0,0,0-.24-.74c-.82-.29-1.62-.62-1.54-1.7s.79-1.4,1.56-1.8c1.23-.63,2.66-.25,3.94-.59a3,3,0,0,0,.93-.24,4.67,4.67,0,0,0,.6.38,3.93,3.93,0,0,0,1.44.24l.71-.16c2-1.85,4.72-2.2,7.07-3.29a2.65,2.65,0,0,0,1.67.87,3.49,3.49,0,0,0,2.23,1c1.18-.06,2.19-.82,2.15-1.66a1.86,1.86,0,0,0-1.36-1.89c-.8-.23-1.62-.42-2.43-.63h0a4,4,0,0,1-.05-.91l-.07,0,.09-.24a5.21,5.21,0,0,0-.63-2.9A5.9,5.9,0,0,0,335,47.59a8.52,8.52,0,0,1-3.71-1.48c.16-.66.32-1.32.47-2,.45-1.9.44-1.92-2-2.37h0a1.69,1.69,0,0,0-.85-.2h0c-2.16-1.55-4.79-1.31-7.19-2-1.29-.34-2.93-.2-3.83-1-1.94-1.67-4.15-2-6.48-2.23a2.54,2.54,0,0,1-2.43-2.15,9.49,9.49,0,0,1-1.51-.08c-7.07-1.45-14.18-2.69-21.05-5a9.66,9.66,0,0,0-4.45-.61,70.12,70.12,0,0,0-15.72-1.09,41.68,41.68,0,0,1-6.6-.24c-6.08-.54-12.13-1.28-18.18-2.13-5.17-.72-10.47-.61-15.71-.87l-4.9-.36-9-1.16a1.29,1.29,0,0,0-.29.69l-.25,0-7.81-1-9.89-.92c-4.15.77-8.35.14-12.51.44l0-.08a1.3,1.3,0,0,0-.73.76L177,22.37c-.06.08-.11.14-.16.22l-.23,0c-.93.17-2-.47-2.82.41a4.69,4.69,0,0,1-2.94.46,17.93,17.93,0,0,0-5.51.49,4,4,0,0,0-3.53.33h0a.36.36,0,0,0-.57,0l-4.06-.43-1.53.66h0L154,24.48h0l-1-.05h0c-1.44-.25-2.88-.63-4.26.22,0,0,0,0,0,0a3.32,3.32,0,0,0-3,.87l-.06,0a1.46,1.46,0,0,0-1-.71c-1,.15-2.14-.65-3,.41a6,6,0,0,1-3.57,1.27,6.89,6.89,0,0,0-3.29.57h0c-3.2-.68-6.35.4-9.56.18-4.86-.32-9.73.13-14.62-.08-4.18-.19-8.4-.06-12.6-.25a19,19,0,0,0-3,.32,8.54,8.54,0,0,0-5.24.31c-1.74-.16-3.5-.56-5.2.26h0c-2.35.19-4.72.1-7.07.17-5.39.16-10.76.7-16.14,1.09h0a26.82,26.82,0,0,0-12,.62,2.33,2.33,0,0,0-2.24.65h0l0,0h0a10.54,10.54,0,0,0-4.8-.4c-1.77.14-3.55.2-5.33.29-1.63,1.25-3.7,0-5.38.95a1.28,1.28,0,0,0-.61.69c0,.16.31.57.53.6,2,.31,4,.55,6,.82.24.8.58.85,1,.15h0c1.48-.78,3,.26,4.5-.12a2.8,2.8,0,0,1,.86-.13c1.42.27,2.84.53,4.24.87.59.15,1.33.55,1.3,1.28,0,.33-.62.68-1,1a11.53,11.53,0,0,0-1.58,1.13c-.36.4-.06.93.27,1.33.83.83,1.91.64,2.92.7a6.18,6.18,0,0,1,1-.33h.12c1.44.34,2.89.63,4.2-.4h0l2,.18c.05-.24.11-.48.17-.73h0c.43,0,.87,0,1.32,0a7.51,7.51,0,0,0,2.29.29,2.76,2.76,0,0,0,1.33-.8,2.08,2.08,0,0,0,1.29.67c.38-.13.75-.28,1.12-.44a8,8,0,0,0,4-.52h0a20.63,20.63,0,0,1,3.51-.06c2,.3,4.1.62,4.4,3.27h0l-1.67.46a3.84,3.84,0,0,0-2.63-.09,2.71,2.71,0,0,0-.65.4c-.07-.08-.13-.16-.2-.23-3.82-2.85-7.58-.65-11.36.11a12.48,12.48,0,0,0-2.28,1h0c-.8.72-1.78.6-2.75.66-1.28.06-2.56.21-3.84.32-3.95-.88-7.93-.17-11.89-.28,0,0,0,0,0,0a2.47,2.47,0,0,0-1.93-1.17,3.39,3.39,0,0,0-2.3.67,73.13,73.13,0,0,1-14.19,0,19.88,19.88,0,0,0-7.57.22c-1,1.39-3.36.2-4.56,2.19l4.19.73c2.8-1,5.56-.4,8.32.18,7.7.29,15.4.81,23.1.75,3.3,0,6.69.55,9.95-.47h0a44.87,44.87,0,0,0,6.56.21,25.86,25.86,0,0,1,5,.35.89.89,0,0,1,.77,1.09,1.71,1.71,0,0,1-.91,1.06,11.37,11.37,0,0,1-2.49.22c-1.5.05-3-.41-4.48.34a3,3,0,0,0,.15.45h-.16v-.44c-1.45-.14-2.9-.32-4.19.64h0a1.83,1.83,0,0,0-.93,0h0a2.75,2.75,0,0,0-2.26.56h0l-1.87,0h0a13.12,13.12,0,0,0-8.15,0c-1.09,1,.24,1.41.56,2.06h0a13.67,13.67,0,0,0,3,.87,6.41,6.41,0,0,0-3.25,1.1h0c-.61.55-1.5.21-2.15.67a62.8,62.8,0,0,1-14.17-.48,14.1,14.1,0,0,1-5.56.39,6,6,0,0,0-4.05.84,6.11,6.11,0,0,0,3.43,1.36,39.76,39.76,0,0,1,10,1.77c3.78,1,7.55,2.05,11.52,2,.83,0,2-.08,2.43.4,1.65,2,3.73,1.2,5.69,1.19h0a3.94,3.94,0,0,1,.05.91,50.92,50.92,0,0,0,9,.1c3.49-.22,7-.26,10.49-.34a1,1,0,0,1,1,.92,1.71,1.71,0,0,1-.42,1.3c-1.08.77-2.26,1.4-3.39,2.08a9,9,0,0,0-5.08.45h0l-2-.13c-.28.9-2.14.26-1.78,1.92l7.47,1a4.55,4.55,0,0,0,3.36-.6,18.85,18.85,0,0,1,2.38.45c1,.29,1.09,1,.29,1.77a9.39,9.39,0,0,1-1.19.84h0a16.82,16.82,0,0,0-8.21,1.08h0l-5.84-.47c-.23.19-.45.39-.67.6h0L53,74.34c-3.35-.35-6.7-.73-10.06-1-1-.09-2.19.14-2.93-.55-2.36-2.21-5.41-1.6-8.16-2.24a1.09,1.09,0,0,1-.75.12c-1.58.22-1,1.88-1.73,2.64v0c-2.29,1-4.66.14-7,.27h0L18.14,73c-1-.12-1.93-.25-2.9-.34-.28,0-.77,0-.83.2-.24.6.38.72.7,1s.46.46.69.69l1.12.2h0l3.57.73c.6.82,2,1.16,1.07,2.79-1,1.8-.77,1.91,1.74,2.49h0l3,.4A6.89,6.89,0,0,0,28,80.38a12.63,12.63,0,0,0,4.42.18,4.44,4.44,0,0,1,3.22.83c.87,1.45,3,1.08,3.8,2.59l-1.19.72h0l-2.92-.4a.7.7,0,0,0-1.12-.1h-1.9a1.29,1.29,0,0,0-1.27.63h0v0l-1-.19-1.87.15-3.26.38h0l-1.94-.13c-.14.62-.27,1.24-.41,1.86,2.15.3,4.3.61,6.45.88,1.33.17,2.67.24,3.74,1.2,4,.63,8.05,1.74,12.2.91h0c1,.48,2.89.8,2.18,2.19-1.25,2.42-.68,4.54-.06,6.86a2.51,2.51,0,0,1-1.63,3.28c-.29,1-.78,2,.29,2.77s1.87-.16,2.67-.75l.82-.6c1.46-.78,3.55.45,4.63-1.48.67-1.61,2.69-2.51,2.63-4.49a2.3,2.3,0,0,0,2.17.54c1-.2,2-.59,3-.7a7.36,7.36,0,0,0,1.24-.06,2.33,2.33,0,0,1,.78-.1,4.83,4.83,0,0,1,1.26,4.19c-1.05.77-2.24,1.4-2.56,2.82,1.46,2.1,1.46,2.1,4.08,1.44a3,3,0,0,1,2.61,3.5v0a2.82,2.82,0,0,0,.79.67l-.09,1.85a4.52,4.52,0,0,1-.74.06h0a6.85,6.85,0,0,0-1.63-.26c-.91,0-1.89-.58-2.68.35a1.62,1.62,0,0,0-.24.74c-.32,0-.63,0-.95,0h0l-5.89-.72c-2.07.92-4.25-1-6.31.25-.45.2-.93.37-1.36.61s-1.38-.29-1.3.91l10.44,1.62,4,.47c1.89,0,3.77-.12,5.15,1.55a1.72,1.72,0,0,1-.45,2.61,18.41,18.41,0,0,1-2,.47c-1.25.33-1.35,1.36-1.42,2.41.25.14.49.28.75.4.89.9,1.68,2,3.2,1.73l.11-.09a1.54,1.54,0,0,0,.66.7c1.08.36,1.77,1,1.35,2.23-.26.78-1,.83-1.66.87-1,0-2-.6-2.95-.07-.2.11-.4.66-.3.81a3.62,3.62,0,0,0,1.05,1c2.38,1.48,5.22,1.25,7.77,2.09l2,.14a5.18,5.18,0,0,1,4.24.54c1.87,1.83,4.23,2.07,6.63,1.86,5.59-.48,11.14.29,16.72.36,2.69,0,5.3,1.18,8,.72,1.92.46,3.84,1.13,5.63-.47a1.89,1.89,0,0,1,1.37-.41c2.7.4,4.74-1.14,6.94-2.24a1.64,1.64,0,0,0,.88,0,4.1,4.1,0,0,0,.48.1c1.45.17,2.9.42,4.35.47,2.12.07,1.71,2.65,3.31,3.19.15,0,.3.12.45.18,2.08-.38,4.16-.74,6.23-1.14a2,2,0,0,0,1.59-1.66h0l1.15-.79-.14-.29.09,0c0,.11,0,.22,0,.33l17.24,1h0c.78.19,1.54.4,2.32.56a1.76,1.76,0,0,1,1.62,2l.72,1.21c1.76.17,3.57.87,5.23-.38.92-1.18,2.33-2.22,1.81-3.83a3.75,3.75,0,0,0,1.72-.1,12.84,12.84,0,0,1,7.18-1c2.8-1.49,6.25,1,8.89-1.46a2.75,2.75,0,0,0-.17-.29l.18,0a25.24,25.24,0,0,0,8.74.88l1.29-.8.95.16a2.11,2.11,0,0,0,.23.19c3.08,1.21,6.53.74,9.6,2a21.63,21.63,0,0,0,3.41.1c-2.34.33-4.67.67-7,1-2.1,0-4.16-.65-6.28-.47-1.49.59-3,1.15-2.73,3.23a3.74,3.74,0,0,0,.81,1.16c-.08.56-.17,1.12-.25,1.67l-.19-.12a3.67,3.67,0,0,0-3.42.24.39.39,0,0,0-.08.1c-.14-.17-.29-.33-.45-.49-3.23-1.52-6.3-1.38-9.15.9-1.85,1.2-3.87,0-5.77.4a1,1,0,0,0-.63.6c0,.24.13.73.31.79,1.25.36,2.52.64,3.79,1a54.54,54.54,0,0,0,12.18-.48h0v0c2,1.37,4,2.12,6.33.84h0a2.64,2.64,0,0,0,2.07-.72c2,.38,3.7-.51,5.38-1.42h0a16.27,16.27,0,0,1,8-.38,5.61,5.61,0,0,0,3-.2,50.6,50.6,0,0,1,11.49-1.67c1.5-.07,3-.36,4.5-.55h0c1.28.69,2.66.43,4,.42A14.15,14.15,0,0,1,243,139c3.56-.38,4-.73,4.94-4.25a14.52,14.52,0,0,0,.24-1.47h0c1.67-.34,3.25-1.38,5.06-.68,3.49,1.08,7,.24,10.48.07a4.35,4.35,0,0,0,2.87-.7l1.3.17c8.34,2,16.87-.19,25.28,1.08a24.61,24.61,0,0,1,3.71,1c-3.35-.23-6.76.06-10-1.11-1.55.12-3.11.23-4,1.85a2.34,2.34,0,0,0,2.12,1.83l7.91,1.25,1.91.1c1.22-.82,2.55-.51,3.87-.41,2,.16,4,.38,6,.35.8,0,.76-.89.59-1.56a6.56,6.56,0,0,0-.88-.09,3.49,3.49,0,0,1-3.15-.41l.1-.2a3.81,3.81,0,0,0-1.36-1,6.28,6.28,0,0,0,2.09-.21,17.54,17.54,0,0,0,7.07-1.44c.46-.23.89-.49,1.33-.75s.76-.48,1.13-.74c3.52-.13,7.09-.72,10.54-.28a37.17,37.17,0,0,0,10.58.2l5.73.71.22.3a5.74,5.74,0,0,0,4.17.36l3.82.27c.17-.24.35-.47.53-.7h0a19,19,0,0,0,4,.13c4.46-.74,9-.64,13.46-1,1.15-.1,2.35.18,3.41-.51,1.67,0,3.42.78,5-.38,2.13,0,4.28.82,6.37-.24h0c3.28.31,6.56-.63,9.84,0a12.25,12.25,0,0,1,1.8-.38c1.35.83,3.26,0,4.45,1.3h0c2,.19,3.79-1.36,5.91-.85s4.25.89,6.39,1.23c1.82.29,3.66.46,5.49.62a1.1,1.1,0,0,0,.77-.5C414.45,131.45,414,131,413.6,130.82ZM338.85,53.11l-.36-.31a.36.36,0,0,1,0-.09C338.63,52.85,338.74,53,338.85,53.11ZM148.69,24.66h0a.78.78,0,0,1-.26.3A1.48,1.48,0,0,0,148.69,24.66ZM134.18,131c-.57-1.76-2.19-1.64-3.55-2l.06-.23.43,0a8,8,0,0,0,1.36-.19,10.45,10.45,0,0,0,1.21-.26A4.1,4.1,0,0,1,134.18,131ZM298.79,43.09l0,0v0ZM206.46,61.91h0l-1.58-.22c-.16-.43-.31-.85-.47-1.27.16-.07.33-.13.49-.21a6.36,6.36,0,0,1,4.48-.84,28,28,0,0,0,8.17,0c.91,0,1.81-.8,2.7-.84.5.51.28,1.27-.23,3.06h0a26.71,26.71,0,0,0-8,.27A10.45,10.45,0,0,0,206.46,61.91Zm-98.81,2.83v.05h-.09ZM70.25,85.82l.82.12h0a2.7,2.7,0,0,1-1,.49C70.12,86.23,70.18,86,70.25,85.82Zm237,11.09.15,0,0,.15ZM73,30.58h-.12a1.24,1.24,0,0,0,.14-.18A1,1,0,0,1,73,30.58Zm80.77-5.93.24-.16ZM55.14,50.07h0L55,49.81ZM44.65,89.53l0,0,.25.44Zm10.44,4.71a2.53,2.53,0,0,0-1-1.18,24.32,24.32,0,0,1,3.62-1.38c.78-.34,1.54-.75,1.74-1.39C59.88,93.31,55.67,92.15,55.09,94.24Zm146.1,36.09Zm24.56,2.17a9,9,0,0,1,1.81-.5,4.26,4.26,0,0,0,1.56.61c-2.18,0-4.35.11-6.51.3C223.66,132.75,224.7,132.6,225.75,132.5ZM240.29,135a16.74,16.74,0,0,0,.3-2.32A3.1,3.1,0,0,0,243.3,134l-.17.09A9.9,9.9,0,0,1,240.29,135Z" transform="translate(-9.13 -14.47)"/></svg>