<svg id="Livello_1" data-name="Livello 1" xmlns="http://www.w3.org/2000/svg" viewBox="0 0 454.47 474.56"><path d="M463.87,223.6l-3.68-3.12.25,2.49c.07.75.16,1.63.25,2.56s.1,1.95.15,2.95c.19,4,.39,8,.39,8,.87,3.24,1.94,2.74,3.07.51s2.17-6.35,3.18-10.19C467.48,226.83,465.75,225.18,463.87,223.6Z" transform="translate(-13.01 -9.85)"/><path d="M454.87,192l-3.77-5.46-1.24-1.77c-.29-.43-.48-.66-.48-.66a5.11,5.11,0,0,1,.28.5c.18.31.42.77.71,1.31l2.15,4,2.16,4.09.88,1.89c-.5,7.45-2.46,7.2-4.54,4.64a31.14,31.14,0,0,1-3.07-5c-1-1.84-2-3.64-2.57-4.84,1.79,5.4,3,8.61,4.25,10.32s2.47,2,3.63,1.62c2.32-.69,4.47-4,6.8-2.41l-1.6-2.62C457.47,196.06,456.3,194,454.87,192Z" transform="translate(-13.01 -9.85)"/><path d="M445.84,167.17a15.35,15.35,0,0,0-2.49-5.52c-.82-1-1.55-1.28-2.15-1.06-1.2.45-1.91,2.84-1.74,5.27C441.58,165.82,446,172.18,445.84,167.17Z" transform="translate(-13.01 -9.85)"/><path d="M51.46,354.39c-.08,1,1,3.48,4,8.62-1.09-3.51-2.72-7.34-1.31-7.52C52.59,354.19,51.52,353.44,51.46,354.39Z" transform="translate(-13.01 -9.85)"/><path d="M54.2,355.49c.61.5,1.27,1,2,1.69-.52-.6-.91-1.13-1.55-1.79C54.4,355.29,54.36,355.47,54.2,355.49Z" transform="translate(-13.01 -9.85)"/><path d="M455.7,258c-.84-3.57-1.7-7.22-2.57-10.88s-1.95-7.15-2.63-10.56a81.76,81.76,0,0,0-.66,10.15,72.48,72.48,0,0,0,.1,7.32c.06,1.15.13,2.3.2,3.5s0,2.46,0,3.83a59.09,59.09,0,0,1-1,10,37,37,0,0,1-1.58,4.1,20.67,20.67,0,0,1-1.92,3.41,35.45,35.45,0,0,1-2.39,3.09,137.62,137.62,0,0,0,.89-21.61A175.37,175.37,0,0,0,438,220.73a190.32,190.32,0,0,0-19.4-69.67,14.33,14.33,0,0,0,1.57,1.63l-2.28-3a191.41,191.41,0,0,0-95-89c5.18,2,10.33,4.21,15.4,6.66A235.47,235.47,0,0,1,371.42,87a362.69,362.69,0,0,1,29.34,23.3c9.12,8,17.57,16,25.73,23.36-1.89-3-3.95-6.33-6.14-9.83-.53-.88-1.07-1.77-1.61-2.68L417,118.48l-3.59-5.61A204.7,204.7,0,0,0,396,90.23C383,75.75,366.57,63.86,351.5,61.06a25.09,25.09,0,0,0-6.91-5.69c-2.74-1.51-5.66-2.87-8.41-4.07a47.74,47.74,0,0,1-7.38-3.5c-2-1.26-3.5-2.54-4-4.33l-3.51-1.6-1.71-.76c-.58-.23-1.16-.43-1.73-.65q-3.42-1.26-6.66-2.33c-1.07-.37-2.16-.66-3.23-.93l-3.16-.78c-2.09-.47-4.1-1-6.11-1.3a118.27,118.27,0,0,0-22.58-1.49c-3.63.14-7.2.17-10.85.55l-5.52.41c-1.85.09-3.75.39-5.67.56s-3.88.36-5.88.5-4.06.48-6.18.68c-4.23.29-8.68,1-13.5,1.32-2.89-.21-3.67-1.15-4-2.34,0,0,0,.08,0,.12-2.28.8-4.52,1.54-6.73,2.24s-4.36,1.58-6.5,2.3L208.09,41,205,42.18c-2.08.75-4.14,1.47-6.2,2.14s-4.05,1.55-6.06,2.28l-3,1.06-3,1.19c-2,.78-4,1.53-5.93,2.27L175,53.6,172,54.81c-1,.42-1.92.9-2.88,1.34l-5.77,2.68-5.7,3-2.87,1.5L152,65l-5.64,3.38-5.53,3.78c-1.88,1.24-3.65,2.66-5.46,4.08l-2.7,2.16-1.36,1.09L130,80.63c-7.21,6.05-16.63,14.5-19.67,13.67,3.87-5-1.11-3.38,1.76-8-4.18,5.62-2.68,7.61-2,9.83a5.09,5.09,0,0,1,.21,2.09q-4.11,3.34-8,7l-1.29-2-2.68-4.16c1.12,6.4-3.14,10.44-8,15.27a64.06,64.06,0,0,0-7.24,7.84,22.33,22.33,0,0,0-2.8,4.67,21.69,21.69,0,0,0-1.64,5.27h0c-3,1.12-3.71-.54-2.94-3.71a31.72,31.72,0,0,1,2.15-5.71,57.67,57.67,0,0,1,4-6.71,24.77,24.77,0,0,0-4.43,6.17,23.24,23.24,0,0,0-1.63,5.14c-.32,1.62-.63,3.14-1,4.86a20.53,20.53,0,0,1-2.36,5.65s-.61-3-1.18-6.13-1-6.22-1-6.22a16.77,16.77,0,0,1-1.35,8.15,17.69,17.69,0,0,1-4.31,5.39c-3.38,3-7.85,5-10.26,7.34.75.75,3.12.46,4.54,1.54A3.12,3.12,0,0,1,60,150.81a11.24,11.24,0,0,1-.55,2.72c-.34,1.09-.92,2.34-1.56,3.9-3.06,5-3.9,1.48-5.47,2.33.79.72,1.6,2.56,1.83,5.22a25.19,25.19,0,0,1-1.14,10.45c-3.12.74-2-6.84-4.44-8.35-2.16,6.54-3,12-6.56,16.3-.27,6.23.73,6.22,2,5.71s2.63-1.55,3.26,2.3a46,46,0,0,1-2.06,5,7,7,0,0,1-1.87,2.46c-1.25.93-2.5.58-3.81-.17-2.62-1.47-5.42-4.66-8.88-1.65-.15-1.9-.27-3.86-.3-5.86s.12-4,.23-6.05.2-4.08.47-6.08l.8-5.9c.47-3.87,1.25-7.45,1.81-10.64.28-1.59.53-3.08.73-4.43s.45-2.53.57-3.57c0,0-.14.43-.37,1.2s-.61,1.84-.92,3.17c-.67,2.65-1.57,6.18-2.46,9.71-.73,3.56-1.45,7.12-2,9.79-.29,1.32-.44,2.45-.56,3.24l-.19,1.23c-1.35-1.24-3.79,3.22-5.84,6.12-1,1.45-1.86,2.52-2.53,2.2-.33-.16-.6-.66-.79-1.62a22.43,22.43,0,0,1-.17-4.4c-4.69,14.25-6.63,30.95-6,47.28a198,198,0,0,0,7.38,46c.2-2.07.24-4.39.49-6.12s.85-2.89,1.88-2.63c4.2,13.83.12,13-1.49,16.4,2.3,5,4.66,6.91,7.24,8.13s5.27,1.86,8.09,4.33c.08,1.36.17,2.64.27,3.86s.32,2.35.48,3.43c.33,2.17.67,4.11,1,5.89s.77,3.37,1.15,4.88l1.15,4.33c.67,2.83,1.45,5.52,2.1,8.76.32,1.63.61,3.39.88,5.38s.68,4.11,1,6.59l4.37-3.54c.91,6.85,3.78,9.62,6.63,12.38l2.18,2.13A26.59,26.59,0,0,1,60.2,355a27.83,27.83,0,0,1,4.11,7.51c-.24.64-1.5.12-3-1s-3.39-2.82-5.1-4.32a23.58,23.58,0,0,1,4,6.11,25.07,25.07,0,0,1,1.53,4.7c.76,3,1.45,6.05,6.16,10.23l-5.47-2C59.73,375.12,57,374,57,374c.75,1,1.57,2.07,2.41,3.15s1.79,2.1,2.67,3.14c1.78,2.08,3.48,4.09,4.75,5.83,2.67,3.38,3.64,5.76-.08,5.48A57.81,57.81,0,0,1,73,395.74c2.17,1.54,4.39,3.22,6.61,5.05s4.55,3.72,6.92,5.66,4.72,4,7.24,5.92l3.73,2.95c1.24,1,2.48,2,3.79,2.89,2.58,1.86,5.15,3.71,7.72,5.47s5.26,3.25,7.83,4.72a42.12,42.12,0,0,0,3.88,2c1.29.62,2.57,1.2,3.83,1.74l-3.79,3.25a20.7,20.7,0,0,1,5.17,1.34c1.83.7,3.86,1.5,5.92,2.51s4.2,2.17,6.44,3.27l6.8,3.41c2.25,1.19,4.6,2.15,6.86,3.1a65.62,65.62,0,0,0,6.57,2.41c4.26,1.16,8,1.66,10.88.91l.89,2.36,3.63.17c2.17.07,5,.29,7.89.27l7.84-.07c1.06,0,1.93,0,2.55,0l1-.06c9.41,2.77,4.68,9.06,5.86,7.29,2.72.51,5.4.78,8,1.13s5.1.74,7.56.95l7.16.71c1.16.12,2.3.28,3.43.37l3.34.26L241,466.87q3,.3,5.76.7c1.87.3,3.7.44,5.48.73.87-1.63,2.95-3,5.82-4.14,1.44-.55,3.08-1.17,4.86-1.73s3.74-1.09,5.79-1.58,4.2-1,6.41-1.57,4.49-1,6.78-1.53l6.84-1.7c2.27-.54,4.52-1,6.66-1.68l7.95-1.49c2.63-.6,5.26-1.27,7.9-1.93,1.31-.35,2.65-.63,3.94-1l3.91-1.21,3.91-1.23,2-.62,1.92-.72,7.7-2.92c2.54-1,5-2.2,7.56-3.31s5-2.36,7.43-3.63,4.94-2.47,7.31-3.92l7.14-4.21,6.92-4.58c2.34-1.49,4.5-3.23,6.74-4.86l3.32-2.48c1.1-.84,2.14-1.75,3.21-2.63A191.93,191.93,0,0,0,408,390.66l2.68-3.1L412,386l1.27-1.61,5-6.44c1.6-2.19,3.13-4.43,4.68-6.65s3-4.49,4.41-6.77c2.93-4.51,5.43-9.26,8-13.9,2.31-4.79,4.73-9.47,6.67-14.34,2.12-4.78,3.8-9.71,5.54-14.55.81-2.44,1.51-4.91,2.26-7.34l1.08-3.66.9-3.69a196.89,196.89,0,0,0,5.09-29.15,45.44,45.44,0,0,0,.33-9.39C456.91,265.13,456.35,261.56,455.7,258ZM311.1,417.42a27.35,27.35,0,0,1-6.47,3.85,71,71,0,0,1-8.26,2.65c-2.85.58-5.85,1.08-8.91,1.56l.85-.34q2.65-1,5.32-2.05l5.24-2.22,1-.39q6.18-1.75,12.19-3.89C311.72,416.87,311.42,417.15,311.1,417.42Zm14-4.39-1.56-.07c-.54,0-1.19,0-1.88-.11q3-1.26,5.95-2.63Zm7.4-3.67-.46-1.25q5-2.44,9.76-5.17A36.17,36.17,0,0,1,332.5,409.36ZM402.81,348l.31-.44.34.17A2.31,2.31,0,0,0,402.81,348Zm11.82-10.85c-.9.8-1.81,1.52-2.65,2.22a56.41,56.41,0,0,1-4.7,3.53c-.51.33-1,.61-1.52.88q4.82-7.11,9-14.66c.31.6.7,1.39,1.1,2.18l1.58,3.29Zm7.06-16.47a37.43,37.43,0,0,1-5.58,5.94,190.28,190.28,0,0,0,12.54-29.13c0,1.73-.1,3.5-.2,5.26s-.18,3.67-.42,5.46c-.2,1.46-.39,2.9-.58,4.32l-3.3-1.64C425.3,313.79,423.89,317.46,421.69,320.72Zm12.62-16.62c-1.37,2.06-2.5,3.63-2.36,10.71l-3.16-1.57c.32-1.61.63-3.11.89-4.38s.39-2.21.5-2.91.17-1.11.17-1.11c1.21,1.12,3.4-2.89,5.25-5.5a11.6,11.6,0,0,1,1.31-1.62,22.89,22.89,0,0,1-.6,2.3A16.23,16.23,0,0,1,434.31,304.1Z" transform="translate(-13.01 -9.85)"/><path d="M224.5,35.31a1.21,1.21,0,0,0-.12-.53A4.54,4.54,0,0,0,224.5,35.31Z" transform="translate(-13.01 -9.85)"/><path d="M224.65,31.32c.85-.16,2.06-.5,3.53-.71l5-.83,2.85-.46,1.47-.24,1.48-.17,5.84-.65c1.87-.22,3.62-.43,5.12-.49l5-.3-3-.44-3.14-.44c-1.15-.18-2.37-.24-3.6-.37l-6.79-.62c-.93-.1-1.71-.13-2.25-.14l-.85,0c2.09-.87,5-1.21,8.2-1.59,1.6-.16,3.28-.34,5-.46l5.06-.21c1.66-.08,3.28-.19,4.79-.34s2.91-.22,4.16-.44c2.49-.41,4.33-1.13,5.06-2.38q-2.78.38-5.7.61l-3,.23-3,.3c-2,.19-4.12.34-6.24.47-1.06,0-2.13.14-3.21.26l-3.24.3c-2.18.2-4.39.33-6.61.54l-6.7.77-3.38.36-3.37.52-6.73,1c-17.84,3.13-34.76,9.05-44.74,17,1.4-.37,2.81-.81,4.25-1.29s2.94-.88,4.43-1.38c3-1,6.07-2.16,9.29-3.08s6.43-2.12,9.78-2.88a89.42,89.42,0,0,1,10-2.11c1.55.19,3.28.32,5,.44.87.07,1.72.12,2.56.21s1.65.24,2.41.37c2.55.45,4.49,1.06,5,2.08a6.88,6.88,0,0,0-1.07-3.17Z" transform="translate(-13.01 -9.85)"/><path d="M264.94,14c1.71,0,3.52,0,5.59,0a45.06,45.06,0,0,1,7.08,1L276.2,12.4c-.73-1.27-1.45-2.55-1.45-2.55l-3.18.11-7,.56c-2.52.22-5,.39-6.91.69l-3.12.42A20.08,20.08,0,0,0,260,13.48,23.75,23.75,0,0,0,264.94,14Z" transform="translate(-13.01 -9.85)"/><path d="M266,26.25l2.91,1.15c.73.27,1.45.62,2,.86l.89.4,4.95-.48,3.43-.33,1.55-.08-.67-.1c-.42-.08-1-.16-1.77-.23l-5.41-.56C270,26.39,266,26.25,266,26.25Z" transform="translate(-13.01 -9.85)"/><path d="M68.05,118.13c.47-.88,1-2.21,1.91-3.7s1.81-3.27,2.86-5.15l1.62-2.92,1.82-2.92c1.22-2,2.45-3.94,3.59-5.79s2.38-3.46,3.37-4.9l2.4-3.47q.43-.65.69-1c.17-.22.25-.34.25-.34l-.27.35c-.19.22-.44.56-.76,1L82.88,93c-1.08,1.52-2.41,3.22-3.69,5.16l-4,6.07c-1.4,2-2.58,4.2-3.77,6.18s-2.3,3.81-3.16,5.44l-2.87,5.43,1.95-1.7Z" transform="translate(-13.01 -9.85)"/><path d="M45,358.7a35,35,0,0,0-5.11-6.36l5.69,7.52,6,7.22-.83-2.68A18.83,18.83,0,0,1,45,358.7Z" transform="translate(-13.01 -9.85)"/><path d="M189.22,480c.29,1.34,1.39,3,.15,4.06,8.94-5.82,13.91,3.43,6-6C189.58,477.49,188.9,478.55,189.22,480Z" transform="translate(-13.01 -9.85)"/><path d="M189.37,484.09c-.16.1-.33.2-.5.32A2.88,2.88,0,0,0,189.37,484.09Z" transform="translate(-13.01 -9.85)"/><path d="M226,478.59c-1.1.13-2.13.35-3.11.52s-1.91.38-2.84.58a23.5,23.5,0,0,0,2.77,1.41,10.62,10.62,0,0,0,2.23.61,6.35,6.35,0,0,0,3.28-.31c1.84-.69,3.24-2.1,5.7-2.76A33.73,33.73,0,0,0,226,478.59Z" transform="translate(-13.01 -9.85)"/></svg>