<svg id="Livello_1" data-name="Livello 1" xmlns="http://www.w3.org/2000/svg" viewBox="0 0 370.21 148.11"><path d="M114.77,15.25l0,0h.13Z" transform="translate(-13.53 -13.57)"/><path d="M382.9,29.49a10.53,10.53,0,0,0-2-.17c-3.22,0-6.44,0-9.67.05l-3.72.18q-.54,0-.57.39a14.54,14.54,0,0,0-3.95.23l-.12.06c-.19-.18-.43-.18-.75,0l-8,.28c-.31,0-.47.18-.5.42-1.27,0-2.57-.28-3.77.4a1.24,1.24,0,0,1-.9.16c-1.61,1.11-3.7-.31-5.27,1a29.75,29.75,0,0,1-3.43.69,60.76,60.76,0,0,0-11.81,2.38c-.15,2.17,1.78,2.13,3,2.83,8.59.45,16.85-1.77,25.24-3,2.42-.57,4.74-1.71,7.33-1.24a6.12,6.12,0,0,0,1.7-.19,5.39,5.39,0,0,0,1.17-.4c3.45,1.81,6.89,1.07,10.31-1.22a6.2,6.2,0,0,1,3.38-.93,17.84,17.84,0,0,0,2.52-.29,1,1,0,0,0,.64-.66C383.84,29.94,383.39,29.59,382.9,29.49Z" transform="translate(-13.53 -13.57)"/><path d="M152.34,17.38c1.17-.1,2.34-.14,3.5-.21a1,1,0,0,1,.42-.32l-.42.32a9.75,9.75,0,0,0,4.06,0c2.18-1.47,5.18.7,7.43-1.49-1.4-1.49-3.27-1.17-4.65-2a43.14,43.14,0,0,0-7.79.17,1.51,1.51,0,0,1,0,.52h0c-1.59-.06-3.18-.16-4.78-.18a3.18,3.18,0,0,0-2.57,1.05A5.62,5.62,0,0,0,152.34,17.38Z" transform="translate(-13.53 -13.57)"/><path d="M80.23,15.68c-1.12-.84-2.14-.38-3-.61a7.68,7.68,0,0,0-.83.19A3.11,3.11,0,0,0,80.23,15.68Z" transform="translate(-13.53 -13.57)"/><path d="M376,68.59c-7,1.24-14.14-.72-21.14.65-1.67.26-3.34.58-5,.77-10.28,1.19-20.59,2.16-30.73,4.32-1.18,1-2.59.53-3.87.48-3.63-.15-8.59,1.55-7.9-5.23,0-.36-.7-.65-1.19-.8a1.71,1.71,0,0,0-1.3.4c-5.65.74-11.29,1.5-16.93,2.2a12.54,12.54,0,0,1-3,0c-.69-.09-1.37-.63-1.17-1.36.71-2.59-1.72-1.83-2.68-2.63-5.39-2.19-11.12-2-16.76-2.2-2.46-.08-5.23-.42-6.66,2.51a4.28,4.28,0,0,0,.26.42h-.26a7.24,7.24,0,0,0-3.72-1,8,8,0,0,1-.72-.71c-.73-.92-.9-1.37-.45-1.7a22.46,22.46,0,0,0,3.77-.24,40.78,40.78,0,0,1,9.6-1.13,16.51,16.51,0,0,0,3-.36,14.49,14.49,0,0,0,1.93-.61c.63-.32,1.38-.55,2.05-.87,3.37-.75,6.82-.94,10.21-1.51,4-.69,8-1.33,12.08-1.74A9.19,9.19,0,0,0,299.78,57h0c2.46.54,4.63-.75,6.94-1.16a6.52,6.52,0,0,1,3.22-1.17l9.23-1.94a3.47,3.47,0,0,0,3.13-.8h.05a12.46,12.46,0,0,0,6.45-2.07h-7.6l-1.75.05c-.33,0-.5.17-.55.4a10.71,10.71,0,0,0-1.7.1l-1.52.4-1.63,0-1.31.9h0a33.79,33.79,0,0,0-11.12,2.07l-1.85.18c-2.51-.28-5-.37-7.33.85h0c-5,.46-10,1.56-15,1.26a19.66,19.66,0,0,1-4.19.82,8.54,8.54,0,0,0-3.07-.26,42.94,42.94,0,0,1-7.08-.46,2.94,2.94,0,0,1,2.21-.74,9.2,9.2,0,0,0,1.47-.12c1.7-.34,3.48-1,3.34-3-.17-2.28-2.24-2-3.87-2-2,0-4,0-6,0a24.91,24.91,0,0,0-5-1.07,17.65,17.65,0,0,0,8-3.19l-.15-.26h.06c5.69-1.19,11.52,0,17.22-1a83.34,83.34,0,0,0,9-1.31c3.44-.86,7.09-.32,10.4-1.74a71.07,71.07,0,0,0,13.29-2.13c-1.55-1.35-3.42-1-5.23-1h0l-5,.13-1.24-.42-6.91.07h0a8.71,8.71,0,0,0-2.29-.84,62.77,62.77,0,0,0-18.21,1.82h0c-6.55,0-13.1.11-19.66.09-6.71,0-13.45.52-20.11-.85a2.46,2.46,0,0,0-1.87-.57c-14.7,1.2-29.12-3.21-43.81-2.07a2.89,2.89,0,0,1-1.43-.44l-7.92-.3h0a2.15,2.15,0,0,0-.15-.71c-2.22-.68-4.35-2.23-6.8-.68l-.09.11h-.91c-3,0-6,0-8.94,0-.81,0-1.62.11-2.42.22a2.56,2.56,0,0,1-1.27-2c-.2-1.16-1.06-1.58-2.14-1.78a14.48,14.48,0,0,0-3.6-.13,4.39,4.39,0,0,0-1.62-.15,6.59,6.59,0,0,0-1.31.32,2,2,0,0,1-1.6-1c-.07-.22-.15-.43-.22-.65a4,4,0,0,0-2.29-1.26s-.16-.11-.19-.11a6.77,6.77,0,0,0,4.29-.07l.63-.19,3.87.26h0a1.47,1.47,0,0,0-.1.13c1.14,3.16,4.19,1.77,6.3,2.61,1.65.37,3.42-.1,5,.34,5.65,1.61,11.15-1.73,16.76-.3l2.82.07c.85.8,1.91.47,2.9.55,5.88.48,11.81-.65,17.68.43,3.35,0,6.71-.43,10.06.06,3.33,0,6.66,0,10-.06a10.32,10.32,0,0,0,2.89-.59c.52-.17.57-.79.26-1.25a9.45,9.45,0,0,0-1-1.08,1.69,1.69,0,0,1-.94-.12c-2-.91-4.14-.25-6.23-.45a6.57,6.57,0,0,1-1.05.64l-8.25-.31a3.23,3.23,0,0,0-1.09-.7,67.6,67.6,0,0,1-12.88-.27c-5.75-2-11.79-.14-17.61-1.34a4.29,4.29,0,0,0-3.74,1.22,2,2,0,0,1-2.35-2h0L175,24c-.23-.17-.44-.45-.7-.5a12.14,12.14,0,0,0-1.49-.12c-2.28-.26-4.69.32-6.81-1-4,0-8-.72-12-.31-5.46-1.43-11.06-1.52-16.65-1.83-6.43-.37-12.85-.8-19.28-1.21a6.2,6.2,0,0,1-3.39-.18c-1-.32-1.19-1.16-.63-2.33.2-.43.46-.83.7-1.24l-26.28.88c-1.18.75-1.91,1.63-1.32,2.9l-3.77.34h0l-1.13-.35c-5.73.78-11.49.24-17.23.23a61.59,61.59,0,0,0-9.12.21,97.42,97.42,0,0,1-14.67.94,32.28,32.28,0,0,0-5.13.34,2.46,2.46,0,0,0,.53-.15c2.33-1,6.21.65,6.87-3.37a1.6,1.6,0,0,1,.23,0c2.78-.43,5.57-.83,8.34-1.3.46-.08.94-.57.74-1.06s-.72-.56-1.1-.83l-5.89.14c-1.32.64-2.74.28-4.12.39a1.58,1.58,0,0,0-1.22.54.52.52,0,0,1-.62.1c-.57,0-.78.11-.66.44-1,0-2-.36-2.78.51l0,0c-1.92,1.26-4.34-.4-6.22,1.08a5,5,0,0,1-3-.19c-.95,0-1.9.08-2.85.14a2.43,2.43,0,0,0-2.46,1.84l-.05,0h0a.91.91,0,0,0-.79,0c-.49.75-1.48.52-2.08,1h0c-.42.94.24,1.55.75,2.22.14,1.39-1.22,1.27-1.88,1.88A3.4,3.4,0,0,0,16.61,26c0,.24,0,.49,0,.73l.44.58a3.26,3.26,0,0,0,2.41.32l8.25-2a5.05,5.05,0,0,0,2.66-1.27h0a38.1,38.1,0,0,1,8.06,0,24.21,24.21,0,0,0,4,.57c-2.06.53-3.89,2.22-6,2.31-2,.44-3.91.86-5.86,1.34a.84.84,0,0,0-.41.73,1,1,0,0,0,.58.67A30.73,30.73,0,0,0,41.5,31.47l1.72-.13c3.43-1,7-1.27,10.51-1.92l0-.09c1.6-1,3.49-.39,5.18-.9h0a3,3,0,0,0,3-1.14A20.53,20.53,0,0,1,64,25.38h0l3.83,1.1a2.81,2.81,0,0,1,1.27.88l0,0h0c0,.57,0,1.14,0,1.71a2,2,0,0,0-.71-.34,4.46,4.46,0,0,0-2.26.19,16.33,16.33,0,0,1-4.24,1.33A99.15,99.15,0,0,1,48.1,32.06c-1.26.2-2.41.83-3.7.87a26,26,0,0,0-3,.25c-1.67.78-3.5.77-5.26,1.14a3.11,3.11,0,0,0-1.24.94c-3,1.75-6.9-.37-9.65,2.33l-1.09,1.06h0c-2.08-.3-3.9.8-5.87,1.09-.79.35-2,1.16-1.24,1.72,2.8,2.16,3.81,5.55,6,8.1l-.16.13c-.89-.31-1.64-.16-2,.78-.29.76,0,1.22.86,1.13A1.75,1.75,0,0,1,22.87,54c-1.44,4.21-2,8.29,1.63,11.83.16.16-.23.89-.36,1.36a24.34,24.34,0,0,0-3,.37c-2.31.59-3.06,1.8-2.59,4a7.84,7.84,0,0,0,.88,2.86c1.11,1.58,1,3.48,1.61,5.15,1,2.7-.11,4.44-2.23,5.88l-2.77,1C14,87.3,15.85,90.2,13.7,91c-.14.06-.23.63-.13.87a1.28,1.28,0,0,0,.73.59,11.32,11.32,0,0,0,1.45.33,9.23,9.23,0,0,0,4,5.62,1.42,1.42,0,0,1,.29.39l2,.05c.82.84,1.67,1.66,2.45,2.54a.87.87,0,0,1,0,1.33,5,5,0,0,0-1.77,4.47,1.68,1.68,0,0,1-1.3,1.85c-.73.3-1.21.88-.73,1.55,1,1.37.38,2.48-.18,3.74a1.68,1.68,0,0,0,.68,1.78,1.88,1.88,0,0,0,1.93,1.08h0a6.52,6.52,0,0,1-3,2.08l-.84,1.09c-1.1,2.64,1.66,3.42,2.51,5.12-.89.24-1.31.72-.54,1.8,2.28-.18,3.4,1.12,4,3.12,2,1.87,4.35,2,6.83,1.17,1.72.85,3.65.4,5.42.9-.11,2-2.09,2-3.13,2.95h0c-1.34.73-3,.88-4.08,2h0l-9.1.18c-.08,1,.24,1.7,1.25,1.86,1.26.2,1.61,1,1.64,2.1-.7.42-.6.77.16,1h0l0,0a1.82,1.82,0,0,0,1.95,1h0c3.16.52,6.44-.32,9.52,1l6.5.21c2.16.07,4.32.62,6.48,0h0a21.73,21.73,0,0,0,6.1.87l5.13,1.13c2.27,1.32,4.92-.26,7.2,1l0,0c3.09,1.45,6.49-.14,9.62,1l.32-.09.25.23,4.67.2H82a1.64,1.64,0,0,0,.4,1.17,10.65,10.65,0,0,1,1.2.32,5.68,5.68,0,0,0-1.24.25c-1.46.46-2.87,1-4.37.2a8.89,8.89,0,0,1-3.84-.12l-8.12.07a1.18,1.18,0,0,0,0,1.93l2.18,1a29.73,29.73,0,0,1,11,2.11c2.39,1.19,5,.44,7.42.5,1.33,0,3.37.91,3.88-1.12.37-1.47-.84-2.28-2-3.06a7.06,7.06,0,0,0,4,0c3.88-1.29,8-1.41,11.83-2.57a5.79,5.79,0,0,0,.39-.7,19.12,19.12,0,0,1,5.35,3.83c1.34,1.56,3.44-.08,4.86,1.14h0c6.63.7,13.3,1.08,19.86,2.48,1.37.29,3.75,1.33,4.64-1.32a3.86,3.86,0,0,1,.44-.38c.12.25.27.53.47.87,3.42-.17,6.85,0,10.29-.08h2c1.12,0,2.58.64,3.1-.85.45-1.31-.83-2-1.58-2.93-2-2.36-4.68-2.32-7.41-2.4-2.51-.09-1.17-1.16-.39-2,.05,0,.08-.07.12-.11a5.18,5.18,0,0,0,.17.56,1.42,1.42,0,0,1,.88.32l1-.2h0a.91.91,0,0,0,.72.22h0a4.35,4.35,0,0,0,2.83.79,2.83,2.83,0,0,1,2.61,2,2.06,2.06,0,0,0,2.2.53l.18-.07.09.08h0l.55.46h2l1.15.93h0c0,2.44,2.06,2.77,3.62,3.54a4.59,4.59,0,0,0,4.29.32c.15-.08.22-.67.09-.87a5.83,5.83,0,0,0-1.05-1c-.66-.42-1.5-.33-2.16-.76a2.61,2.61,0,0,1-.83-.17c-.08,0-.16-.11-.25-.32a.61.61,0,0,1,.17-.66.8.8,0,0,0,.34-.94l.36-.12s.31.33.31.33a6.16,6.16,0,0,1,4.21-.14,11.58,11.58,0,0,0,2.37.79l1.66.09c1.11-.22,1.7-1.23,2.62-1.74a3.39,3.39,0,0,0,.66-.8c.55,0,1.09,0,1.64-.08a19.83,19.83,0,0,0,2.88-.57,2.07,2.07,0,0,0,.25-.15.83.83,0,0,0,.27.16l2.75.2a2.13,2.13,0,0,0,.76.76,3.79,3.79,0,0,0,2.94-.07l.09,0,1.11-.28c.15.56.26,1.13.42,1.68-4,.38-7.94.75-11.91,1.17-.44.05-.85.48-1.27.73l-.12,0c1.66,1,3.36.74,5.07.15l4.79-.19a2.87,2.87,0,0,1,2.67,0,.92.92,0,0,1,.71.41,2,2,0,0,1,.47.48h-.17l-.23.38-.63,1c-.36.07-.54.22-.56.44a1.84,1.84,0,0,0-.9.43l.06.14c-.9.58-1.93.24-2.88.43-2.47.51-1.37,1.58-.35,2.6a6.12,6.12,0,0,0,3.82,1.15q17.53-.17,35.07-.3l.16-.1a6.28,6.28,0,0,0,.32.63c6-.12,12,.61,17.91-.4L252.74,160c.7-.56,2.23-.29,2.06-1.66-.13-1.1-1.21-1.54-2.24-1.65-3.5-.38-7-.12-10.51-.19h-1.79c-6.52-.31-13.11.81-19.57-.95-2.32.36-4.5-.43-6.73-.82-1.7-.24-3.22.74-4.89.76a28.21,28.21,0,0,1-3.9.07,21.81,21.81,0,0,0-4-.09,7.6,7.6,0,0,1-5.51-1.38h.13l.47,0,.43-.18h0a2.61,2.61,0,0,0,2.1-.94h0a2.59,2.59,0,0,0,2.72-2.79,15.53,15.53,0,0,1,.61-5.26h0a2,2,0,0,0,.68-.21,48.65,48.65,0,0,0,5.41-.2c1.28-.17,1.6-2.07,3.12-2.14.3,0,.59-.29.88-.44h0l3.67,0,.41-.48h0l-.42.48a3.83,3.83,0,0,0,.44.25c.53.24.57.22,1,1.87.09.33,0,.63.43.73l4.42,1a82,82,0,0,1,12.24,0c1.5.11,2,.12,2.52-.47.53-.08,1.05-.16,1.57-.22,3.06-.93,6.24-1.36,9.35-2,2.11-.84,4.51.13,6.65-.57l1.21,0c.06-.25.13-.5.19-.75,1.76,0,3.54,0,5.09-1a3.38,3.38,0,0,0,2.27-.95h0l1.76-.11c1.29-1.72,3.62-.21,5.1-1.47-1.39-3-3.44-4.15-6.64-3.26-3.49,1-7.08.48-10.64.35h0a7.29,7.29,0,0,1-.39-2l.16-.1c.4-.24.85-.43,1.23-.65a13,13,0,0,0,2.69-.64c1.08-.5.63-1.35.08-2.07-2.77-.27-5.57-.88-8.23.52h0a7.52,7.52,0,0,1-1.28-.81c-.65-.62-.88-1.17-.71-1.55,1.93-.47,3.94-.73,5.94-1,3.39.28,6.13-.8,7.9-3.86a3.24,3.24,0,0,0,.11-.71l.64.11c2.76-.33,4-1.9,3.77-4.66a1.45,1.45,0,0,1,.13-.47l-1.76,0a17,17,0,0,1-6.57.3,1,1,0,0,1,.22-.13c.71-.34,1.41-.76,2.14-1.1,2.15-1,4.46-.61,6.72-.72.67,0,1.34,0,2-.08a7.54,7.54,0,0,1,3.8-.23,4.42,4.42,0,0,0,2-.37,4.09,4.09,0,0,0,1.09-.94h.72a3.64,3.64,0,0,0,.26-.72c3.51-.19,6.82-1.39,10.22-2.13,1.68.06,3.36.09,5,.19a8.94,8.94,0,0,0,5.7-1.43,16.09,16.09,0,0,1,5.39-2.56c5.26-1.08,10.63-1.62,15.8-3.18a16.76,16.76,0,0,1,3.5-.31,3.17,3.17,0,0,1,2.34-.46c2.41.08,2.75-1.5,2.4-3.27-.44-2.26-1.89-2.32-3.6-1.22h0c-1.52,1.15-3.69-.52-5.09,1.16-1.84,1.21-3.93.87-5.95,1-3.4.21-6.61,1.78-10.09,1.34a2.65,2.65,0,0,0-1.73.6,5,5,0,0,0-1.16.12,3.34,3.34,0,0,0-.58-.36,5.54,5.54,0,0,0-.58-.17,7.44,7.44,0,0,0,3.77-1.6l1.77-.28c.71-.36,1.56-.27,2.24-.73l0-.26.47.07h.48a2.86,2.86,0,0,1,.15-.41q.33,0,.66,0A4.21,4.21,0,0,0,309,99l-.12-.24h0a5,5,0,0,0,1,0c9.31-1.89,18.59-3.92,28.05-5a6.88,6.88,0,0,0,2.38-.82c1.05-.59.59-1.39.1-2.12l-1.8,0v0c-2.24,1.29-5-.5-7.17,1.13a5.1,5.1,0,0,1-1.34.67c-4.63.82-9.29,1.5-13.91,2.41-3.94.76-7.83,1.77-11.75,2.67h0a.59.59,0,0,0-.58.18,9.65,9.65,0,0,0-4.46.91l-.09,0-5.56.23c-.94.73-2.27,0-3.18.85a2.58,2.58,0,0,1-.77.25c-.47,0-.69.15-.69.32a2.09,2.09,0,0,0-1.59.45l-6,.21c-5.28-1.13-10.45-.21-15.63.68a1.47,1.47,0,0,0,1-1l.1-.06.2.1c2.88.45,5.19,0,6.11-2.88l.54-.2c3.53-.54,7-1.34,10.55-1.86l2.06-1c2.82.39,5.42-.77,8.13-1.17a21.46,21.46,0,0,0,9.06-1.17c.78-.57.76-1.15,0-1.74h-3.89a1,1,0,0,1-1.19,0,6,6,0,0,1-.85,0c-1.29,1-2.93-.66-4.17.58a2.22,2.22,0,0,0-.15.32L292,91.29a1.86,1.86,0,0,1,.81-1.84,4.26,4.26,0,0,1,.69.22,5,5,0,0,0,3.19-1l8.15-1.08,2,0,.49.08.48-.11c0-.32,0-.64,0-1h0a6.71,6.71,0,0,0,.84-.44c.37-.27.93-.54,1-.89.13-.66-.57-.6-1-.64-.95-.08-1.9-.11-2.85-.16-1.21-.59-2.34-1-2.84.32l-.66-.26a42.35,42.35,0,0,0-4.5.32,23.18,23.18,0,0,0,6.42-1.39c.61-.37,1.25-.67,1.82-1.09a8.41,8.41,0,0,0,1.44-1.07h.18c.06-.16.12-.34.17-.51a3.57,3.57,0,0,0,.76.69,7.7,7.7,0,0,0,3.86.49c5.49-1.25,11.05-2.13,16.46-3.69,8.33-.81,17,.88,24.92-3,6.3-1.53,12.77-1.4,19.16-2,.93-.58,2-.34,3-.44,1.61-.17,3.25-.7,3.37-2.48C379.57,67.7,376.91,68.43,376,68.59ZM31.58,21.88c1-1.43,2.7-.92,4.14-1.05A25.12,25.12,0,0,0,31.58,21.88ZM304.85,99.71Zm-134,42.58a4.2,4.2,0,0,0,1.67,1.5,7.1,7.1,0,0,1-1.44-.65c-2.32-1.69-5.26-.22-7.66-1.5a5.42,5.42,0,0,1-2-1.56,30,30,0,0,1,10.75-1.28C170.83,139.16,170.16,140.15,170.86,142.29Zm53.42-73,.06-.05h0l0,.08Zm-5.75,60.43a1.81,1.81,0,0,0,2.12.12c-.89.67-2,1-2.94,1.66A3.47,3.47,0,0,0,218.53,129.69Zm14-.42a1.83,1.83,0,0,1,.24.13,3.37,3.37,0,0,1,0,.55,1.4,1.4,0,0,0,.47.63C232.63,130.4,232.05,130.19,232.54,129.27ZM250.26,49.6a2.78,2.78,0,0,1-.21-.27c.9,0,1.81,0,2.71,0a9.29,9.29,0,0,0,1.05,0A17.64,17.64,0,0,1,250.26,49.6Zm-67.52,95.52a3.64,3.64,0,0,0-1.23-.65c-2.81-.55-5.78.21-8.56-.55a1.76,1.76,0,0,0,.79,0c4.37-1.28,8.92.18,13.26-1.08a3,3,0,0,0,1-.89.79.79,0,0,0,.34-.08c-.34.7-.46,1.63-1.82,1.47A3.64,3.64,0,0,0,182.74,145.12ZM286.32,87.38a2.54,2.54,0,0,0-1.78-.76c-.08,0,.09-.06,0-.06A7.73,7.73,0,0,0,287,86h.07A1.68,1.68,0,0,0,286.32,87.38ZM178.49,37.12s0,0,0,0l-.4.13A1.76,1.76,0,0,1,178.49,37.12Zm96.87,76.17h0a.91.91,0,0,1,.49-.51Q275.6,113,275.36,113.29ZM264.84,101.9a2.39,2.39,0,0,0-.67.59,1.25,1.25,0,0,0-.08-.77l.46-.15a2.94,2.94,0,0,0,1.25.16Z" transform="translate(-13.53 -13.57)"/><path d="M209.17,150c-.88.5-.84,1.17-.35,1.92l.08,0c.64.52,1.54.38,2.2.85l1.74,0c.74-.68,1.87-.91,2.29-2l-.07,0c-1-.77-2.29-.17-3.3-.79Z" transform="translate(-13.53 -13.57)"/><path d="M229.42,153.14c-.77.17-.75,1-1,1.64v0c2.84,2.31,5.75.8,8.64.13.24-.06.62-.55.56-.69-.17-.44-.44-1.05-.81-1.16A14.12,14.12,0,0,0,229.42,153.14Z" transform="translate(-13.53 -13.57)"/><path d="M263.11,130.26c2.35.27,4.23.28,5.95,1.06l1.9-1C268,129.16,268,129.16,263.11,130.26Z" transform="translate(-13.53 -13.57)"/></svg>