<svg id="Livello_1" data-name="Livello 1" xmlns="http://www.w3.org/2000/svg" viewBox="0 0 819.49 210.21"><path id="Element_02" d="M658.56,47.93c-2.65-4.8,10.53-2.23,12.57-1.21,1.93,1.21,3.59-1.09,5.48-.42l-.14.26c1.89-3.5,5.61-.34,7.49,1.52.91.57,1.82,1.15,1.94,2.33,0,.08-.66,1.28-1.27.19-1.31-.39-2.86.39-4-.86h-1.49c-1.95,2.28,1.46,4.3-3.3,3.74-1.71-1.33,4.76-2.52,0-3.91-.5.14-.72-.13-.8-.57h0c-1.36-1.1-2.12.29-3.11.74h0l-1.91,2.31c-1.15-1.12.55-1.55.36-2.37A38.32,38.32,0,0,1,658.56,47.93Zm-79.64-3.81c.77-.09,1.9,0,1.93-.88s0-2.39-1.7-2.43c-2.24-.05-9.1-2.91-10.25-.46C569.09,44.71,575.7,44.49,578.92,44.12Zm57.39-3.19c2,.18,2.27-1.37,2.65-2.77-.12-2.65-2.23-2-3.78-2.2s-2.88,1.42-4.47-.09c-.6-.57-1.93-1.43-2.76-.32s.81,1.7,1.13,2.62c.61,1.74,2.13,1.19,3.36,1.36.68.09,2.12-.6,1.92.35C633.7,43.06,635.53,40.86,636.31,40.93Zm-7.23,7.22,0,0H629Zm-486,11a7.51,7.51,0,0,0-1.1,1A6.25,6.25,0,0,0,143.06,59.11Zm330.2-19.83c2.89-1.3,5.78-.87,8.66,0,1.68-.87.76-2,.41-3,.92.46,1.9,1.14,2.07-.94-1.38-2.54-3.87-.43-5.64-1.34-2.74-.41-4.6,1.92-7.09,2.29C469.22,38.87,472.17,38.58,473.26,39.28Zm112,10.51c1.06,2,1.87,1.88,2.44-.28,5.12.84,10.31,2.32,15-1.41,2.34,2.46,5.07,1.74,7.8.94,1.84,1.14,3.7.71,6.71.29-2.31-.83-2.4-2.73-4.12-2.7-4.07-1.19-8.09-1.76-11.9.8l.33.15a.82.82,0,0,1-.33-.15c-4,2-8.09-3.53-14.28.76-4.4.77-9.12-2.46-12.82,1.83-2.55,0-10.5-2.62-11.29-.14-1,.68-2-1.79-2.73-.35-.61,1.4,1.64,2.77,2.93,2.9a2.16,2.16,0,0,0-.7.51c1.52,1.57.3,2.75,1.41,3.07s1.57-.51,1.8-1.46A4.22,4.22,0,0,0,567.77,52c2.23.74,3.81-1,5.71-1.49h0c1.86,1.08,4.13,1.3,5.79,2.82.32.29,1.24.53,1.22-.14C580.35,49.45,584.05,51.39,585.3,49.79Zm-44.51,5.48c.37-1.17,2.22-1.08,2.21-2.58-2-3.15-4.93-1.67-7.44-1.28-1.21.19-2.59,1.08-.79,3.16C536.88,57,538.82,55,540.79,55.27ZM698.2,23.47c2.44-1.65,2.41,1.93,7,.66h0c1.74-1.48,3.72-.44,5.59-.56,1.76-.93,3.63-.8,5.52-.73,2.66-.54,3.9,2.75,6.51,2.35a8.25,8.25,0,0,1,6.35.81,10.36,10.36,0,0,1,5.59,1.44h0c5.34,2.51,12.11.2,16.68,4.77,3.9-.05,7.82-.14,11.1,2.53,1.06-.36,2.07-1.76,3.22-.14,1.52,0,3,2.45,3.07,3.89a8.24,8.24,0,0,1,2.26.28c0-.2.07-.33.13-.33,3,.44,8.16-.13,9.62,3.33.2.73,0,1.11-.8.81-1.63-2.18-3.72-.58-5.6-.66-2.1.43-2.1-1.68-3.12-2.58-1,.47-1.91,1.51-3.19.66-1.91,0-3.89.88-5.65-.56-2.59-.76-5.08-1.46-7.21-3.52a3.5,3.5,0,0,0-5.33,0c-1.15,1.1-4.67,1.09-6.52-1.23-6.06-3.17-13-2.37-19-5.56h0c-3.3-.51-6.8.91-10-1h0c-1-.07-2,.22-2.73-.68l-1.56,0c.19.43.39.85.59,1.28-1.68.54-2.22-1.46-3.76-1.44a5.64,5.64,0,0,1-4.83-2.16l-1.51.7c.51.75-.22,1.6-.49,1.49-2.07-.82-4.26-.78-6.38-1.15C689.59,25.2,694.82,19.41,698.2,23.47Zm69.1,16h.28l-.13,0ZM536,46.5c1.26-1.3-.69-2.93-1.64-3.79-2.21.24-6.06-1.46-7,1.3C527.19,46.09,534.32,47.88,536,46.5ZM663.72,26.16c1.65-.9,3.37-1.24,3.06-3.44-.2-1.4-.42-2.9-2.24-2.38-1.62.47-3.73,1.08-3.67,3.21C660.92,25.09,662.94,25.16,663.72,26.16ZM486,35.4v0h0Zm3.16.85c.42-1.91,2.26-.77,3.23-1.49,3.35-.61,2,1.52,4.82,1.9-3.41-4.61,1.54-1.58,3.81-2.9.78.44,1.53,1.61,2.39.1l1.52-.79a2.56,2.56,0,0,0,3.1.37A1.82,1.82,0,0,0,506,32.07c1-2.3-3.33-2.44-2.6-.09C500,33.41,484.72,30.05,486,35.36,487.15,35.44,487.66,37.7,489.2,36.25Zm-170,36.05c-1.61,1.62.14,2.94.77,4.33,1.67.28,3.36,1.38,4.62-.74,2.5.52,4.69-1.2,7.13-1,2.19.69,4.38,1.35,6.36-.52,1.21-.1,4.72.37,3.7-2-1.83-.89-3.44.69-5.29.41-1.58-2.34-3.22-.11-4.82-.07l-8,.28.05-.24C322.31,72.07,320.75,70.78,319.24,72.3Zm22.14-3.51c3.07-2.06,3.66-.14,3.95,2.36.09.77-2.5,2.72.77,2,1.35-.28,2.76.94,4-.34.72-.72,3.05.82,2.46-1.75h0c-1.64-.48-2.78-2.64-4.91-1.45a1.33,1.33,0,0,0-.63-.2c-1-1.71.66-2.21,1.41-3.13,3.52.9,8.58-3.63,8.26,2.86.35,1.4,1,2.72,2.87,1.89,1.3-.56,3.12-.84,1.55-2.93-1.8-.39-2.5-1.78-3.07-3.31h0a3.86,3.86,0,0,0,3.94-.93c2.31,1.24,4.09-1.62,6.34-.83a5.24,5.24,0,0,1-.57-.22,1.14,1.14,0,0,1,.57.22l3.18.13.15-1.46a.5.5,0,0,0-.15-.88c-1.52.68-2.62-2.06-4.1-.78a1.71,1.71,0,0,1,.11-.14c-2,.83-3.17,3.06-5.59,3.12-1.57.81-3.16-1.2-4.74,0a24.9,24.9,0,0,1-3.38-1c-.64,2.89-3.16,3.1-5.36,3.78C344,63.68,336.11,69.28,341.38,68.79ZM602.92,37l-.11-.06.07.08Zm3.5,3.61c1.24.91,2.42.61,3-1.11.3-.94,1.33-2.22-.34-2.41-2-.24-4.08-1.14-6.12-.09C604.49,37.84,605.09,39.64,606.42,40.63Zm-374,36.79A2,2,0,0,1,233,75c.81-.2,1.85.36,2.4-.71.53-.63,1,.15,1.56,0,1.25-2.42,3.73-1.09,5.54-1.82,1.55-2.38,4.14-1.08,6.44-1.2a1.43,1.43,0,0,1,0,.65c1.7,1.65-.4,3.1-1.68,3.61,1,0,2.07.69,3.09,0a3.31,3.31,0,0,1,1.92.44c.66.42,1.76.11,2.25.7,1.57-1,3.79-1.44,5.62-2,1.44.26,2.35,1.67,3.86,1.77,1.39.41,3.27.2,3.22,2.47-6.47,3.7-7.55,3.65-11.67-.49-.88,3.45-3.65,2.09-5.94,2.44-1.73-.78-4.19.73-5.39-1.73h0c-2.15.35-2.83,1.31-4.74-.09-1.32,1.87-2.66,2.32-4.07.09C234.54,78.39,233.79,77.34,232.4,77.42Zm6.86-.8a.81.81,0,0,1,.37.12c.86-.95,2.1.17,2.45,1a2.05,2.05,0,0,1,1.65-1.24c.72.29,1.05.72.8,1.33a8.09,8.09,0,0,0,1.27-1.14,15.34,15.34,0,0,1-2.55-2,3,3,0,0,1-1.19.82c-.95.36-1.82-.33-2.79-.27A2.93,2.93,0,0,1,239.26,76.62ZM405.6,52.84A14.88,14.88,0,0,0,412,50.36c1.21-.33,2.45,1.25,3.6-.06,1.1-2.23-2.42-1-3.49-1.22-.25,0-.57.4-.86.62-2.7-.89-4.85.65-7.14,1.6C403.48,52.9,403.81,53.6,405.6,52.84Zm145.51-8c2.47.42,1.28-1.64.06-2.31l.08-.1c-1.52-1.34-3.26-.56-4.92-.54-1.05.07-2.08-1.14-3.15-.08-1.64,0-2.71.58-2.18,2.48l1.36-.1C544.52,47,548.24,45.63,551.11,44.81ZM414.52,68.68c-.77-1.77-1.32-3.93-2.87-2.87s-2.42,1.66-4.09,1C403.19,69.63,412.8,68.46,414.52,68.68ZM25.9,125.82c0-.21-.15-.35-.45-.43A8.28,8.28,0,0,0,20.11,122a1.66,1.66,0,0,0-.17-.73c-1.22.43-3-2.33-3.76.64l2.32,1.72,0,1.45a.92.92,0,0,0-.59,0c-1.42-1.53-2.77-.66-4.12.13-.06,2.2,2.44,1.15,3.83,1.44l.92-1.42,1,.13c1,2,4.73,2.43,6.27.82C25.85,126.18,25.89,126.06,25.9,125.82Zm428.7-68.4c.51-.83-.23-1.5-.54-1.21-1.45,1.37-3.25-.05-4.68.8-1.19-.42-2.53-1.08-3.17.64-.42,1.11.37,1.61,1.43,1.66C451.35,60.78,452.81,60.36,454.6,57.42ZM292,72.7c-.89-2.37,2.06-2.23,2.45-3.76l3.87,1.52h0a3.19,3.19,0,0,1,2.42.24c2.62-.71,4.34-5.19,7.92-1.9,2.4,0,4.85,1.3,7.22.07,2.61-2.21,2.53-1.88,6.13-1s.31,1.69.2,2.51c-1.7,1.4-4.9,2.27-6.48.36a10.84,10.84,0,0,1-1.3,2.72c.79.15,1.88.06,2.32.87a1.15,1.15,0,0,1,1.44.79c-.79.83-1.55,2.4-2.46.1-2.28,4.59-5.93,2.89-9.4,2-3.7,1.61-7.89,1.13-11.83,1.65-3.26-3.18.35-5.77,3.74-4.46,1.22-1.16,4.06-.45,4.81,1a1.34,1.34,0,0,1,.87.29c.14-1.68,2.4-.59,2.33.6a4.06,4.06,0,0,1,1.64-1.57c0-1.84-1-2.7-2.86-2.76,0,1.43-2.14,1.77-2.84.61.17-1-.62-.85-1.13-1-.39,1.48-2.68,1.52-3.79.84a3.45,3.45,0,0,0-.28.26C295.32,74,293.66,74.44,292,72.7Zm19-1a1.94,1.94,0,0,1,.6,1.41,1.08,1.08,0,0,0-.15.57,1.59,1.59,0,0,1,1.56-.38A6.22,6.22,0,0,0,311,71.65ZM78.92,56.91l1.57-2.49h0c1.07-.27,2.14,1.53,3.2,0h0c1.18-.27,2.66.08,3.17-1.53l1.6.69c.49-.81,1.35-.75,2.11-.93a1.69,1.69,0,0,0-1.39-1.43c-.94.31-2,.47-2.33,1.6-.73-.41-1.41-1-2.35-.81l-.9,1.43-1.28.22c.78-2-2.47-2.13-3.71-2.71-1.44-.34-.18.79-.51,1.09l-2.33,0c-.89-.77-1.16-2.91-3.1-1.41C75.13,52.45,76.21,55.51,78.92,56.91ZM270.39,74.16c1.37-.49,3.05-.18,4.16-1.39.1-2.07-5-2.08-6.38-.79C267.37,74.27,269.16,74.6,270.39,74.16Zm169.33-4.24c2.1,6.31,6.9-3.15,2.4-2.85C441.54,68.22,438.7,67.54,439.72,69.92ZM685.25,25.38c1.86-2.06-2.36-6.32-3.78-2.71C680.23,24.73,683.65,27.3,685.25,25.38Zm-29.33-.72a2.08,2.08,0,0,0,.05-2.84c-1.32-1.83-2.69-.63-4,0a1.67,1.67,0,0,0,0,1.71C653.18,24.3,654.25,26,655.92,24.66ZM480,62.13c1.09,1,2,0,2.92-.31l3.77-.25c1-1.82-.43-2.34-1.59-3-1.59-.44-2.45,1.12-3.79,1.37C479.52,59.84,479.79,61,480,62.13Zm254.21-15c.75,1.92,2.3,1.66,3.82,1.58,3.14,2.73,5.69.17,8.33-.7-.9-2.63-3.19-2.58-5.16-3.11-1.38-.81-1.58-3.6-4.12-2.44-1.46.11-3.76-.4-1.65,2.28C734.77,45.4,733.7,45.79,734.23,47.13ZM373.65,85.8c1.11-.57,2.62-1.57,1.65-3.43-1.67-.5-3.48-1.34-3.85,1.5C372.25,84.48,372,86.63,373.65,85.8ZM643.77,33.88c-.63.68-3.11,1.35-1.46,3.3A2.17,2.17,0,0,0,644,38.79c.79-.28,1.6,1.19,2.38.18a2.11,2.11,0,0,0,1,1.21c1.56-.21,3.7,3,4.62-.81,1.27-1.83,2.11-3.48-1.41-3.22-1.1-1.23-2.63-.61-4-.88C645.65,34.64,644.56,33,643.77,33.88Zm-212,26.77,3.23.26c.43,1.92,1.9,1.43,3.19,1.38.49.06.79-.12.84-.64,2.54.3,3.14-2.08.11-1.69C438.07,58.54,434.1,58.81,431.79,60.65ZM123.14,54.83a2.49,2.49,0,0,0,2.69,2.08c.56.88,1.13,1.74,2.4,1.44l.66-1.91a1.53,1.53,0,0,0,.91-.37c-2.47-3.73-4.44-4.43-7.57-2.63C122.24,53.63,122.61,54.78,123.14,54.83ZM371.5,63.2h-.05v.08ZM705,52.49c-2.71-3.83-2.75-3.87-4.4-4.41a2.81,2.81,0,0,0-.87,3.22C701.26,51.59,702.88,51.2,705,52.49Zm-29.81-9.1a1.72,1.72,0,0,0,2.33.56c0-1,0-2,0-3,1-.15,5.08.43,5.13-.34s-.92-1.38-2-1.18l-1.41-1c-.79-4.12-4.74.82-2.65,2.73C677.26,42.68,674.26,41.85,675.17,43.39ZM420.8,48.78c2.69,1.12,4.33-.05,5.53-2.24a.66.66,0,0,0,0-1l-3.22.28c-1.42.15-3.35-1.12-3.87,1.44A2.43,2.43,0,0,0,420.8,48.78ZM398.38,69c-1-.5-1.51.42-2.24.71-1.4.58-2.67,1.23-1.61,3.1,1.42.11,2.81.1,3.93-1,1-.08,2.57.83,2.33-1.36l-1.88.06C399,69.92,399.07,69.21,398.38,69ZM378.24,74.2c.37-1,1.59-.59,2.46-.61,2.52,0,8.37-.71,7.21,3.19-.78,1.92-2.4-1-3.67,0C382.2,76.56,377.55,77.52,378.24,74.2Zm2,.83-.07.07a1.31,1.31,0,0,0-.12.27c0-.09.08-.18.13-.27s0,0,0,0ZM559.08,44.8c1.45.77,2.66-.2,3.95-.55,2.36,2.07,3.6-.42,4-1.61.39-1.37-1.42-.82-2.35-.84-2.13-.51-4.62-1.63-6.65-.18-.86-1.37-1.73-1-2.39.11-.78,1.28.87.67,1.16,1.29C557.17,43.93,557.8,44.88,559.08,44.8ZM225.2,75c-1.38-2.39-2.74-2.08-4.08,0l-2.3-1.52c-.9.53-.8,1.4-.75,2.25l3.88.37-.41-.54a1.55,1.55,0,0,1,.41.54h0c-.11,2.08,1.18,1.71,2.44,1.39,1.07-.46,2.63,2,3.35-.56a3.58,3.58,0,0,1,2.82.41C233.47,74,227.11,74,225.2,75ZM222,76.18Zm60.06.16c-.81-.55-2.65-.39-2.78.75-1.38-.64-2.75-1.32-3.72.55-3.6-2.82-6.65-2.47-5.05,2.28,2.14.64,4.28,1.49,6.43,0,5-.58,10.1.9,14.95-1,.26-2.38-2.47-3.73-4.36-3.41-.78,1.22-1.65-.91-2.78-.8A1,1,0,0,0,285,74c.28,0,.63-.06.81-.3,1.41.23,1.1-1.67,1.38-2.44h-1.59c-.52-.36-1.39,0-1.69-.85-1.56-1.78-3.13-2.35-4.73,0-.46.07-.75.28-.64.81-.62.85-1.55.83-2.46.86-.71.61-.32,1.43-.4,2.16C275.49,75.5,277,76,278,75.31c1.17.92,2.48-.48,3.53-1.07a1.29,1.29,0,0,0,.34,0l1,.76A2.58,2.58,0,0,0,282,76.34Zm178-21c0,.92.88,1.6,1.68,1.89,1.56.56,1.78-.92,2.36-1.81h0c1.16.12,1.22,2.77,3,1.36.8-.63,1.54-1.7,1-2.65-.67-1.28-1.89-1.38-3.33-.85-1.06.28-4.39-1.33-2.66,1.11C461.22,54.44,460,54,460,55.31ZM385,81.5c.66,1-.49,1.07-.77,1.58-.18,2.55,2,1.23,3,1.89,2,1.3,2.5,1.2,3.42-1,1.29-5.87,5-1.22,7.91-3.4a1.36,1.36,0,0,0,1.54,0c2.21.07,4.37,0,5.7-2.2.25-.3,1.76.18.77-.74-2.3-1.9-6.6-1.11-8.87.66C394.47,82.28,388,77.28,385,81.5ZM83.15,47.61c1.4.61,2.7,1.51,4-.21-1.3-1.7-3.24-1.38-5-1.59C81.78,46.78,79.67,48.72,83.15,47.61Zm532.38-10a3.55,3.55,0,0,0,.71.19,3,3,0,0,0,1,.64c.3.74,1,.93,1.79,1,1.59,4.5,7.52.32,4.53-1.87-.87-3.23-5.11-1.66-7.21-3.13C613.16,33.7,611.68,38.68,615.53,37.66Zm46.23-.85a.58.58,0,0,0-.88.31c.1,1.26-1.17,2.27-.67,3.61C663.05,40.1,663.53,38.89,661.76,36.81ZM494.67,59.24c.17,1.38,1.78.85,2.32,1.74,2.89,2.28,1.17-3.27-.92-3.32C494.44,57.1,494.89,58.49,494.67,59.24ZM456.55,41.55c2,.74,2.84-2,4.74-1.45l-.2-.18a.58.58,0,0,1,.2.18c1.57.67,3,1.63,4.79,1.61.86,1.41,4.36.82,2.65-.83h0c-.73-.71-1.14-2.47-2.29-2.39-1.37-3-4.8-.91-6.71.22a3.61,3.61,0,0,0-3.33,1.18c-3.72,1.27-8.83-2-9.36,2.62A24.06,24.06,0,0,0,456.55,41.55ZM706.2,52.6c2.58,1.95,3-2.22,6.29-1.35,1.76,1.37,3.16,3.42,6,3.15,0-3.29-2.85-4.72-4.46-6.9-2.35-.76-4.66,0-7.77-.26l2.28,1.67C708.93,50.9,706.86,51.37,706.2,52.6ZM602.88,37l-.07-.08,0,0Zm-.1,0-4.18-1.73C601.12,39.28,601.39,39.37,602.78,37ZM366.7,85.47c-2.9,0-7.36-2.35-8.75,1.53l-2.22-.67c-.32,2.11,1.08,1.54,2.19,1.41l3.39.88h0l.64.81c1.64-.51,3.25,1.52,4.57,0,.3-1.23-1.52-1.2-1.39-2.33ZM486.5,48.54c-.27,1.6,1.91,3.92,3.42,2,1.17.8,2.33,1.55,3.48,0-.24-.43-.76-.47-1.1-.77-1-.67-1.54-2.33-3.21-1.33C488.21,48.4,487.19,47.76,486.5,48.54Zm-27,17.06c.67-1.26.23-2.15-1.28-2.34a4.11,4.11,0,0,0-1.09.74c-.9-.5-1.77-.82-2.2.57-1-.25-3-1.24-3.63.1-.45,1.54,1.55,1.4,1.92,2.44-2.93,2.69-4-2.44-4.48.58,0,.61-1.39,1.07-.23,1.72,1.57-.9,3.83-.51,5.67-.71,1-.06.66,2.57,2,1.16,1.09-1.18-1-1.66-1.27-2.64a.44.44,0,0,0,.1-.64l1.37,0C457.94,68.09,458.81,66.85,459.48,65.6Zm-301.1,7.22c.71,2.07,2.15,2.12,3.88,1.34a7.47,7.47,0,0,0-3.86-1.39c.32-1.58.2-6-1.76-2.59C155.28,72.36,157.15,72.37,158.38,72.82ZM121.91,62.7a.88.88,0,0,0,0-1.17c-.13-1.69-1.13-1.75-2.4-1.29-.14.46-.27.92-.4,1.38-.84.2-.86.79-.68,1.47C119.74,64.24,120.84,63.58,121.91,62.7Zm628.75-1.86c-2.36-1.79-5.81,1.72-7.85-1.62-1.7-2-4.59-.85-6.42-2.48-1.62-.56-3.43.56-5-.53-3.07-.91-6.16-1.73-9.19-2.77-1.5-.52-3.25-1.69-2.8-3.31C720.53,46.75,730,51,731.56,53c1.37-.69,2.69.19,4,.1a.86.86,0,0,1,.72-.21c1.08-2,2.14-1.85,3.2,0,2,0,4.07-.13,4.87,2.36a2.76,2.76,0,0,1,2.53,2.2c4.08-1.11,8-2,11.14,2.27,2,2.67,6.27.5,7.06,4.24,1.45-.46,3-1.38,4.25,0,.49.31,1.7-.47,1.48.81-.16.9-1.08.92-1.86.89-2,2.29-3.48-1.09-5.61-.91-2.81,1-4.59-.74-6.36-2.46-1.66.86-2.83-1.26-4.36-.68l-.39,0c-1.13.22-.6,2-1.85,2.09C749.21,62.56,750.49,61.76,750.66,60.84Zm.55-1.39,0,0a1.45,1.45,0,0,1,.18-.16A.42.42,0,0,0,751.21,59.45ZM377.15,81.56a2.77,2.77,0,0,0,.63,2.34c1.2.25,2.74.41,2.56-1.26C380.14,80.72,378.35,81.61,377.15,81.56Zm-171-11.08,3.17-.89L211,71.91a2.39,2.39,0,0,0-1.57.86c.49,3.77,2.49,4.57,7.84,3.13.9-1.9-1.16-3.37-2.76-3.8a3.14,3.14,0,0,0-.65-2.45c3.38.2-1.16-3.16-2.2-.9l-1.55.17c-.83-.82-5.85-1-4.78.71C205.56,69.91,205.83,70.2,206.11,70.48Zm125.53-2.36c3.3-.25-.77-4.35-2-2.07C329,67.36,330.32,68,331.64,68.12ZM34.56,91.77c.78-.41.66-1.09.54-1.77L32,89.5h0c-.08-.68.25-1.52-.73-1.83-.58.16-1.35,0-1.5.89L32,90.24C31.91,92.35,33.47,91.66,34.56,91.77ZM164,112.62c-1-.13-.57,1.12-1.1,1.21s-1.56-1.33-1.79.28c.25,1.4,2.33,1.82,3.67,1.5.36.63.71,1.26,1.06,1.9C167.12,115.18,166.54,113.54,164,112.62Zm1.86,4.92,0,0v0h0Zm71.86-47.27c.35-2-2.14-.78-2.12-2.26,2-.28.43-1.64-.65-1.45-.83,0-1.91.09-1.12,1.46C234.43,70.12,236,70.39,237.73,70.27ZM511.37,35c1,.44,1.06-.46,1-1C512.64,30.17,507.41,33.56,511.37,35ZM722.8,45a1.3,1.3,0,0,0,1.58.58c1.83-.49,4,2.09,5.58-.63,1.9-4.9-2.26-2.52-3.86-3.21-1.22-1.21-2.07-3.09-4.34-2.36-2.28-.19-2.6,1.46-.53,2.41A4.31,4.31,0,0,0,722.8,45ZM468.5,39.27c.71.47,2.62,2,2.47.13-.4-.92-1.87-1-1.75-2.35l-2.34,0C466.27,38.6,467.64,38.75,468.5,39.27ZM187.13,71.16c-1.24-2.53,1.48-1.62,2.35-2.26,2,1.23,3.87,2.73,6.32,3,1.37,1.36,2-1.12,3.2-.61,2.29.05,4.58,0,6.86,0a3.11,3.11,0,0,1-.44.67,3.25,3.25,0,0,1,2.24,1.13l-.15.25.18.22-.66,1a.68.68,0,0,1-.13.6c-3,.22-7.12,1.41-9.6-.63a2.36,2.36,0,0,1-1.45-2c-1.59,1-3.18,1.47-4.81.08l-.78.16c-.2.28-.39.37-.58.28a2.41,2.41,0,0,1-1.1,1.94C188.14,73.7,185.88,73.1,187.13,71.16Zm15.52.85a1.13,1.13,0,0,0,.81.33A6.89,6.89,0,0,1,202.65,72Zm58.29-.81a4.76,4.76,0,0,0-4.71,1.54l3.21.08Zm291.75-16c.68-1.54,2.53-1.92,2.49-3.89.74-.08,2-.1,1.35-1.16s-1.41.57-2.24.49c-3-1.77-5.56-1-7.87,1.31a9.55,9.55,0,0,0,3.19,2l-.05.49C550.59,54.76,551.27,56.54,552.69,55.21Zm-515.14,24a1.1,1.1,0,0,0,.29.66c1.17,0,2.31,0,2.23-1.69C39.28,76.72,36.28,77.36,37.55,79.19ZM516.06,44.64c1.07,1.39,1.14,3.18,3.2,2.59l.21-.82C518.44,46,517.94,44.51,516.06,44.64ZM25.46,95H29C27.8,92.91,25.6,93.13,25.46,95Zm90-44.55c.86-.54,1.71-1.08.68-2.2-1.7-.34-2.31.46-2.14,2.06ZM179.87,68.1c.12.69.6,1.34,1.19,1.12,1.31-.68-.84-2-1.15-2.86C177.67,63.71,176.33,68.09,179.87,68.1ZM645,45.09c-.66-.19-1.29-.27-1.68.48-5.38,1.57-6-3.2-9.52-.51-.82-.28-1.58-1.37-2.52-.21a1.07,1.07,0,0,1,.05.4c-1.55.3-4.19-.28-3.09,1.75-3.57-3.56-9.42-4.11-12.34,1C620.25,49.3,624,48,628,49.8c.77.44.81-1,1-1.68l-.09-.21.17.22c1.93.4,4.36-1.08,5.68,1.56a.82.82,0,0,0,1.4,0c.84-1,2.05-1.19,3.22-1.5,1.15,1.17,2.63.71,4,.8,1.13.46,1.62-.67,2.44-1,2.7,2,5.76.77,8.66,1-.05,2.42,4.71,1.7,2.54-.13a2.76,2.76,0,0,1-.76.07C657,43.27,648.43,44.09,645,45.09ZM445.47,65.72l-.24,2.43C447.22,69.56,448.87,65.52,445.47,65.72ZM216.53,70.91c2.95.49,5.72-.32,8.67-.65,1.15-.16,2.44.39,3.84-.55-1.69-1-2.93-2-4.63-1.62-2.66-2.57-4.76.24-7.1.75a1.25,1.25,0,0,0-.32.61C215.91,69.42,216.63,70.3,216.53,70.91Zm270.93-30A2.56,2.56,0,0,0,486,37.75c-.83.22-.85.85-.78,1.52Zm338.77,151.2c-.07.3-.13.6-.2.9.77,1.53.77,1.53,2.45-.34C827.93,191.66,827.06,191.93,826.23,192.07Zm-795-90c-3.22-.1.26,4.24.77,1C32,102.56,32,102,31.25,102.07Zm-1.67,27.22-1.52-.13a2.12,2.12,0,0,0,0,2.43C29.58,131.8,32,130.41,29.58,129.29ZM51.14,65.64l1.57-.83c-.13-.57.35-1.46-.65-1.56s-.94.7-1,1.36c-.62,0-1.24.11-1.53-.65-2.86.12-1.19,1.38-.59,2.37ZM24.88,131.56c-1,1,1.07,3.76,2.39,3.12C27.35,133,26.16,132.23,24.88,131.56Zm77-74.78c.28-1.93-1.31-1.35-2.24-1.67,0,.83,0,1.65,0,2.48C100.82,58.44,101.43,57.87,101.86,56.78ZM541,44.31a.09.09,0,0,1,0-.05h0ZM594.2,40l-1.67.89c-1.9-1.21-2.59-.57-2.32,1.52C592.3,42.35,596.57,43.55,594.2,40Zm-537,33.77a3.32,3.32,0,0,0,3.2.23C60,75,61.6,75.35,62.24,75.87a1.73,1.73,0,0,0,.91-1.58l-.06,0,1.47-2.91-2.31-1.14c0,.29,0,.58,0,.87a3.29,3.29,0,0,0-1,2.13l-.23.07c.58-1.7-1.49-2-2.36-2.69a.62.62,0,0,0,.4-.23,8.39,8.39,0,0,0-1.21-1.73c-.46-.06-.86.24-1.31.21s-.87-.39-1-.27c-.74.73.44,1.21.33,1.89l.83.7a2,2,0,0,1,0,.73c-2.34.16-2.07,1.12-.75,2.41Zm366.76-9.82a.58.58,0,0,1-.2.21l.2-.21-1.51-.85c-1.44,1.21-3.26,2.81,0,2.43C424.51,67.28,427.33,63.66,423.93,63.93ZM735.34,60.2c.25,1.3,1,1.74,2.48,1.17C737.57,60.33,735.71,58.13,735.34,60.2ZM374.69,61v-.82c1.11-.17,2-1.34,3.25-.8,1.08-.46,1.14-2.79,3.09-1.69l4,0c.78-1.65,2.32-1.68,3.82-1.8h0c2.8-.52,2.57-4.69,5.16-2.32a.43.43,0,0,1,.55.1c2.09-2.26,3,1.28,4.75.94.79-.56,1.56.3,2.3.56-1.22-.1-1.7.56-1.69,1.7-2.49,1.3-5.19.2-7.76.67-1.88-.45-3.66,1.86-5.58.2-.72.23-1.4.81-2.16.79a1.57,1.57,0,0,0-.07.57c5.79-.54,1.73,4.44-1,1l-4.63,0C377.62,61.57,376,60.4,374.69,61Zm20.69-4.91,0,.09a.94.94,0,0,1,.1-.1ZM508,56c-3.88.1-3.52,3.9.23,2,.46-.14,1.16.58,1.65.47,1.3-.3,3.35.11,2.91-2.38C511.2,55,509.61,54.61,508,56Zm-29.92-4.5c-1.31.9-4,0-3.4,2.39,1,1.25,2.24.39,3.37.48,2.08.42,1.54-1.28,1.62-2.21C479.78,50.77,478.72,51.46,478.07,51.49ZM110.66,47.82c1.23-.7-1-2.63-2-2.15C107.88,46.73,109.32,48.39,110.66,47.82ZM431.9,46.49c1-2,8.41-1.46,7.14-3.1-2.84-1.43-5.27.79-8,.86C428.39,43.6,429.9,47,431.9,46.49ZM541,44.26l0,.05H541Zm-1,1.14,1-1.09c-1,.1-1.7-.55-2.5-1C536.79,45.59,539.72,44.5,539.93,45.4Zm-412-.25a5.16,5.16,0,0,0,1.81.36c1.11.78,3.08-.28,2-1.54-1.3-.73-1.17,1-2,1.22-.3-.22-.81-.41-.86-.67a1.14,1.14,0,0,0-2-.88A4.45,4.45,0,0,0,127.93,45.15ZM33,92.75l.78,1.31,1.35.24C37.34,92.41,34.1,92.51,33,92.75ZM778.41,217.26a1.64,1.64,0,0,0-.68.21l2.35,1.41C780,217.9,779.61,216.87,778.41,217.26ZM426.31,71.15c-.12,1.51.83,1.16,1.69,1a1.92,1.92,0,0,0,.71-.15c1,.6,1.94.7,2.43-.68A1.82,1.82,0,0,1,431,71l.13.3a5,5,0,0,0,.67,0c1.68.29,1.44-1.72.23-1.78C429.81,67.94,427.84,69.76,426.31,71.15ZM675.17,41.8c.44-.92-.28-1.19-.87-1.54-.89-.52-1.79-1-1.66.74A2.37,2.37,0,0,0,675.17,41.8Zm74.23,8c-2.7.49,1.27,4.42,3.57,3,0-.34,0-.68.07-1-.9.07-1.93.84-2.54-.5C750.66,50.39,750.54,49.58,749.4,49.75ZM492,38.54c.11-.07,0-.4.05-.62a3.51,3.51,0,0,0-2.71.14C489.93,39.76,490.94,39.24,492,38.54Zm181.5.06c.71,0,2.54.48,1.7-.82-.85-.26-.61-2.11-1.84-1.5S673.72,37.79,673.45,38.6Zm34.53-3c-1.72.07-.79,2.16.47,2.25.67,3.79,8.41,8,5.48,3.94.4-1.05,1.71-.24,2.28-1.24l-2.83-2.86c-1.06-.22-1.35.31-1.51.95-.83-1-2-.87-3.2-1C708.73,36.83,709.48,35.79,708,35.58ZM94.47,37c.73,0,1.3-.22,1.21-1.34C95.13,34,92.29,36.81,94.47,37ZM358,81.53a9.45,9.45,0,0,0,5.36-1.85c-2.42-1.28-18.5-1.29-16.48,3.36.79.18,1.54,1.11,2.36.06a28,28,0,0,0,4.5-.29l-.54.17C354.82,82.61,357.08,84.27,358,81.53Zm-11.11,1.56a.11.11,0,0,0,0,0l-.06,0Zm196.47-50c-.51-1.2-1.65-.69-2.51-.93a.57.57,0,0,0-.69,0c-1.31-2.54-3.93.33-5.76.85-.18.78.08,1.15.91,1,1.57-.32,3.34.33,4.69-1C541.11,32.94,542.15,34.79,543.35,33.07Zm-28.84-2.29c7.4-5.27,3.49-2.06,8-1.72,1.43-2.48,2.61.79,4,.17.87-.92,2.09-.75,3.17-1,4.15-4.09,8.78.67,13.49-.76a3.33,3.33,0,0,1,3.25-1.5c1-1.1,2-1.46,3.18-.16a22.71,22.71,0,0,0,9.43-.16c1.26-2.16,3.66-.81,5.67-1.19.93.75,1.74,1.78,3.16,1.45l0,0c1.14-1,2.61-1.13,4-1.42,3.19-2.44,6.38.69,9.56,0,3.57-.53,6.59-3.15,10.41-2.65,1.55,1.78,3.18-.93,4.74.08a10,10,0,0,0,6.27-.91c.88-.23,1.68.3,2.54.24a2,2,0,0,1,.77-.81c1.06.45,3.13-1.25,3.18,1.39,1.76-.73,3.35-2.14,5.47-1.31,3.17-.51,6.33-1.77,9.53-.15l3.19.09c3.43,1,6.44-2,9.68-.35,2.49.8,9.21.76,7,5-.89.56-1.85-.87-2.66.23a2.68,2.68,0,0,1-3-.88c-.58-.89-1.71-.18-2.49-.47a3,3,0,0,1-1.83-.05,2.76,2.76,0,0,0-.46-.45l-.66.09c-1.43-.75-2.55,1.64-4,.4h0c-.78,2.33-2.57.89-3.93,1.05-.78,0-1.55.05-2.33,0-.43-.41-1.3-.2-1.66-.7a2.79,2.79,0,0,0-.7.13,1.27,1.27,0,0,1,.08.86,89.58,89.58,0,0,1-13.4.47,1.17,1.17,0,0,1-.15-.65,2.25,2.25,0,0,0-1.49.6c-.88-.25-1.72.8-2.61.06a71.63,71.63,0,0,1-20.63,1.45c-3-1.8-1,2.8-3,2.37-1.47-.3-1.84-3.55-4.17-1.5-1.56.06-3.45,1-5,.76,1.17.28,2.25,1.09,3.51.94.34,1.1,3.15.79,2,1.95-1.74,1.28-5.68,1.51-7.62-.33-1.38,2.56-6.09-.93-3-2.29-.67-3.05-7.47,1.45-8.39-.93l-.53.06a8.3,8.3,0,0,1-3.94,4c-1.75-.38-.84-2.63-2.33-3.2-3,0-5.91.56-8.82,0a1,1,0,0,1-1.16.33c-1.65,2.6-7.82,1.54-10.62,1.55.28,1-1.08,2.49.93,2.91-1.29,2.65-5.47-1.12-5.27-2.94-.16.08-.32,0-.46-.24l-1.57-.54c-.82,1.68-2,1.65-3.3.63-1.18,1.12-2.94.92-4.22,2.19s-1.3-1.08-2.14-1.44C510.72,30.56,514,28.74,514.51,30.78ZM569,28.73a2.89,2.89,0,0,1,.66,0,3.88,3.88,0,0,1-.63-.21A.47.47,0,0,1,569,28.73ZM105.63,57.51l.33-1.29-2.34,0C103.68,57.64,104.57,57.72,105.63,57.51Zm588.72-6.78c.84-.19.74-.93.77-1.56l.21.09.17-.16,1.71.77c3.53-.89,3.39-5.38-.61-4-1.34,0-3-.92-3.39,1.41a3.33,3.33,0,0,0,1,1.24,4.88,4.88,0,0,1-.88,1.28C693.5,50.3,693.68,50.88,694.35,50.73ZM146.5,56.06l3.46.39c-1.91-1.39-3.12-1.07-4.24-1.17C145.54,56,145.66,56.38,146.5,56.06ZM265,74.31c1-.07,2.35.29,1.57-1.55h-2.36C263.85,73.38,264.48,74,265,74.31ZM827.6,114.86c.77,1.09,1.94,1.35,3.37,1.81,0-2-1.25-2-2.36-2.21ZM38.27,76.7c.14-.77.33-1.56-.89-1.56s-.85.86-.72,1.55Zm7.42-.29.94-.89C44.59,74.27,43.62,76.47,45.69,76.41ZM446.88,42.7c-.81.5-1.51-1.25-2.34-.24l.09.83C445.69,44,446.44,43.82,446.88,42.7Zm.14-.12a.64.64,0,0,1,0-.07H447c0,.08-.05.13-.07.2l.14-.12Zm-314.18,20c2.7,2.41,6.25,2.78,9.48,3.93,1.39,2.22,3.89-1.09,1-.89-1.13-1.69-3.11-3.28-1.35-5.47-3.17,2.92-7.54-3-9.22-.51a2.12,2.12,0,0,0,.1.36,3.07,3.07,0,0,1-.68,0C133.87,60.5,128.76,62.75,132.84,62.59Zm455.7-20.78C588,40.72,587,41,586.17,41,586.64,42.25,587.41,42.57,588.54,41.81ZM205.89,71.22l0,0h.07Zm-46.61-12c-.43-1.16-1.66-.38-2.4-.84L158.4,60C159,60,159.55,59.92,159.28,59.18Zm365.64-1.52.12-2.19c1.11-.51,2,.14,2.94.53.46-.26,1-.42,1.16-1-.68-1.5-2.31-1.38-3.47-2.06-1.13-.38-1.59,1.2-1.16,2-.6-.79-.39-2.4-2.06-2.11l.08.14c-1,0-2.21-.43-2.42,1-.3,2,1.58,1,2.35,1.54h0a.38.38,0,0,0,.11.56C522.39,58,522.84,59,524.92,57.66Zm-290.18,166c0,.54,0,1.09,0,1.63.4.53,1,1.16,1.39.24C236.67,224.34,235.25,224.25,234.74,223.63ZM137,49.74a1.76,1.76,0,0,1-.1-.68c-1.38-.58-1.86.36-2.33,1.33C135.48,50.64,136.38,50.79,137,49.74ZM64.87,68c-.81-.94-1.65-1.16-2.54-.11C63.15,68.46,63.94,69.91,64.87,68Zm77.35-15.28c1.06-1.5-1-1.62-2-1.38A1.72,1.72,0,0,0,142.22,52.68Zm-7.75-2.3.06.06,0,0-.11,0a.43.43,0,0,0,0,.11l.06,0Zm-.3,1.66c1.37-.28.45-1,.3-1.57C133.19,50.51,132.32,52,134.17,52ZM32.77,111.76c1.21-.78.64-1.56,0-2.34a.72.72,0,0,0-.64.08c-1.28,0,0-1.8-1.3-1.82s-.91,1-1.25,1.59l.84.8,1.58.05C32.14,110.72,32,111.44,32.77,111.76Zm.81-25.62c.37-.81-.7-.83-.9-1.35a1.77,1.77,0,0,1-.65-.1l-.8.78.75,1C32.56,86.6,33.25,86.87,33.58,86.14Zm379.74-12a.42.42,0,0,0-.45.27c-.93,1-3.4,1.36-3.26,2.92.12.42.53.37.88.23,1.95-1.21,4.6,2.4,6.25-.9,1.92-2.33,1.92-2.33.84-3C416.17,73.93,414.58,72.75,413.32,74.19Zm56-12.39-4.27,1c1.43.69,1.62,2.38,3.37,1.93.47-.82,1.62-1,1.93-2a.92.92,0,0,0-.14-.3h.66C470.67,61.37,470,61.62,469.29,61.8ZM832.91,180.42c-1,3.31-5.82-3.32-7.51,1.2-1.66-1.66-2.88-1-3.88.75.78-.09,1.68-.5,2,.73l-.44.67a1.09,1.09,0,0,1,.32.7c-.08,1.44,1.48,2.57.79,4.14-.58,1.12-2.08.79-2.76,1.75-6.22,2-9.34-3.28-13.42-6.3-1.5,1.31-2.43.35-3.3-.84-2.21-.12-2.06,2.16-3.19,3.14.62,2.1-.89,2.63-2.35,3.2h0c2.52,3.63,7.17,4.95,9.52,8.76,1.41,2.65,7.3,4.4,4.79,7.92.61.52,1.73.59,1.64,2.13a5.36,5.36,0,0,1-3.32-2.07,1.52,1.52,0,0,1-.65-.25c-3.5.24-5.06-2.72-7.36-4.46h0a88.13,88.13,0,0,1-13.37-8.46,3,3,0,0,1-1.77-.29,1.86,1.86,0,0,1-.76.71c.75,2.28,5.71,2.71,3.08,4.24-2.17,1.77-4.24-.68-6.16-1.85-16.7-8.7-33.55-18.83-51.61-23.85.25.8.51,1.6.77,2.39h0l.08,0-.08,0c1.06-.06,1.46.61,1.64,1.51,1.6.07,2.44,1.2,3.27,2.34,1,2,3.3,1.42,4.75,2.49.15.31,0,.87.66.72,2.52,1.78,5.14,3.57,6.81,6.12,1.27,2,3.29,1.76,4.87,2.73,5.47,3.39,10.88,6.79,16.94,8.71h0l1.58,1h0l.84.54c1.74,2.5,4.82,2,7.15,3.19h0l2.17,2.09c-1.3.53-2.34.57-3.27-.34-1-.07-1.63-1.43-2.84-.86a1.74,1.74,0,0,1-2,0,5.17,5.17,0,0,1,1.22,1.42c3.08,1.67,5.14,4.85,8.67,5.85,1.32.74,3.21.44,4,2.15,1.16,1.25,3.78,1.38,3.14,4a1.84,1.84,0,0,1-1.09.29c1.72,2,1.24,4.09-1.88,3a52,52,0,0,0-7.41-.86c-1.1-1.59.95-1.26-1.51-3.14-2.39-.42-4.3-2.19-6.36-3.38,0-.23,0-.47,0-.71-.8-1.07-2.45-.43-3.19-1.61h0c-.92-1-.6-2.24-.22-3.35-.14,0-.7.72-.84,1a2.07,2.07,0,0,1-2.82,2.26c-10.83-4.51-21.66-11.31-32.85-15.74-4.12-1.62-8.66-3.53-13.64-3.05-2.47.24-5.1-1.19-7.65-1.87-2,0-4.16.48-5.69-1.44-22.5-4.84-45.7-6.17-68.72-6.45-4.59.78-12.67-2.57-15.13.7-1.85,2.32-3.58-2.53-6.76-.86-5.71,2.63-11.84-.26-17.59,1.74-3.05,1.06-6.22-1.65-9.56-.2-4.23,1.84-8.75-.08-13.23.73-5.69,1-11.69.27-17.42,1.15-11.06.63-21.5,3.54-32.84,3.86-4.74,0-8.5,3.76-13.21,2.24a4.2,4.2,0,0,0-4.58,1.12c-2.26,2.36-5.21,1-7.85,1-4.77,0-9.16,2.41-14,2a1.42,1.42,0,0,1-.45.3c-.62.94.72,3.51-2,2.68-2.22-.07-4.71.54-6.36-1.37h0c-4.67-.57-3.48,6.84-7.75,2.95-.75-.83-1.36-1.83-2.52-2.2-.64,2.3-2.21.17-3.22.67-1.15.87-1.15,2.45-2.37,3.29-4.79-.28-9.54.45-14.31.58-2.25.07-.5,2.79-2.37,2.61-1.77.7-1.83,2.89-3.34,3.82-5.26.22-10.62-.14-15.52,2.5a2.47,2.47,0,0,1-2.75-.32c-7.19-4.37-5.17,4.3-11.67,3.41-11.2.15-21.31,5.06-32.33,5-5-.72-9.85,1-14.75,1.75-4,.64-8.23-.1-12.13,1.81-2.22,1.09-4.53,3-7.28.94-7.62,2-15.63.79-23.41,1.62-16.29,2.43-32.71.15-49,2.48-2.93.58-6.14,1.17-9.31-1.58-6.39-4.33-16.14,1-23.51-.8-.43-1.65.05-3.83-1.65-4.82-1.25,1.75-3.42-.55-4.7,1.06-1.3-.37-1-2.28-.06-2.79-2,.79-3.8-.42-5.65-1v.52c1.7,1.1,4.16,2.37,4.08,4.75-2.39-.65-4.82,1.4-7.2-.08-1.35,1.35-3.76-.62-4.86,1.54-5.29,1.88-11.33-3.35-17.41-2.46-5.4.63-8-7.1-10.91-2-1.06,1.72-2.14,1.6-3.52.64-2.45-.86-5.49-.36-7.07-3.16-2-.47-4.93,1.3-5.55-2.37l-.83-.12-.51,1.91c-.86-.4-2-.55-1.78-1.93a.81.81,0,0,1-.23-.32,2.56,2.56,0,0,1-3-2h-1.59c.69-1.91,2-.67,3.13-.67.54.44,1.3.59,1.86,1,.07-1.75,1.75-1.21,3-1.14l.25.27a2.67,2.67,0,0,0-.13.4,1.39,1.39,0,0,1,1.11-.05c-.48-.88-.25-1.06.49-1.64,1.66.12,4.2,1.54,3.56,3.47,1,.46,1.87-.33,2.79-.63l.15-.24.45-.24c1.34.7,2.91.21,2.65-1.15-3.07-5.29-6.67-1.57-10.25-4.33-3.15.28-6.69,1-8.85-2.09-1,1.52-1.88,4.28-4.22,3.58a43,43,0,0,1-5.12.94c-1.22.08-1.93-.15-1.59,1.61.28,1.39-1.19.84-2,.94-2.86.37-4.83-1.73-7.2-2.65-9.07-3.45-19-4.4-27.51-9.39A34.82,34.82,0,0,0,108,197.56c-5.31-1.24-11.52-6.64-4.27-11-1.13-1-3.2-1.76-1.86-3.86-2.43.37-3.88-2.59-6.17-.78-1.42,1.19-1.27,2.38-.49,3.81s-.49,2.36-1.28,3.36c-1.23,1.75-5.7-1.95-7-2.82-2.58,0-.51-3.31-2.62-3.64-1.3-.61-2.42-1.28-.73-2.71l1,.32c1.32,0,1.43-1.38,2.26-1.94h0a2,2,0,0,1,0-.69,3.77,3.77,0,0,1-3.51-1.15,2.76,2.76,0,0,1-1.74-.84,1.63,1.63,0,0,0-.32,1.15c-1.49.37-2-1.37-3.19-1.55-.66-.64-2.17-1.17-1.7-2.42a.67.67,0,0,0-.5-.14l-1.11-1.24v0c-2.11-1.13-1.36-3.14-1.48-4.88-1.94-1.05-5.61-.05-5.22-3.35.29-2.46,3.14-2.17,5.18-2.33,1.11-2.33,4-1.7,4.75-1.16,3.35,2.24,8.19,1.88,10.44,5.92,3.83,1.52,11.14,3.63,12.82,7.45-.16,2.28,2.39,1.93,2.57,1.86,6.91-2.37,13.95,6,21.72,7.26,10.47,3.34,20.8,7.11,31.45,9.91,5.33,1.4,10.47,3.53,15.69,5.34,3.1.13,6.12.2,9.14,1.44a9.57,9.57,0,0,0,6.34.44c7.09-1.56,7,3.29,16.31.59.24-.52.48-1,.71-1.55-2.61-.89-5.61-.5-7.9-2.43-5.66.74-10.78-1.17-16-2.88-3.26-1.06-6.87-.5-10.29-1.95-4.46-1.88-9.56-2.29-13.91-4.34-6.94-3.26-14.4-4.79-21.49-7.47-3-2.26-6.54-2.38-9.82-4h0c-1.71-.17-3.26-.61-4-2.39-2.88-.32-4.83-2.43-7.2-3.73-3.09-.37-6.26-.45-8.85-2.55-4.3-3.74-9-6.62-14.81-7.41-1.38-.09-1.49-1.2-1.75-2.19-1.83-.44-6.74-5.39-7.54-7.1a2.26,2.26,0,0,1-1.51-2,6.05,6.05,0,0,1,1.24-.55c.78.16.86.74.82,1.39a1.41,1.41,0,0,1,.71.27,9.49,9.49,0,0,1,2.26,0,.76.76,0,0,1,.12-.19c.09-.8-.39-1.79.76-2.24-.79-4,1.33-2.85,3-2.4a12.25,12.25,0,0,1,.06-1.61c-1,0-3.2-.23-3.11-1.5-1.44-1.27-3.87-.38-5-2.28-1.93-.57-2.4-2.62-3.8-3.73-2.34-2.71-.5-2.92,1.73-2.89,2.46-.14,3,2.53,4.75,3.32a.71.71,0,0,0,.55.35l-.55-.35c2.57-1,4.16.58,5.78,2.13l.39,0c1.94-1,3.68-1.19,4.95,1,1.26.95-.35,2.06.17,3,.8.67,1.51,1.72,2.41,1.9s2.86-.06,1.89-1.77-1.41-3.1.22-4.5c1.9-1.64,2.56,1.16,4,1.18a2.79,2.79,0,0,1,2.23,0c.33-.61-.56-.24-.51-.62-.15-1.51-1.59-2-2.36-3.05.1-.56.16-1.18.27-1.76-.45.42-1.1,1-1.83.93-.51.64-1.45,2-1.88.51-1-2.12-4-4-2.39-6.58-.73-2.85-3.81,1.34-4.76-1.9l-2.19-1.89c-2-.31-3.24,1.23-4.87,1.8-1.16,2.37-2.78,3.39-5.34,1.89-2.76-1.47-3.92,2.78-9.65,1.37-1.07.77-2.75.64-3.27,2.22-1.36-.09-4,1.27-3.25-1.67.42-1.62-1.53-1-1.73-2l-.65-.78c-2.65.59-6-1.4-7.82,2.24h0l0,.76a1.78,1.78,0,0,1-2.36-.05c-2.89.84-4.08-.87-5.62-3-1-.1-1.86-.22-1.77-1.52,1.08-1.32,1.85-1.28,2.38-.2.56-.56,1.06-1.18,1.66-1.72L45.51,122c-1.31.1-2.16-.92-3.14-1.59-.32.64-.92.68-1.53.71l-1-.56C36,123,34.41,117,32.09,115a2.67,2.67,0,0,1,2.43-1.45c0-.91-.09-1.86,1.48-1.73,0-.78,0-1.56,0-2.34l2.34-.15.17-.83c-.71-1-1.6-2.81-3.15-2.4l-1.47-3c2.08-1.93,2.26-.7,3.69.69a1,1,0,0,1,.22.88l3,2.24,1.59-1.53c1.47,1.14,3.68-1.13,4.83.81a1.61,1.61,0,0,0,1.67-1h-.07l-.16.32c-1.8.08-1.58-2.6-2.92-2.57a1.87,1.87,0,0,1,.48,2.34l-2.22.07c.13-.77.27-1.54.42-2.3-1.51.5-2.41.26-2-1.61h-.2a2.12,2.12,0,0,0,0-3.11h0c-.84-.14-1.82.06-2.28-1-.71,1.38-2.43.81-3.68.79.92-.79-.16-1.56,0-2.34l2-1.58h0l.09-2.29c1-.67.1-1.79.63-2.57-.19-.44-.39-.89-.59-1.33,1.35-1.24,2.87,0,3.87.93a2.12,2.12,0,0,1,2.61.58l1.31-.16a3,3,0,0,0-.15-1.46l.28-.85,1.48.09.24.46a2.07,2.07,0,0,1-.1.33v0a2.3,2.3,0,0,0,1.35-.05,1.08,1.08,0,0,1,0-1.26,1.16,1.16,0,0,1-1.62-.89.66.66,0,0,1-.51-.13h-.34c.28,2.3-3,1.87-3.53.26-.75,2.19-3.37,2-3.32-.45l-1.68,0c-1.19,2.22-2.1-.1-3.15-.18a.8.8,0,0,1-1-.6,2.76,2.76,0,0,0-.41-2.28l2.27.2c-.28.72-.55,1.45-.83,2.18l2.4,0L39.38,83c.25-2.42,2-2.46,3.78-2.32l1.56-.89c.14.13.29.25.42.39,1.13-.44,1.22,1.18.45,1.56a4.65,4.65,0,0,1-.34,2.42l1.19.39,0,.05,1.21-.08c-.13-.61.64-1,1-1.42.54-1.07-1.65-3.52,1.62-3.21.28,1.46,1.23,1.54,2.24,1.52-.78-.52-1.35-1.14-.62-2.33L55.05,79a2.62,2.62,0,0,1,.15-.66c1.56-.68,2.86-2.57,4.7-2.15,3.26,3.46-1.11,6.34-4.56,4.64.09.15,0,.69-.06.69l-.15.11.77.61,1.41,0a1.5,1.5,0,0,0,1.62,1.47c-.29-1.78,1-2.72,2-3.86a1.29,1.29,0,0,0,.44,0c1.16.66.82,1.54.38,2.45.82,1.24,1.67,2.48.61,3.76.06,0,0,0-.07.08l2.3-.15c0-.73,0-1.47,0-2.21l1.64.12h0l2.25-.33a.82.82,0,0,1,.08-.29l-.27-.25c-.26-1.64-2.22-1.24-2.88-2.4l-.9-.75c.26-.93,1-1,1.78-1,3,3.8,2.64.94,5.17,1.49a3,3,0,0,1,.82-1c-.64-.39-.42-1.22-.53-1.86l-1-.13c-1,1.19-3,.06-2.85-1.41.56-.29.92-1.67,1.58-1a4.38,4.38,0,0,0,2.3,0,1.78,1.78,0,0,0,1.59.1c.62,1-.06,2.69,1.63,3.14.26-.7-.46-1.77.58-2.19V76c.73-.78,1.84-1,2.63-1.64,2.58.15,2.65,2.69,3.93,4.08,1.22.33,1.77,2,3.71,1.25a2.91,2.91,0,0,1,3.66,2.47c1.75-.07,2.17,1.43,3,2.5,2,2.17,5.31,2.43,7.3,4.66a.92.92,0,0,1,.61.06c2.56-2.55,3.85,3.17,9,4.71a.41.41,0,0,1,.56.2c1.68.16,3.87-.61,4.07,2.23,2.35.3,2.33,4.45,5.52,3.38,1.45-1.38,2.18.09,3.1.78.19.18.23.34.15.46,8.12,1.41,5.4,5.86,9.35,5.17,4.33-.16,8.65.86,11.22,4.61,4.23-3.61,8.37-2.25,12.39.33-1.39,1.37-3.54,0-5.12,1.14.94.26,2,.36,2.33,1.54h0c2.26,3.66,6.7,1.75,9.51,4.24a4.28,4.28,0,0,1,3.42-.66c-.29,1.27,1.39,1,1.53,2h0l6.94,1.72c1.4,0,2.86-.47,4.05.71,2.37,2.14,4.71,3.93,7.17.06a8.41,8.41,0,0,1,3.78.53,2,2,0,0,1-.55-1.24c.91.64,3.2-1.62,3,1.41a5.48,5.48,0,0,1-1.66.17,6.2,6.2,0,0,1,3.38,3.79c2.5,1.46,4.88.91,7.88,1-1.26-3.6-4.65-2.24-4-4.09,4.22-2.39,8.48,0,12.72-.08a2.44,2.44,0,0,1,2.39-.55c3,0,6.16-1,8.78,1.41.46.95-.31,1.17-.89,1.5-2.07.58-4,2.35-6.31,1-2.53-.86-11.44-4.17-10,1.41a52.48,52.48,0,0,0,22.66,2.45c-.5-1.22,3.17-1.52.83-2.83-1.42-.79-1.6-1.35-1-2.82a9.59,9.59,0,0,1,1.6,1.16c1.16,1.25,3.82-1.37,4,1.31.06,1-2.28,1.75-2.88,3.21,3.38.61,6.63,2.93,10.22.81-.18-1.88-3.83-1.42-2.86-3.49.79-1.68,3.17-1.35,5-1.28s3.74-2.15,5.21.54c4.65,1.47,9.76-2.83,13.43,1.71-.42,1.92-1.9.86-2.93,1.05-.64.88-.19,1.47.26,2.05,3.15.92,6.3.46,9.47.13-1.84-.84-5.14-.27-5.35-3-.15-2,1.9-.76,2.57-1.61,1.67-1.14,3.63-.42,5.41-.85,1.91-1.6,3.44-.36,5,.64h0l1.41.27c1.4-1.21,3.1-.82,4.7-.9,3-1.75,5.87,0,8.8.21,1.26-1.38,3-.9,4.52-1.08a.53.53,0,0,1,.14-.12.81.81,0,0,0-.14.12,1.2,1.2,0,0,1,.34-.17.46.46,0,0,0-.2,0c1.42-1,3.27-.21,4.89-.45,1,.4,2,1.11,3.18.65,4.12-1.55,8.3-2.67,12.74-1.41,5.24-2.55,10.8-1.66,16.46-1.67a14,14,0,0,1,8-.72c4.71,0,9.21-2.94,14.08-.94,1.34.79,1-1.32,2-1.45,2.82-1.22,5.63-2.25,8.78-1.56,2.13-.52,4.39-.6,6.34-1.78,1.12-1.25,2.8.14,4-.84,1.41-1.64,2.6.84,4,.2l4.78-.18c1.14-3.84,4.36-3,7.17-3.14,1.33,2.56-.59,2.38-2.12,2.52-.51.36,2.19,2.8-.94,1.44a7.82,7.82,0,0,0-4.13-.74v0c-1.42,1-3.11,1.16-4.75,1.44-5.14,7-6.33-.6-13.5,3.91-.67.35-2,0-1.7,1.43-2.75,2.89-5.13.81-7.57-.45-1.39,1.59-3.95,2.14-4.62,4.37,7.72.08,15.44-2.81,23-3.58,7.37-.8,14.26-3.64,21.63-3.73,5-2.92,10.88-3.22,16.08-5.45,1.86-.8,3.58-1.64,5.66-1.26a2.92,2.92,0,0,0,1.95-.23c5.16-3.34,11.33-3.49,17-5A176.69,176.69,0,0,1,454.89,103c11.21-2.92,23.12-2.54,33.71-7,6.82.09,13.35-2.89,20.25-2a5.31,5.31,0,0,0,3-.67c4.61-2.86,9.93-.68,14.7-2.34,2.72-1.25,5.49-1.87,8.45-.69,4.42.89,8.6-3,13.2-1,2.61.85,4.86-.94,7.38-1,5.36.44,10.47-1,15.67-1.71,9,1.47,17.74-1.46,26.68-1.67.52-1,1-1.48,1.58-.12,6.14-2,12.39-2.12,18.78-2,14.75-.07,29.47-.93,44.21.16,4.45,1.17,8.43-2.72,12.75-.9,1.75.48,3.55,1.35,5.26-.16,9.55-3,9.58,1.93,20,1.31a1.19,1.19,0,0,1,.77-1c1.34-.55,1.53,1.16,2.53,1.27a5.32,5.32,0,0,1,2,.89,1.76,1.76,0,0,1,1.26-.21c3.31,2.85,7.62-3,9.8.66a5.45,5.45,0,0,1,.38-.46c-5.34-3.06-12.12-1.18-17.76-3.89a5.06,5.06,0,0,0-2.73-.26c-6.73,1.67-10.52-3.09-15.58-2.11a4.34,4.34,0,0,1-2.14,2.74c-2-.65-8.91.19-5.81-3.72-4.82.09-8,6.13-12.66,1.62-.09-.93,1.05-2-.39-2.76-2.94-.06-4.16,3.07-6.62,3.89a88.59,88.59,0,0,1-19-1c-1.8-4.49-3.35-2-6.75-1.25-1.76.48-2.84,2.66-4.81,1-2-.74-4.18-.72-6.31-1-4.64,2.5-5.72,4.65-10.34.22-.44,1.91-2.74,1.26-3.05-.13a4.5,4.5,0,0,0-3.62,2.34c-3.57,3.22-4-4.81-13.63-1.69.66,2.76.92,4-3.23,3.65-1.07.18-2,1.87-3.23.38-2.42,0-4.89-.57-7.22.59-1.29,3.42-2.72,1.79-4.15.11-2.11-1.08-5,1.37-6.16-1.48a5.26,5.26,0,0,1-4.55,2.42c-1.8,1.85-2.38-.17-3.32-1,.09-.19.09-.44.27-.57-.09-1.09,1.36-1.44,2.18-1.78.49-1,1.61-.53,2.33-1,1.91,1.48,5.27,1.81,7.17.17h0c5.3-3,10.57,2.23,15.84,0,.2-.49,1.11-.77,1.22-1.29a91.29,91.29,0,0,0-23.92,1,171.37,171.37,0,0,0-25.72,1.63v.27c.52.53,1.05,1.06,1.57,1.6l3.19,0c2.14.72,1.62-3.19,3.9-2.23,1.1,1,2.2.63,3.28,0,1.72.35,3,2.47,2.49,3-1.27,1.25-3.82,2.51-5.13,1.69-1.6-1-3.42,0-4.67-1.32-.88-.36-1.51.32-2.25.55-.39,1.25-1.72.25-2.34,1-3.21,3.86-5.58,1.21-8-1l-1.53-.16c.55-2,3.12-.45,3.87-2.14a1,1,0,0,1-.82-1.39c-1.79-.15-3.31,1.2-5.08,1-1,.92-.32,2.29-.54,3.41l-1.05.13a1.32,1.32,0,0,1-2,.88c-.51.84,1.44,1.84,0,2.46a2,2,0,0,1-2.41-.93,2.55,2.55,0,0,0-.77-.14c-1.65,1.51-2.7-.12-3.94-.76-1.73-2.92,1.54-1,2.71-1.54-1.88-1.42-4.44-1.13-6.55-1.52-1.3,1.53,3.94,2.25.65,3.71-2,.54-2.65,4.11-5.6,2.44-1.22,0-1.91-1.23-3.15-1.42-1.08,2.31-2.2,1.52-3.34,0l3.31-.06c0-1.7-.05-3.59,2.54-1.75h0l.54-1.05a1.28,1.28,0,0,0-.26.17c-2.4.42-4.87-.72-7.24.35,1.65,5-4.56,6.56-8.21,5.31-1.61.49-2.16-2.37-1.18-2.92a7.5,7.5,0,0,0-3.9.41c.48,1.11.72,2.21-.6,3.31-1.48,1.24-2.54,3.66-4.85,2.11-1.19-1-2.32,1.31-3.7-.12l3-2.58a.43.43,0,0,1,.52-.21l.05-.41c-3.33-.13-6.72-.67-9.93.62,1.75.24,3,1.47,4.39,2.79-3.21-1.1-4,3.36-6.95,2.67-2.12,0-6.35-1.45-2.47-4,.94,0,.4,1.63,1.22,1.78-.64-1.88,1.51-1.86,2.23-2.82-3.79-.19-7.3,1.85-11.07,2.12,2.4,1.49,2.29,2.87-.25,3.77-1.32,2-2.64,2.88-4,0-1.26.75-3.19,2-3.87,0a1.74,1.74,0,0,1,1.5-1.47,11.65,11.65,0,0,1-.89-.83,19,19,0,0,1-4.83,1.47,3.19,3.19,0,0,1,.32,3.23c-1.45-.15-1.19,3.25-3.36,1.62-.94.36-1.61-.3-2.37-.62a1.86,1.86,0,0,1,.66-1.65c-.51-.49-1.33-.55-1.76-1.12a34,34,0,0,1-5.55,1.32c.08.17.16.34.23.52a18.41,18.41,0,0,0-1.61,3.86c-.68.69-1.68.87-2.38,1.53-2.21-.89-3.62-3-5.7-4.09a14.07,14.07,0,0,1-3.34,1.22,3,3,0,0,1-.31,1.37l.7.78c1.4.39,2.88-.61,4.55.48-5.39,0-5.63,3.06-9.74,3.49-1.45,0-3.23-1.57-4.24.62-1.38-1,0-2.13.83-2.93.17-.74,1.31-.9,1.54-1.61-2.57.21-5.29.15-7.64,1.4-.45,1,.95.91,1.42,1.33,1.51,1.13-1,2.8-1.28,4.08-1.19,2.59-2.6,2.63-4.32.53-1,0-2.3.91-2.58-1,.84-1.06,1.46-2.58,2.51-3.41a4,4,0,0,1-2.51-.68l-5.58.13c-1.22,1.74-3.77-.58-4.82,1.38-14.32,3.08-28.68,5.9-43.28,7.43-36.17,3.56-72.63,8.21-108.91,3.1-9.68-1.38-19.63-1.09-29.23-2.8-6.28-1.11-13-.64-19-4.44-6-2-13.42-3.35-19-7-2.43-.31-5-.07-7.08-1.74-.62-.06-1.34.1-1.65-.7-4.31-.39-9.07-1.45-12.19-4.69-2.69-.73-5.4-1.41-6.91-4.12-5.57-2.69-10.31-2.45-14.3-8.07-1.24-1.46-3.24.66-4-1.36l-4.79-2.44c-.12-.41-.18-.84-.28-1.26a1.29,1.29,0,0,1-.46.54c-2.12-.34-3-2.48-4.68-3.36-2.32.79-10.06-5.45-5.76-6.37-.23-.71-.86-.5-1.36-.59-.28,1-1,.82-1.68.54C98.87,72,97.34,70.3,97,68.91c-3.8,0-5.61-1.67-7-4.85,0-.09.1-.18.16-.27h0l-.11.28c-1.9.32-3.92,1.07-5-1.49-2.18-.34-4.82-2.1-2.11-4.33-.17-1.13.91-1.45,1.57-2.05,1.34-.19,2.75,1.25,3.39,2.34.89-.07,1.3-.63,1.39-1.53a2.74,2.74,0,0,1,2.61.94,2.33,2.33,0,0,1,1.17-2.71l.26.09c-.07-.55-.14-1.1-.22-1.65,1.14,0,2.6-.39,2.48,1.6A3.15,3.15,0,0,1,98,57.56l.78.09.78.87a12.59,12.59,0,0,0,3.13-.17,1.61,1.61,0,0,1,.88,1.59c.53,0,1.07,0,1.61,0l-.38-.13c0-.82,0-1.55,1.15-1.36.71.49,2.36.44,2.46,1.4,1.5.77,3.19-1.38,4.63.3,1,1.35.6,2.46-.57,3.45.21.41.41.82.61,1.23,1.32.39,1.6-.81,2.23-1.46,2.26-.91,5.36,1.18,3.52,3.54a2.23,2.23,0,0,1,.63,0c-.53-2.94,3.17-3.48,3.11-.4.73,1,2.43,1.49,2.6,2.73a1.43,1.43,0,0,1,1.08.57,4.87,4.87,0,0,1,.63-1.56c-1.38.48-2.18-1.76-1-2.55,2.57,1.51,4.57-1.43,6.34,3,2.11.17,4,.23,3.94,3.28.54.24,1.16,1.1,1.65.53,2-2.32,2.55-.48,3.26,1l1.44,0A4,4,0,0,1,144,74.61a4.47,4.47,0,0,1,1-1c2.18-.41.46,1.92,1.58,2.25,1.75-.87,2.24.13,2.39,1.62a3.07,3.07,0,0,1,1,.31l-.25-.14c1.28.5,2.85-.7,4,.67.5,0,.79.25.7.8a.63.63,0,0,1,.22.6L152.4,81.3c2,.06,3.63,1.51,5.67,1.2a1.23,1.23,0,0,0,.83.19,5.23,5.23,0,0,0,.35-1.91,4.49,4.49,0,0,1,2.65,1.37c2.19-.63,4.19-.36,4.61,2.46a3.09,3.09,0,0,1,2.25.86c2-.81,3.82-.26,5.59.71,2.51-1.76,3.65.86,5.36,1.68a1,1,0,0,1,.21.69c2.78.59,5.76,0,8.61.16a2.15,2.15,0,0,1,.34.54c1.24-.14,2.07.68,2.86,1.62a2.76,2.76,0,0,1,2,.35A4.72,4.72,0,0,0,195.09,90a4.15,4.15,0,0,0-.25-1.15c-2.23.11-4.87.24-5.36-2.68-4-1.1-7.94-2.26-11.94-3.29-1.45-.37-.18-.78-.12-1.18l-.84-.76c-4.84,2.79-1.55-2.74-9.35-1.86a1.24,1.24,0,0,1,.3-1.17,2.36,2.36,0,0,1-1.16-.35c-.28-.52-.55-1-.82-1.56-.43-.58-1.63-1-1.23-1.68.83-1.47,2.38-.74,3.66-.72,2.09-.73,1.37,2.66,4,1.5a5.1,5.1,0,0,1,1.66,2.45c1.6-.07,4.55-2,5.1.66a4.74,4.74,0,0,1,2.75,1c2.39.8,5.07.69,7.19,2.33l-.06-.07L190.26,80c4.78,3.67,11-1.74,15.43,2.27,1.22,1.46,2.95-.74,4.41.15,7.75-.6,15.31,2.39,23,3.51a1.41,1.41,0,0,1-.21,2.27,2.69,2.69,0,0,1,2.26.66c.86-1.12.62-3.47,2.19-3.88,3.68,2.55,7.86-.39,11.79,1.2,2.61,1.06,5.78.73,8.7,1,2.66-.3,5.29-1.84,8-.16a.89.89,0,0,1,.76.14c1.08.2,2.07-1.36,3.19-.16l5.55-.74h0c6.37-.16,12.72-1,19.1-.62,3.71-.34,7.32-1.78,11.12-.85,3.57.94,6.74-2.23,10.34-1L319,84l.7-.37c.41-.72,1-.56,1.67-.44,1.32-.16,2.59-1.65,4-.12,1.87-1,3.71.5,5.57.07,1.68-1.7,3.81.23,5.58-.69,1.74-1.18,2.75-.6,3.21,1.32,1.09-.49.83-2.24,2.27-2.4,2.48-1,1.76,1.64,2.93,2.49.66.05,1.11.65,1.71.87a1.34,1.34,0,0,1,.15.76h0l.08,0-.05,0c.85,1,9.85.63,6.46,2.52a2.9,2.9,0,0,0-2.45,2.24c.67,1.13,2.39.33,3,1.55.34.86,1.2.9,2,1l-.22,0,4.67-.2c.1-.64-.13-1.44.78-1.71,1.69-.52,3.49-1.72,4.71.75a13.68,13.68,0,0,1-2.8.91c1.2,1.54,2.4,1.47,3.6,0a12.75,12.75,0,0,0,4.79-.58c2.77-3.49,2.13.8,4,0l1.1,1.39c1.35.4,2.59-.15,3.88-.54,8-6.58,6.78.36,11.89-3.07,2.51-2.66,5.65-2.23,8.61-1.86,16.16-3.66,32.35-8.37,48.75-11.75a886.67,886.67,0,0,1,128.7-16.93c38.87-4,77.83-3.72,116.76-.59.54-1.93.57-1.95,1.63-1,1.18.19,2.16,1.22,3.3.17,15.13,1.71,30.1,5.44,44.77,9.4,3.77,1.13,8.26.61,11.25,4,2.82-1.6,4.76.88,7,1.62,7.09,2.29,14.14,4.73,20.25,9.19,9,2.06,16.69,8.09,25.1,12a4.46,4.46,0,0,1,2.4,3.18,1.15,1.15,0,0,1,.37-.72c1.31-.13,1.84.83,2.4,1.73,3.21,0,4.29,0,6.28,2.54-.16.81-1.15.29-1.79.32,3.5.9,2.32,4.22-.09,5.34,1.19.32,2.51.32,3.4,1.37l.09-.22a1.62,1.62,0,0,1,2.25.55c-.08-1,.68-1.52,1.77-1.8,1,.07,2.66-1.09,2.42,1.3.59.82,2.43-1.44,2.38,1-.5,1.46,3.2.17,1.55,2.38-.89,1.6-4.81,2.14-4.21-.44-1.41.62-2.34,0-3.16-1,.28.94.8,2.09.22,3-1.62.13-5.14,1.35-5.71-.82-1-1-1.83-2-2.73-3a3.61,3.61,0,0,1-1.52.55c-.14.29-.29.58-.43.88l-1.53-.91c-2.22-.33-2.2,2.24-4,0-1-.17-2.64.54-2.35-1.58-1.35.87-2.54,1-3.3-.73a1.9,1.9,0,0,1-1.54-1.56c-4.79,2.92-7.8-2-11.87-2.62-1.53.06-3.14.34-4.07-1.37-8.81-3.76-18-6.44-26.76-9.59-5.63-3.14-12.42-2.21-18.12-5.41-2.78-1.6-5.7.33-7.92,2.54l-.48-.16c-.82-1.1-2.2-.8-3.33-1.26-3-1.71-5.82-3.18-9.42-2.67-.35.61,0,1.32.33,2,2.13,1.16,4.35.39,6.58.52a35.93,35.93,0,0,0,5.69,3c2.43-1.74,3.67,3,6.44.94.12-.09,3.07-.41,2.68,2l1.42,1c2.54.5,5.77,1.14,7.34,3.28,1,.24,2.11-.06,3,.55.75.06,1.59-.1,2.05.76-.28,1.55.67,2.06,1.95,2.3,4.3,7.62,7,1.2,8.9,6.93,1.34,1.13,4.1.6,4,3.43.38.91,2.6-1.66,2,1.06l1.74,2.29a8.57,8.57,0,0,1,7.17,4c.34,1.8,3.19.8,3.26,2.91a1.37,1.37,0,0,1,.7.27c5.32-.25.18,2.18.8,3.13,1.28.65,1.42,1.92,1.72,3.11h0c2.3,1.39,4.34,3.48,7.44,2.8.15,0,.53.27.54.44.45,6.71,7.47,6.83,10.73,10.7,1.31,1.55,3.52,2.23,4.25,4.35,4.64,1.48,7.19,5.45,10.34,8.7,3,2.79,6.83,4.79,8.64,8.77-1.7,1.39-2.9-1.76-4.59-.49a2.87,2.87,0,0,1-3.35-1.89c-3.1-1.11-.37,2.21.95,2.56,1.42.56,2.49,1.4,2.36,3.06-2.23,1.45-6,3.62-2.2,6.21a5.07,5.07,0,0,1,.11-.68c-3.24-.56.31-4.49,2-2.3l.14-.09c-1,2.46,3.54.57.52,3.59,2.07,0,4,1.86,6.08,2.27C833.68,177,833.42,178.93,832.91,180.42ZM94,59.91a1,1,0,0,1,0-1.29,2.74,2.74,0,0,0-1.27,0l-.08,0A1,1,0,0,1,92.5,60v0a.34.34,0,0,0-.1,0l.08,0,0,0a.84.84,0,0,1,1.13.24A2.69,2.69,0,0,1,94,59.91ZM101.41,65a2.78,2.78,0,0,0-2.65-.67c.35-.64.7-1.3,1.06-1.95l-.18-.81h0c-1.65.82-3.27.29-4.9-.09h0l.15,2.14a1.79,1.79,0,0,1,1.19.86c1.62,0,3.13,1.58,2.13,3.18a2.31,2.31,0,0,1,.87,0l1.22-1.3h0A1.65,1.65,0,0,1,101.41,65Zm3.16,3,0,0s0,0,0,0Zm2.19-2.33a1.08,1.08,0,0,1-.27-1.26c-.21,0-.5-.09-.61-.3l-.76.76c0,.24,0,.48.09.71l.3.07a1.52,1.52,0,0,1,.86-.25l.33.34S106.75,65.66,106.76,65.65Zm2-2.31a2.64,2.64,0,0,1-.67-.74,1.42,1.42,0,0,1-.53.2c0,.13,0,.26,0,.39.27,0,.53,0,.79,0a.67.67,0,0,1,.18.21A1.11,1.11,0,0,1,108.73,63.34Zm4.16,10s0-.12-.06-.17v0l-.06.07Zm11.56-2.22-.11-.19c-.79-.43-1.67-1.81-2.29-.63a3.76,3.76,0,0,1,.17.66A13.86,13.86,0,0,1,124.45,71.1Zm9.79,1.65a1.68,1.68,0,0,1-.06-1.08c-1-.29-2-.51-2-1.84a7.74,7.74,0,0,0-1.45,1.63,2.87,2.87,0,0,1,2.93,1.4Zm2.48,2.91a.54.54,0,0,1-.24-.09.32.32,0,0,1,0,.14Zm3.9.58a1.74,1.74,0,0,1-.5-.92c-.58.1-1.16.24-1.75.33A9.34,9.34,0,0,1,140.62,76.24Zm5.74,2.86s0,0,0,0a0,0,0,0,0,0,0Zm.14-.85-.1,0,.1.06h0Zm3.16,2.8c-.29-.23-.25-.67-.19-1-.75.21-1.36.24-1.41-.6a2,2,0,0,1-1.13.08,2.25,2.25,0,0,1,.59,1.13A9.81,9.81,0,0,1,149.66,81.05Zm53.05,8.84-.34-.4a3,3,0,0,1-2.87,1.61,8.86,8.86,0,0,0,1.14.69A4.23,4.23,0,0,1,202.71,89.89Zm4.08,2.28c-1.17-.2-1-1.93-.23-2.4-.31-.09-.62-.19-.92-.3,0,.46-.23.76-1,.77.16,1.2,1,2.14,1.19,3.31A16.54,16.54,0,0,1,206.79,92.17Zm3.72,1a2.14,2.14,0,0,1-.94-.12,1,1,0,0,1,0,.81h.12A4.46,4.46,0,0,1,210.51,93.12Zm134.75-6.81a5.63,5.63,0,0,0,.81-.49,1,1,0,0,1-.55-.15A1.62,1.62,0,0,1,345.26,86.31Zm-9,.06c2,.51,5.09,0,6.51,1.59a3.66,3.66,0,0,1,.84-.74c-1.38.42-2.74-.61-3.61-1.58-1.77,1.34-2.35,1.19-2.73-.58C336.93,85.51,336.54,85.91,336.24,86.37ZM322.38,89.1c.84,4.65,3.45-.74,6.14.37,1.16-.47,2.83-.41,2.58-2.39.77.07,1.32.34,1.42,1a1.74,1.74,0,0,1,.91-.39c-.94-1.11-2.37-1.31-3.44-2.18a3.58,3.58,0,0,1-1.92.13l-.21-.2a.43.43,0,0,1,0,.11c.08.15.24.27.28.43l2,.26.08.79c-.83.85-1.63.93-2.37-.11-1.35-.36-2,.46-2.7,1.28C325.45,90,323.29,90,322.38,89.1Zm-59.55,3.14a7.13,7.13,0,0,0,6,.22l0,0-.18,0A8.62,8.62,0,0,1,264,91.2a1.62,1.62,0,0,1-1,.49A.89.89,0,0,1,262.83,92.24ZM227.3,88.29a4.58,4.58,0,0,1,.43.34A1.08,1.08,0,0,1,229,89a2.65,2.65,0,0,1,1,0,1,1,0,0,1,.17-.52c-.88-.17-1.95,0-2.72-.47A1.14,1.14,0,0,1,227.3,88.29Zm-14-.5a1.16,1.16,0,0,1,.38,1.1c.73-1,2.16-.44,3.16-1a5.32,5.32,0,0,0-3.23-.73C213.29,87.27,212,86.79,213.29,87.79Zm9.37,4.94a21.33,21.33,0,0,1-7.75-1.62c-3.38,3.57-.1,2.72,2.06,2.93a5,5,0,0,1,3.26,1.74,3.49,3.49,0,0,1,3.39-.75C224.68,93.68,222.94,93.51,222.66,92.73Zm23.84,1.38c-2.46-.87-5.19-.49-7.68-1.25-.67.45-1.21,1.48-2.11,1a2.19,2.19,0,0,1-2.09-.12c-1.48,2.3-2.07.56-2.82-.48a2.9,2.9,0,0,1-2.48-.59h-.09c-.56,1-1.59.59-2.41.78-.2.58-.39,1.16-.59,1.73A2.7,2.7,0,0,1,228.17,98l3.76.27a2,2,0,0,1,.49-.47,2.45,2.45,0,0,1,1.64-.34,1.64,1.64,0,1,1,3.25-.38,3.3,3.3,0,0,1,4.58,1.23A22.51,22.51,0,0,1,246.5,94.11Zm11.66,3.23A31.37,31.37,0,0,1,256,94.28c-2.46.8-4.91.35-7.44.25,1,.65,1.51,1.42.57,2.65a2.33,2.33,0,0,1,1.27,1.58l.28,0c.76.54,1.39,0,2.05-.22,1.09-1.48,3.41.51,5,.23A2,2,0,0,0,258.16,97.34Zm14.49,1.21a5.53,5.53,0,0,1-.75-1.19,6.15,6.15,0,0,0-2.18,0c-1.84-3.45-4.93-1.22-7.33-1.26-1.11,0,.21,1.29.31,2.33a18.63,18.63,0,0,1,5.22,0C269.47,99.49,271.07,98.46,272.65,98.55Zm3-7.11a6.5,6.5,0,0,1-1.77-1.29.83.83,0,0,1-.21.34,1.64,1.64,0,0,0,.55,1.05A4.93,4.93,0,0,1,275.6,91.44Zm9.58,6.16c-.69-.34-1.34-.72-1.23-1.76-.41,0-.83,0-1.24,0a1.84,1.84,0,0,1-.35.33c-2.4.29-4.8.58-7.07-.39.7,1,2.34,1.21,2.9,2.37C280.52,98.74,282.85,97,285.18,97.6Zm2.73-6.09c1.18,1.16,2.95,1.18,4.53,1.28v0a.92.92,0,0,1,.66-.48,5.11,5.11,0,0,1-2.63-1.47C289.66,91.2,288.67,91.05,287.91,91.51ZM298.15,96c-3.3,1-5.06-3-7.31-1.31a6.28,6.28,0,0,1-1.09,2.41c2.57.31,5.13.82,7.68-.14l.31.08C297.88,96.66,298,96.31,298.15,96Zm2.19-5.51c1.87,2,4.08.34,6.1,1.39.53-.19.49-.65-.05-1.36a2.49,2.49,0,0,1-.77.25c-1.75-.25-3.4-1.09-5.2-1.12A1.52,1.52,0,0,1,300.34,90.45Zm9.78,3.89a1.32,1.32,0,0,1-.66-.24c-2.65.22-5.32-.53-7.91.19,1.13,1.31-.17,1.22-.85,1.49,0,.51,0,1,0,1.53,1.84.43,4.25-.54,5.73.69,1-.7,1.84-2,3.22-2C309.83,95.42,310,94.88,310.12,94.34Zm1.77-4.13,3.15.06a1.51,1.51,0,0,1,1.51-.65c.9,1.39,2.28.33,3.39.65l-.12-.8a2.71,2.71,0,0,1-2.06-.56,3.09,3.09,0,0,1-1.64.34c-1.79-.47-3.78,0-5.46-1a1,1,0,0,1-.49.74C310.47,89.69,311.63,89.45,311.89,90.21Zm11.82,4.15a5.07,5.07,0,0,1-1.77-1,.8.8,0,0,0-.63.67l-.37.1c-5.81-3.62-2.53.82-8.2-.66-.41,1.2.73,1.32,1.29,1.84l.3-.07a4.79,4.79,0,0,1,2.69,1c1.2-.84,3.14.06,4.06-1.45C321.68,94,322.91,94.73,323.71,94.36Zm12.83-1.83a1,1,0,0,1-.55-.81,2.79,2.79,0,0,1-4.64-.59l-3.51.05-.09,1c1,.44,1.17,1.37,1.36,2.27,1.37-1,4,.4,5.57.83l0,0A3.45,3.45,0,0,1,336.54,92.53Zm14.22-2.19c-2.46,2-6.16.72-8-1.52-1.76,1.52-4.81,1.12-5.73,3.86,3.23,0,6.14,1.81,9.39,1.21,1.09-.22,1.12-1.88,2.09-2.39a1.6,1.6,0,0,1,1.68.25.57.57,0,0,1,.51,0h0Zm2.85,5.23a12.45,12.45,0,0,1-2.07-1.84c-.82.23-.32,1.15.07,1.56A4.05,4.05,0,0,0,353.61,95.57Zm46.63,12.15h0l-.06,0Zm14.69-1.8.21.1h0A.78.78,0,0,0,414.93,105.92Zm.22.11h0l-.13.14,0,0A.83.83,0,0,1,415.15,106ZM42.35,84.63l-.06-.13a.51.51,0,0,1,0,.13h0ZM40.64,96.71l-.82-.58a1.77,1.77,0,0,1,.24,1.06Zm5.56-4a1.15,1.15,0,0,0-.67-1.11h0l-.47-.05a1.67,1.67,0,0,1-.2.78C45.31,92.48,45.76,92.59,46.2,92.73ZM75,82.23h0c0,.28,0,.55,0,.82h0c1.15,1.5,2.33.22,3.51,0-.39-1.55.1-2.87,1.37-2.69a5.08,5.08,0,0,1-2.94-1.65l-1.23,1.06h0C75.44,80.62,75.2,81.43,75,82.23ZM79,105.08a2.53,2.53,0,0,1,1.4-.81,1.44,1.44,0,0,1-.23-1.47c-.55-.65-1-1.51-2-1.43l-.69,1.36C78.72,102.79,79.88,103.76,79,105.08ZM75.15,99.8H74.8a5.37,5.37,0,0,0,3.31,1.51l.08-.75-.77-1.37c-1,.46-2-.73-1.93-1.7a1.62,1.62,0,0,1-1.29-.63c0-.06-.09-.11-.13-.16-.47.15-.67.6-.64,1.31A2.06,2.06,0,0,1,75.15,99.8Zm-.36,0ZM55.47,83.36l.17.09a.29.29,0,0,1,0-.09ZM54.25,89l.48.07.16,0-.17,0a2.3,2.3,0,0,1-.15-.32A2.13,2.13,0,0,1,54.25,89Zm-4.7,8.5c.64-1.68,3.44-1.66,3.18-4l-3.13-.87h0l-.85.17c.23,1.23,1.23,3-1.07,2.45a2.45,2.45,0,0,1-.23.64l-.18.17Zm8.52,18.32c-.78-.07-1.61,0-2.1-.89a1.7,1.7,0,0,1,1.18-1.51,2.23,2.23,0,0,1-.18-1.14c-.71-.3-1.18.28-1.65.87-2.35.13-3.12-2.22-3.4-4.16-.75.11-1.42.06-1.62-.82l-.24.16c2.31,2-1.34,4.91-2.18,2a1.4,1.4,0,0,1-.73,0,4.35,4.35,0,0,1-.07,1c1.27-.15,1.91,2,.87,2.76-1,0-1.49-.56-1.65-1.49l-1.16-.14c-.37,2.17-2.21,3-3.55.77-1.07-1.79-2.12.52-3.19,0,0,.28,0,.57,0,.85a2.43,2.43,0,0,1,1.14,3.42,4,4,0,0,1,1.24,1.31c.84-.77,2.41-1,3.1.06,1.18-.18,3.23.41,2.65,1.92,1.07-.42,2.65,0,2.7,1.32l.21-.08c.37.75.14,1.15-.36,1.38,1.58.16,1.22-2.9,4-1,1.68.51.61,2.71,2,3.43A5.9,5.9,0,0,1,54.8,123c-1,.14-2.17-1.17-1.18-1.91-.12.06-.11.09-.36.28-1.13-.17-1.51-1-1.68-1.94.74-2.33,4.23-1.44,6.12-1.47A3.22,3.22,0,0,1,58.07,115.77Zm.64-21.93.63.25a1.15,1.15,0,0,1,0-.66l-.25,0h0Zm4.56,25a17.23,17.23,0,0,0-2.11-.68,1.66,1.66,0,0,1,1.48,1.9A2.12,2.12,0,0,1,63.27,118.89ZM66,105.82a2.7,2.7,0,0,1-2.26-.62c-1-.67-.94-2.93-3-1.94a1.89,1.89,0,0,1-.86-1.1h0a3.76,3.76,0,0,0-.87,2.6c.33-.67.67-1.3,1.72-1,1.13,2.27,2.62,2,4.56,3A11.74,11.74,0,0,1,66,105.82ZM69.5,94.39a5.52,5.52,0,0,0,3.08.68c0,.22,0,.44,0,.65h0l.51-.45c-.54-.94.3-2.64,1.32-2.21-.08-1.73,1.79-2.15,3.13-1.69-1.17-.52-1.13-2-.85-3.1C75.5,88.9,74.17,88,73.4,87a1.25,1.25,0,0,1-.65.42,1.74,1.74,0,0,0,1.14,1.13,2.71,2.71,0,0,1,.25,1.58c-1.52.87-4.09-.26-4.17-2.09a1.17,1.17,0,0,1-1.15.06c.07.14-.11.45-.22.44l-1.33-.82-.06.11a2.68,2.68,0,0,1-2.67-.07.81.81,0,0,1-1.3.16c-.4,1.23.65,2.1.89,3.18A2.21,2.21,0,0,1,61.06,93l.43.47-.09-.22a1.65,1.65,0,0,1,1,1.52l2.25.2c-.22-1.44,2.71-2.41.62-4.12,0-.47,0-.94,0-1.42,1.11-1.66,2.23.55,3.35,0,1.36,1.43.43,4.19-1,5.11a2.11,2.11,0,0,1,1.5.19A1.57,1.57,0,0,1,69.5,94.39Zm9.9,13.11c-.68-.47-.3-1.48-.5-2.23l0,0v-.07l-2.35.13c-.79-.46-.11-1-.13-1.58a8.9,8.9,0,0,1-4,0c-1.12-.34-1.76.27-1,1.22,2.39-.47,2.78,2.45,4.39,3.33l-.1.28.48,0C76.89,107.59,78.3,107.55,79.4,107.5Zm1.06,5.07c-.68.5-1.49.85-1.73,1.77l-.19.21a3.39,3.39,0,0,1,1.57-.73C79.84,113.38,80.34,113,80.46,112.57ZM81.14,81a1.07,1.07,0,0,1,.07-.15l-.79-.25A4.47,4.47,0,0,1,81.14,81Zm.21,2.4a.81.81,0,0,1-.1-.18l-.07.19ZM82,120.47c-.2.22-.55.4-.65.68C81.8,120.85,82,120.63,82,120.47Zm2.73-20.32a.92.92,0,0,0,.33-.11L85,100Zm-2.36-2.07c.64.51.78,1.66,1.87,1.6a1.66,1.66,0,0,1-.19-1.63,6.66,6.66,0,0,1-1.67,0A.43.43,0,0,1,82.39,98.08Zm.5,3.27h0ZM85,114.76c-1-.34-2.07-1.16-2.64.06a1.92,1.92,0,0,1,.65,1.09,2.71,2.71,0,0,1,1.94.14A1.43,1.43,0,0,1,85,114.76Zm1.24-3c-.19-.06-.27-.22-.25-.48a3.53,3.53,0,0,1-2.42.94,6,6,0,0,0,2.21.32A1.55,1.55,0,0,1,86.27,111.74Zm3-.11.11.1h0a.71.71,0,0,1-.1-.14Zm-.48,5-.31.15v.09A1.83,1.83,0,0,1,88.79,116.62Zm1.06-.49-.13-.12a2.74,2.74,0,0,1-.48.36Zm2.22-2.41c.23.23.47.46.69.7a3,3,0,0,1,.17-.41,1.92,1.92,0,0,1,.18-.22l-.32-.34A1.32,1.32,0,0,1,92.07,113.72Zm.56,5.06a4,4,0,0,1-1.8.48l.09,1.06c.68-.13,1.48.29,2.14.06C93.26,119.88,92.71,119.28,92.63,118.78Zm12,8.12a3.32,3.32,0,0,1-1,2.45,3.86,3.86,0,0,1,.44,1.91C106.4,129.85,106.32,128.39,104.58,126.9Zm21.6,7.24c-.34-3-4.09-2.43-3.54.65l-.06,0,.06.07v0a7.62,7.62,0,0,1,3.06,3c-1.65,1.25,1.06,2.6,1.79,1h0C129.46,136.59,126.67,135.66,126.18,134.14Zm19.34,8.19c-.89-2.08-3-.7-3.84-2h0l-.92.91h0C142.15,142.29,143.73,142.13,145.52,142.33Zm8.24,14.21a1,1,0,0,0,1,1.26C157.4,157.8,154.39,153.81,153.76,156.54ZM77.44,166v-.07l0,.05ZM206,217.22c-2.21-4.1-5.54-2.15-7.32-4.69l-2.24.07a3.8,3.8,0,0,1-2.4,2.2l0,.55a4,4,0,0,1,2.61,1.17c1.71-2.65,4.29-.54,5.24,1.26A5.67,5.67,0,0,1,206,217.22Zm15.85-.89a8.4,8.4,0,0,0-7,1.31s0,0,0,0a4.61,4.61,0,0,1,4.84.79C220.71,218.06,221.76,217.69,221.85,216.33ZM237.12,203c-6.68-1.79-13.92.13-20.4-3-2.1-.66-4.52-1.83-6.47-.28a.71.71,0,0,1,0,.43,5,5,0,0,1,2.51,3.05,27.64,27.64,0,0,1,3.69.69c-.05-1.12.72-.92,1.39-.89a4,4,0,0,1,4.28,0,.47.47,0,0,1,.65.14c.89.09,1.86-.27,2.69.12C229.29,203.19,233.28,202.66,237.12,203Zm1.23-.12c-.39,0-.78.07-1.16.13A2.74,2.74,0,0,0,238.35,202.9Zm15.1.84c-4.68-.3-9.13-1.11-13.59-.94a.64.64,0,0,1,.19.08C244.29,205.42,248.74,204.28,253.45,203.74Zm1.34-72.12c-2.1.3-4.29,0-5.46-2.06a3,3,0,0,1-3.66.66c-.63.37-1.3.69-1.95,1,3.08,1.72,7.21.33,10.67.79A1,1,0,0,0,254.79,131.62Zm26.86.12c-2.06-.58-4.76.42-6-2.22a1.5,1.5,0,0,1-1.3.1,10,10,0,0,0-2.19,3.32C275.47,133.68,278.55,132.63,281.65,131.74Zm25.13-1.14a19.49,19.49,0,0,0-2.41-1.45c-1.54,1.3-3,.69-4.39-.31a7.38,7.38,0,0,1-3.21,1c-2.7,2.19-7.37.9-10-1.15-.54,2-2.28,2.75-4.32,3.12,4.84,1.48,9.45-.06,14.1-1.22C300,131.9,303.38,131.44,306.78,130.6Zm3.07,71.62c-1-2.49-4.13,1.4-1.09.77C309.18,202.89,309.52,202.46,309.85,202.22Zm2.65,22.86c-.16-1-.71-3.53-1.7-1.9C310.38,223.92,311.34,224.42,312.5,225.08ZM320,129.72a19.54,19.54,0,0,1-1.77-2.3l0,0c0,.14,0,.29,0,.45-2.31.9-5,.89-7.06,2.42C314.07,130.81,317,130,320,129.72Zm26.42-3c-1.93-.94-4.43-.39-6.14-1.93-2.24,2.28-7.83,3.76-10.54,1.45a2.44,2.44,0,0,1-3.07.06,6.43,6.43,0,0,1-2,2.16c-1,.47-.91.85-.58,1.19a23.7,23.7,0,0,0,12.2-2.39C339.74,128.41,343.09,127.74,346.4,126.73ZM465,195.64c-.69-.56-.93-2.83-2.33-.58-.27.42-.67.84-.16,1.27A6,6,0,0,1,465,195.64Zm14.51-4.18c-1.61-1.24-.82,2.13-2.36,1.42C477.31,195.36,481.24,192.59,479.48,191.46ZM787.54,216a11.5,11.5,0,0,1,3.53,1.61c-.54-1-2.55-1.07-2.24-2.37C788.27,215.16,787.91,215.59,787.54,216Zm-16.22-11.17a7.94,7.94,0,0,1,.95.28c.33-2.29,2.34-1.8,3.88-.68a3,3,0,0,1-.68-.94c-.91.08-1.81-.53-2.78-.21C772.24,203.78,771.76,204.29,771.32,204.82Zm-3.85-7.62a7.22,7.22,0,0,0,.6.5A3.06,3.06,0,0,0,767.47,197.2Zm51.88-38.86h0l-.16.16ZM38.26,91c-.18-.29-.37-.58-.56-.87-.56.21-1.65.18-1.32,1C36.84,92.22,37.63,91.2,38.26,91ZM90.87,55.37l1.42-.18C92.23,53.1,88.9,54,90.87,55.37Zm-42.94,58.7h0Zm0,0c0,.27-.06.55-.08.82.79,1.3,1.47.45,2.17-.1C49.86,113,48.9,113.57,48,114.06ZM71.63,90.59c-.38-1.3-2.62.55.15,2a4.26,4.26,0,0,0,.71,0A2,2,0,0,0,71.63,90.59Z" transform="translate(-13.76 -19.5)"/></svg>