<svg id="Livello_1" data-name="Livello 1" xmlns="http://www.w3.org/2000/svg" viewBox="0 0 819.49 169.55"><path id="Element_07" d="M91.92,110.41l-3.24,1.1a6,6,0,0,1-5.89,3.11c-2.37,1.75-4.54,4.27-7.29,5.27-1.69.46-2.36,2.54-4.26,2.66-.17.44-.46.67-.95.46-1.2.33-1.58,2.29-3.28,1.63-.76-.9-2.71,0-3.07-1.52l-.88-.09c.12-1.54.62-2.52,2.4-1.66,2.08.2,3-2.12,4.84-2.34,1.1-1.65,4-3.83,5.87-2.59a1.29,1.29,0,0,1,.84-.32,6,6,0,0,1,.14-3,4.21,4.21,0,0,1,4.61.64,7.76,7.76,0,0,1,1-3.32c1.61-1,3-2.39,5.06-2.47,1.07-.77,1.61-2.32,3.2-2C93,107.13,92.85,108.68,91.92,110.41ZM60.31,128.07c1.61,0,3.44.66,4.17-1.6C62.92,126.42,60.76,126.07,60.31,128.07Zm749.62-22.61c-5.28,3-9.71,24-14.12,21-.77-1.31-1.57-2.55-3.36-1.36-2.22-.23-5-3.18-4.31-5.55a6.87,6.87,0,0,0-2,1.29c-1.49,1-3.65,1.39-4.48,2.92-1,1.79,1.21,3.16,1.74,4.83,2.85,7.08-6.57,8.93-7.75,2.51.22,3.17-2.84,4.82-2.33,8.26.16,2.18-1.67,4-3.12,3.64-4.44-1.39-6.71,3.62-10.73,2.22-1,.77-2.48.51-3.61,1-5.19-1.32-2.77-2.2-5.25-2.87-.92,2.34-4.06,3.92-6.35,2.32a2.59,2.59,0,0,1-1.43.68c2.21.29,2.13,2.7,2.36,4.41.89,4.31-3.5,4.13-6.56,3.83-2.85,0-4.87.25-6.08,3.76-1.43,4.18-5.31,4.6-7.69,1.16.13,2.24-.55,3.6-2.76,3.49-1.2,0-1.73-1.38-2.9-1.44-2.32,3.18-5.15,5.18-9.32,4.07-3.43-.24-3,2.69-7.46,1.06a11.79,11.79,0,0,0-2.5,4.27,1.42,1.42,0,0,1-.14-1.94,17,17,0,0,1-15.34,2.3c.13,1.24-2.66,1.7-2.18.05-7,6.52-6.82,1.54-11.92,6.36-2.19-.14-4.4-.59-6.44.77a2.81,2.81,0,0,1-2.43.34c-5-1.83-9.5.72-14.22,1.41-9,1.38-18.06,1.4-27.09,2-2.09-.67-4.34,1.64-6.36-.34-.75-1-.25-2.33-1.07-3.25a2.22,2.22,0,0,1-.53.43,4.6,4.6,0,0,0,.81,2.28c-.76.53-5.52-.5-5.08-1.38-1.77-.89-3.25,1-4.88,1.5-9.2,1.1-8.64-3.4-15.57-3.26a1.39,1.39,0,0,0-1.18.17c-3.4,4.23-7.3,2.73-11.7,1.7-8.49,5-17.48.81-26.36,1.66-4.76,1.28-8.25-2.64-12.57-3.35-.62-.1-1.15-1.18-1.73-1-4.34,1.07-8.54-1.34-12.67-.67-7.94,1.23-15.52-2.14-23.48-1.12A45.8,45.8,0,0,1,483.35,174c-3.08-.82-6,1-9.2-.8-3.53-1.9-7.87-2.09-11.19-5-1.48-1.31-4-1.29-6-.63-7.3,2.91-8.28-4.58-12.94-2.9-10.36,4.29-15.23-6.83-26.33-1.73-8.41,3.05-12-4.24-20.75-3.2-5.46-.25-10.54-2.69-16.06-2.18-1.4.13-2.74-.87-3.7-1.75-2.73-2.53-6-3.31-9.5-3.93a.58.58,0,0,1-.17.4l-1.86-.61c-3,2.87-10.89-.07-14.12-1.75-1.57-3.21-4.81-2.1-7.54-3.09-20.36,4.25-18.06-2.6-34.24-8a3.76,3.76,0,0,1-.44-1.26c-1.31-1.45-3.63-1.43-4.69-2.87-3.89.42-8-1.57-9.25-5.45a1.54,1.54,0,0,1-1.7-.12c-6.7,3-12.87-1.31-18.89-3.27a89.12,89.12,0,0,1-15.85-6.21,3.17,3.17,0,0,0-.68-.87c-1,0-2.12.37-3-.25l-.89.28c-5.1-4.57-12.32-6.21-18.08-9.37-4.69,1.31-8.25-1.71-12.19-3.12-4.68-1.67-9.56-1.32-14.33-2-6.18-.91-12.35.66-18.52-.33-2.37-.38-4.62.81-6.88,1.44-5.37,2.33-8.44-3.93-13.37-1.16-.65.6-1.41.4-2.2-.09-2.61,1.39-4.21-1.37-7.25.12-1.27.41-2.77,2-4.35.43a3.79,3.79,0,0,1-3.25-1c-2.45,1.24-5-.34-7.52.39l-.06-1.48c2,0,3.2-1.48,5-1.91,0,0,0-.1,0-.16.8-1,2-.74,3.05-.76a.6.6,0,0,1,1,0c.57,1.16,1.74.56,2.59.88,1.93.13,3.55-1.39,5.41-.7a3.81,3.81,0,0,0,.45.76l0-.06c1.4-.39,2.74-1.51,4.22-1.16.71-1.17,2.14-1.74,3.24-.6a.86.86,0,0,0,.81.72c1.45-1.11,3.68-1.55,4.53-3.3l1.35,0-.86-1.71h-.34c.06-.32.14-.64.22-1a11.75,11.75,0,0,1-3.89.4c.14-.42.29-.83.43-1.24-1.16.33-3-.4-3,1.81.81-1.3,1.6-1.39,2.35,0,1,1.11-.9.94-.74,1.68l-1.68.14a3.14,3.14,0,0,1-4.14,0c.5,1.42-1.86,1.68-2.44.56.26-.77,2.29-1.64.63-2.31-1.85,1-2.84-1.09-3.49-2.47.14,2.46-3.58,7.5-5.58,3.8-.73.21-1.74,1.06-2.29.32a8.93,8.93,0,0,1-7.77,1.75c.92,1.32-.68,1.77-1.61,2.34a3.34,3.34,0,0,0-2.59-.83c-.3.58-.81.59-1.54,0a11.93,11.93,0,0,0-6.7,1.15.89.89,0,0,1-.91-.26,6.86,6.86,0,0,1-1.36.6c.11,2.61-2.64,2-3.65.28-3.46-1.08-4.6,2.07-7.38.84-.27-.88-1.26-.87-1.81-1.4.11.44.39.91-.25,1.25-2,1.14-3.41-.17-4.88-1.14-2.09,1.39-3.79,2.64-6.57,2-2.11,1-4.29,4-6.82,2.8-1.36,2.09-5.19,0-6.35-1-6.22.21-12,5.64-18.1,7.3.36.49-.82,1.5-.68,1.91-2.5-.22-5.38,3-7.62,3.46l.87.24c-2,1.09-3.91,2.3-5.87,3.46-.08.3.72-.17,1.22-.37-1.15,1-1.73.57-2.07.19-.67.94-1.35,1.85-2,2.76-4.49,1.52-8.61,4.88-12.32,7.93-5.79,5-11,8.51-16,14.47l1.07-.74c-1.75,2.16-.28-.11-1.86,1.59-1,1.3.11.94,1.53-.67,1.1-.72.6,0,0,.69a185.16,185.16,0,0,0-17,15.84c2.58-3,4.76-5.31,7.57-8.58-.38-.28,1.26-1.5,1.12-2.12-.85.94-.48.52.51-.58,2.12-2.61,7.15-7.15,9.13-9.83-2.81,2.51-8.8,8.73-8.15,8.21,2.19-4.33,18.88-18.84,20.39-20.44l.57.34c2.4-2.67,3.81-5,6.18-7.44l1,.35c-2,1.07-2.17,2-3.84,3.68,3.09-2.58,4-2.47,6.33-4.4-.61-1-2.37,1,.44-1.79,1.13-.18-.38,2.4,2.32.28,3.54-2,2.08-3.17,5-5.28l-2.22.91c1.09-.78,3-2.46,4.39-2.46-1,.54-4.11,3.21-3.55,4.57,1.07-1,4.07-2.38,5.27-3.13l-.3,1.27c1.59.1,1.75-1.56,3.63-1.71,1.26-1.35-1.45-.78-.78-1.62.43.11,3.52-1,4.26-2.2-1.8-1.42-3.54,2.69-5.78,1.78.94-.46,1.9-.88,2.85-1.29.45-1.47-.63-.81-1.79-.05s-2.4,1.7-2.28.69c1.21-3.29,5-.72,5.86-4.42-1.46.27-5.5,2.73-5.26,1.75,2.27-.53,3.2-4.59,6.75-4.23.75-1.26-.06-.78-1-.71,4.55-1.29,9.87-6.17,15-7,2.9-1.9,0-1.24,1.1-2.81,2.1.61,4.42-2,6.12-2.83.53-.14.95-2.14.28-2.52l-3.94,3.15c-.06-.91-1.11-1.88-2.56-.85,1.73,2.29-6.82,1.88-5.71,4.94l-.44-1.42c-1.67,1.34-3.32,2.72-5,4.09l.14,0c-.59.11-4.24,3.69-7.11,4.93.66-.94,5.69-3.52,2.3-3.08C74.74,99,79,97.72,82.83,94.83l-1.11-.47c3.89-4,10-5.28,14.59-8l-1,2.16c1.84-.31,4.36-.14,5.56-2.2-2,1.09-1.22-.27-1-1.1,2.86-2.4,7.23-3.39,10.51-5.59,0,0-.09.43.13.59,2.83-2.09,4.58-4.24,8.1-2,.65-.52,2.4-1.2,1.49-1.93a2.05,2.05,0,0,0-1,.32c1.58-2.72,1.55-.06,3.84-2.24-1.6,2.38,1.17,2,1.32,3.77,2.83-1.85-.41-3-.21-3.92,3.87-.51,4.67.81,8.42-.2,0-1.13-2.76.24-3.34-.82,1.11-.11,2.32-.67,2.42-1.13h-2.44a26.05,26.05,0,0,0,12-3.45l-.45-.45,2.67-.85-.55,2.4c1.33-1,3.23.38,3.68-1.55l-.56,0,1.67-1.25-1.45,2.68c2.44.19,4.8-5.16,8.61-6,1.32,2.73-6.27,3.06-6.06,6.93,1.34.21,3.56.26,4.12-1-.33-1-1.22-.73-2.11-.49,2.72-2.93,8.21-1.09,9.85-5.24l-2.67-.5c2.6-1.24,4.95,1.85,5.75.24l-1.47,4.16c2.5-2.69,6.29-3.35,8.91-5.74-.28-2.45-3.93,1.22-3.81.67l1.05-2.11c4.46.13,1.43,1.09,6.78,1.13L174.85,60c1.68,2.21,6-4.1,4.89.94l-1.54-.7.38,2,5.81-2.86c-.4,1.71,2.45.6,1.91,2.89l2-2.38a2.41,2.41,0,0,1-.41,2.62c7.19-3.12,14.4-6.13,22.49-6.3,4,.24,7.07-3.74,11-3.2,8.24,2.28,16.22-.84,24.33-1.17C255,51.45,264,48.35,273.37,49c1.29.09,2.39-.67,3.58-1,4.94-2.57,10.48.92,15.37-2a14.22,14.22,0,0,1,8.88-1.67c6.19,1.17,11.6-2.49,17.58-2.49,5.07.31,10,1.8,15,0,9.35-3.41,18.5,2.83,27.95.26,8.58-2.85,11.22,1.63,16.28.19C390.36,37.47,396.86,46,407.6,44a38.36,38.36,0,0,1,17.35-.3c2.38.53,4.31-.85,6.5-1a2.06,2.06,0,0,0,3.1-.85c2.27-.36,4.53-.83,6.82-.23.74.25.85,1.55,2,1.18,3.36.87,6.47,2.8,10.21,2a2.76,2.76,0,0,1,2.95,1.73c.16,1.14.62,1.55,1.63.65,20.72-5.75,15.17.15,30.8.15,6.81-.62,13.56,1.41,20.29.33a94,94,0,0,1,14,.93c3-1.42,5.76,1.24,8.79.65,5.33.37,10.64-4.28,15.49-.12a3,3,0,0,0,.13.36,5.05,5.05,0,0,1,3,.76,2.74,2.74,0,0,1,3.31.72c.14,0,.18.08.19.22a4.91,4.91,0,0,1,4.32-.3c3.7-.59,7.63-1.63,11.3-1.74,2.8-1.38,5.53,2,8.29.58,1.08-1.32,2.26,1.67,3.34-.07.64,0,1.34-.12,1.72.62,2.63,1.91,5.06-.53,7.59-.86.76-.09,1.15.6,1.5,1.1,3.26,2.18,7.2-1.23,10.75-.24a1.19,1.19,0,0,1,.17.27c.51-.54,1,.79,1.57,1,3.49-1.13,9.57-2.78,12.77-.52a1.15,1.15,0,0,1-.24-1.33c2.2-1.83,3.64-1.1,4.78.7.44.16.85.39,1.3.51l4.61-1.38c1-1.81,2.31-2.95,4.48-1.53,2.35.37,5.09-2.74,7.09.79,3.2-2.78,7.15,1.47,10.26-1,1.39-1.1,1.76-.33,2.17.4,1.54.24,2-1.58,3.32-1.77,2.27-1.36,8.49,3.18,7.13-1.17,2.85-1.92,5.64.25,8.51.49.27-.68,1.62-1.46,2.3-.88l1.53-.16c1.58-1.77,3-2.94,4.94-1,3.21.5,6.49-.39,9.66.5,7.8-6,6-1.59,12.48-3.41,6.93-2.91,7.58.65,15.46-3.84-.21-.75-.42-1.49-.67-2.36,2.74,1,4.45.68,7-1.17,2.68-2.43,7-1.68,10.6-2.21,3.1-.12,5.61-3.21,8.64-2.83L743,28c-.59-1.54,1-2.51,2.26-2,2.05.6,4.08.15,6.11,0-.55-.79-1-1.63.21-2.31,1-.6,1,.88,1.7,1.15,1.78.45,2.44-2.22,4.3-1.55a28.14,28.14,0,0,0,5.31-1.72c1.79-.85-1.89-3.95,1.42-3.76.72,0,1.35,2.24,2.88,2.74,3.34-3.81,10.77-1.66,13.22-6.46,4.17-1.8,9.46-.29,14-.24,14.31,1.38,12.51,13.37,20.24,15.64,1.49.32,2.53,2,3.56,3.15.71-.38,1.43-.74.69-1.93-.23-.35-1.91.06-.63-1,.28-.22,1-.68,1.51-.4.12-3.92,3.31-3.94,4.89-.72C844.5,51,827.35,86.74,809.93,105.46ZM33.26,141a3.48,3.48,0,0,0-.85,1C33.05,141.33,33.39,140.93,33.26,141Zm4.94-4.48-.86.81.68-.58ZM155.39,70.94l2.38-.62c.22-.34.19-.57-.93-.49A3.89,3.89,0,0,0,155.39,70.94ZM139.93,77.2c1.6-1,4.34-.23,4.7-2.6C142.64,74.29,141,75.7,139.93,77.2Zm-5.18,2.59c1.3-.68,2.58-1.4,3.92-2l0-.08C136.76,77.1,135.93,78.34,134.75,79.79ZM94,103.8c0-.5.34-1.06-1.13-.35-.08.36-.41.92.11,1.3C92.88,104.4,93.34,104.1,94,103.8Zm8.68-4.13a3.63,3.63,0,0,1,.67-.87c-4.7,1.54-8.45,3.29-9,4.87A8.42,8.42,0,0,0,97,102.26c1.44-2,4.53-.23,5.78-2.6ZM107.8,98c.1-.19.22-.37.32-.55l-2,.55C106.68,98,107.25,98,107.8,98Zm46.41-3c-.44-.09-.9-.15-1.34-.27a1.17,1.17,0,0,1,.5,1.06A2.89,2.89,0,0,0,154.21,95Zm20.46-6c-1.94-1.49-3.89-.41-5.84,0,2.49.42,5.07-.05,7.51.85l0-.77C179.73,88.74,178.21,85.44,174.67,88.92ZM571,50.28h-.14c0,.07,0,.13.07.2A1.18,1.18,0,0,1,571,50.28ZM57.62,117.72c-.7.23-1.7,1.69-2.9,2.19C55.7,119.38,57.75,119,57.62,117.72ZM55.7,114l.07.19c.11-.17.25-.37.41-.59A4.42,4.42,0,0,0,55.7,114Zm.27.67-.2-.48C55.56,114.49,55.54,114.71,56,114.62Zm3.83-3.52-2.06,1.4c-.28-.7-.42-1,.87-1.91-.43,0-1.36,1.18-1.93,1.79l.49-.28a9.64,9.64,0,0,1-1,1.45C58,112.25,60.18,113,59.8,111.1Zm.93-.21c.54-.83,1.09-1.66,1.65-2.48C61.59,109,59.74,110.41,60.73,110.89Zm4.24-2c-1.44.39.65-.92,1-1.56-2.65,1-.83,1.31-2.11,2.5A3.33,3.33,0,0,0,65,108.93Zm-1.66,1.39a4.36,4.36,0,0,0,.57-.45A3.41,3.41,0,0,0,63.31,110.32Zm-19,19.06.28.16C44.69,129.37,44.65,129.28,44.35,129.38Zm26.37-23.67c.33,0,.51-.36.81-.51Zm92.84-42.17a2.12,2.12,0,0,0,.17-.47Z" transform="translate(-14.06 -13.23)"/></svg>